<?xml version="1.0" encoding="utf-8"?>
<svg xmlns="http://www.w3.org/2000/svg" xmlns:xlink="http://www.w3.org/1999/xlink" width="600" height="400" viewBox="0 0 2400 1600">
<defs>
  <clipPath id="clip200">
    <rect x="0" y="0" width="2400" height="1600"/>
  </clipPath>
</defs>
<path clip-path="url(#clip200)" d="M0 1600 L2400 1600 L2400 0 L0 0  Z" fill="#ffffff" fill-rule="evenodd" fill-opacity="1"/>
<defs>
  <clipPath id="clip201">
    <rect x="186" y="123" width="2167" height="1301"/>
  </clipPath>
</defs>
<path clip-path="url(#clip200)" d="M186.274 1423.18 L2352.76 1423.18 L2352.76 123.472 L186.274 123.472  Z" fill="#ffffff" fill-rule="evenodd" fill-opacity="1"/>
<polyline clip-path="url(#clip201)" style="stroke:#000000; stroke-linecap:round; stroke-linejoin:round; stroke-width:2; stroke-opacity:0.1; fill:none" points="451.975,1423.18 451.975,123.472 "/>
<polyline clip-path="url(#clip201)" style="stroke:#000000; stroke-linecap:round; stroke-linejoin:round; stroke-width:2; stroke-opacity:0.1; fill:none" points="860.745,1423.18 860.745,123.472 "/>
<polyline clip-path="url(#clip201)" style="stroke:#000000; stroke-linecap:round; stroke-linejoin:round; stroke-width:2; stroke-opacity:0.1; fill:none" points="1269.51,1423.18 1269.51,123.472 "/>
<polyline clip-path="url(#clip201)" style="stroke:#000000; stroke-linecap:round; stroke-linejoin:round; stroke-width:2; stroke-opacity:0.1; fill:none" points="1678.29,1423.18 1678.29,123.472 "/>
<polyline clip-path="url(#clip201)" style="stroke:#000000; stroke-linecap:round; stroke-linejoin:round; stroke-width:2; stroke-opacity:0.1; fill:none" points="2087.06,1423.18 2087.06,123.472 "/>
<polyline clip-path="url(#clip201)" style="stroke:#000000; stroke-linecap:round; stroke-linejoin:round; stroke-width:2; stroke-opacity:0.1; fill:none" points="186.274,1386.41 2352.76,1386.41 "/>
<polyline clip-path="url(#clip201)" style="stroke:#000000; stroke-linecap:round; stroke-linejoin:round; stroke-width:2; stroke-opacity:0.1; fill:none" points="186.274,1079.87 2352.76,1079.87 "/>
<polyline clip-path="url(#clip201)" style="stroke:#000000; stroke-linecap:round; stroke-linejoin:round; stroke-width:2; stroke-opacity:0.1; fill:none" points="186.274,773.32 2352.76,773.32 "/>
<polyline clip-path="url(#clip201)" style="stroke:#000000; stroke-linecap:round; stroke-linejoin:round; stroke-width:2; stroke-opacity:0.1; fill:none" points="186.274,466.774 2352.76,466.774 "/>
<polyline clip-path="url(#clip201)" style="stroke:#000000; stroke-linecap:round; stroke-linejoin:round; stroke-width:2; stroke-opacity:0.1; fill:none" points="186.274,160.228 2352.76,160.228 "/>
<polyline clip-path="url(#clip200)" style="stroke:#000000; stroke-linecap:round; stroke-linejoin:round; stroke-width:4; stroke-opacity:1; fill:none" points="186.274,1423.18 2352.76,1423.18 "/>
<polyline clip-path="url(#clip200)" style="stroke:#000000; stroke-linecap:round; stroke-linejoin:round; stroke-width:4; stroke-opacity:1; fill:none" points="451.975,1423.18 451.975,1404.28 "/>
<polyline clip-path="url(#clip200)" style="stroke:#000000; stroke-linecap:round; stroke-linejoin:round; stroke-width:4; stroke-opacity:1; fill:none" points="860.745,1423.18 860.745,1404.28 "/>
<polyline clip-path="url(#clip200)" style="stroke:#000000; stroke-linecap:round; stroke-linejoin:round; stroke-width:4; stroke-opacity:1; fill:none" points="1269.51,1423.18 1269.51,1404.28 "/>
<polyline clip-path="url(#clip200)" style="stroke:#000000; stroke-linecap:round; stroke-linejoin:round; stroke-width:4; stroke-opacity:1; fill:none" points="1678.29,1423.18 1678.29,1404.28 "/>
<polyline clip-path="url(#clip200)" style="stroke:#000000; stroke-linecap:round; stroke-linejoin:round; stroke-width:4; stroke-opacity:1; fill:none" points="2087.06,1423.18 2087.06,1404.28 "/>
<path clip-path="url(#clip200)" d="M420.875 1468.75 L450.551 1468.75 L450.551 1472.69 L420.875 1472.69 L420.875 1468.75 Z" fill="#000000" fill-rule="nonzero" fill-opacity="1" /><path clip-path="url(#clip200)" d="M473.491 1455.09 L461.685 1473.54 L473.491 1473.54 L473.491 1455.09 M472.264 1451.02 L478.143 1451.02 L478.143 1473.54 L483.074 1473.54 L483.074 1477.43 L478.143 1477.43 L478.143 1485.58 L473.491 1485.58 L473.491 1477.43 L457.889 1477.43 L457.889 1472.92 L472.264 1451.02 Z" fill="#000000" fill-rule="nonzero" fill-opacity="1" /><path clip-path="url(#clip200)" d="M830.687 1468.75 L860.363 1468.75 L860.363 1472.69 L830.687 1472.69 L830.687 1468.75 Z" fill="#000000" fill-rule="nonzero" fill-opacity="1" /><path clip-path="url(#clip200)" d="M874.483 1481.64 L890.802 1481.64 L890.802 1485.58 L868.858 1485.58 L868.858 1481.64 Q871.52 1478.89 876.103 1474.26 Q880.71 1469.61 881.891 1468.27 Q884.136 1465.74 885.015 1464.01 Q885.918 1462.25 885.918 1460.56 Q885.918 1457.8 883.974 1456.07 Q882.053 1454.33 878.951 1454.33 Q876.752 1454.33 874.298 1455.09 Q871.867 1455.86 869.09 1457.41 L869.09 1452.69 Q871.914 1451.55 874.367 1450.97 Q876.821 1450.39 878.858 1450.39 Q884.228 1450.39 887.423 1453.08 Q890.617 1455.77 890.617 1460.26 Q890.617 1462.39 889.807 1464.31 Q889.02 1466.2 886.914 1468.8 Q886.335 1469.47 883.233 1472.69 Q880.131 1475.88 874.483 1481.64 Z" fill="#000000" fill-rule="nonzero" fill-opacity="1" /><path clip-path="url(#clip200)" d="M1269.51 1454.1 Q1265.9 1454.1 1264.08 1457.66 Q1262.27 1461.2 1262.27 1468.33 Q1262.27 1475.44 1264.08 1479.01 Q1265.9 1482.55 1269.51 1482.55 Q1273.15 1482.55 1274.95 1479.01 Q1276.78 1475.44 1276.78 1468.33 Q1276.78 1461.2 1274.95 1457.66 Q1273.15 1454.1 1269.51 1454.1 M1269.51 1450.39 Q1275.33 1450.39 1278.38 1455 Q1281.46 1459.58 1281.46 1468.33 Q1281.46 1477.06 1278.38 1481.67 Q1275.33 1486.25 1269.51 1486.25 Q1263.7 1486.25 1260.63 1481.67 Q1257.57 1477.06 1257.57 1468.33 Q1257.57 1459.58 1260.63 1455 Q1263.7 1450.39 1269.51 1450.39 Z" fill="#000000" fill-rule="nonzero" fill-opacity="1" /><path clip-path="url(#clip200)" d="M1672.94 1481.64 L1689.26 1481.64 L1689.26 1485.58 L1667.31 1485.58 L1667.31 1481.64 Q1669.97 1478.89 1674.56 1474.26 Q1679.16 1469.61 1680.35 1468.27 Q1682.59 1465.74 1683.47 1464.01 Q1684.37 1462.25 1684.37 1460.56 Q1684.37 1457.8 1682.43 1456.07 Q1680.51 1454.33 1677.41 1454.33 Q1675.21 1454.33 1672.75 1455.09 Q1670.32 1455.86 1667.54 1457.41 L1667.54 1452.69 Q1670.37 1451.55 1672.82 1450.97 Q1675.28 1450.39 1677.31 1450.39 Q1682.68 1450.39 1685.88 1453.08 Q1689.07 1455.77 1689.07 1460.26 Q1689.07 1462.39 1688.26 1464.31 Q1687.47 1466.2 1685.37 1468.8 Q1684.79 1469.47 1681.69 1472.69 Q1678.59 1475.88 1672.94 1481.64 Z" fill="#000000" fill-rule="nonzero" fill-opacity="1" /><path clip-path="url(#clip200)" d="M2090.06 1455.09 L2078.26 1473.54 L2090.06 1473.54 L2090.06 1455.09 M2088.84 1451.02 L2094.72 1451.02 L2094.72 1473.54 L2099.65 1473.54 L2099.65 1477.43 L2094.72 1477.43 L2094.72 1485.58 L2090.06 1485.58 L2090.06 1477.43 L2074.46 1477.43 L2074.46 1472.92 L2088.84 1451.02 Z" fill="#000000" fill-rule="nonzero" fill-opacity="1" /><path clip-path="url(#clip200)" d="M1138 1518.52 L1143.86 1518.52 L1143.86 1568.04 L1138 1568.04 L1138 1518.52 Z" fill="#000000" fill-rule="nonzero" fill-opacity="1" /><path clip-path="url(#clip200)" d="M1169.92 1536.5 Q1165.21 1536.5 1162.48 1540.19 Q1159.74 1543.85 1159.74 1550.25 Q1159.74 1556.65 1162.44 1560.34 Q1165.18 1564 1169.92 1564 Q1174.6 1564 1177.34 1560.31 Q1180.08 1556.62 1180.08 1550.25 Q1180.08 1543.92 1177.34 1540.23 Q1174.6 1536.5 1169.92 1536.5 M1169.92 1531.54 Q1177.56 1531.54 1181.92 1536.5 Q1186.28 1541.47 1186.28 1550.25 Q1186.28 1559 1181.92 1564 Q1177.56 1568.97 1169.92 1568.97 Q1162.25 1568.97 1157.89 1564 Q1153.56 1559 1153.56 1550.25 Q1153.56 1541.47 1157.89 1536.5 Q1162.25 1531.54 1169.92 1531.54 Z" fill="#000000" fill-rule="nonzero" fill-opacity="1" /><path clip-path="url(#clip200)" d="M1219.45 1549.81 Q1219.45 1543.44 1216.81 1539.94 Q1214.2 1536.44 1209.45 1536.44 Q1204.74 1536.44 1202.1 1539.94 Q1199.49 1543.44 1199.49 1549.81 Q1199.49 1556.14 1202.1 1559.64 Q1204.74 1563.14 1209.45 1563.14 Q1214.2 1563.14 1216.81 1559.64 Q1219.45 1556.14 1219.45 1549.81 M1225.31 1563.62 Q1225.31 1572.72 1221.26 1577.15 Q1217.22 1581.6 1208.88 1581.6 Q1205.79 1581.6 1203.06 1581.13 Q1200.32 1580.68 1197.74 1579.72 L1197.74 1574.03 Q1200.32 1575.43 1202.83 1576.1 Q1205.35 1576.76 1207.96 1576.76 Q1213.72 1576.76 1216.58 1573.74 Q1219.45 1570.75 1219.45 1564.67 L1219.45 1561.77 Q1217.63 1564.92 1214.8 1566.48 Q1211.97 1568.04 1208.02 1568.04 Q1201.47 1568.04 1197.46 1563.05 Q1193.44 1558.05 1193.44 1549.81 Q1193.44 1541.53 1197.46 1536.53 Q1201.47 1531.54 1208.02 1531.54 Q1211.97 1531.54 1214.8 1533.1 Q1217.63 1534.66 1219.45 1537.81 L1219.45 1532.4 L1225.31 1532.4 L1225.31 1563.62 Z" fill="#000000" fill-rule="nonzero" fill-opacity="1" /><path clip-path="url(#clip200)" d="M1239.31 1562.63 L1249.81 1562.63 L1249.81 1526.38 L1238.39 1528.67 L1238.39 1522.82 L1249.75 1520.52 L1256.18 1520.52 L1256.18 1562.63 L1266.68 1562.63 L1266.68 1568.04 L1239.31 1568.04 L1239.31 1562.63 Z" fill="#000000" fill-rule="nonzero" fill-opacity="1" /><path clip-path="url(#clip200)" d="M1293.42 1524.76 Q1288.45 1524.76 1285.94 1529.66 Q1283.46 1534.53 1283.46 1544.33 Q1283.46 1554.1 1285.94 1559 Q1288.45 1563.87 1293.42 1563.87 Q1298.42 1563.87 1300.9 1559 Q1303.41 1554.1 1303.41 1544.33 Q1303.41 1534.53 1300.9 1529.66 Q1298.42 1524.76 1293.42 1524.76 M1293.42 1519.66 Q1301.41 1519.66 1305.61 1526 Q1309.84 1532.3 1309.84 1544.33 Q1309.84 1556.33 1305.61 1562.66 Q1301.41 1568.97 1293.42 1568.97 Q1285.43 1568.97 1281.2 1562.66 Q1276.99 1556.33 1276.99 1544.33 Q1276.99 1532.3 1281.2 1526 Q1285.43 1519.66 1293.42 1519.66 Z" fill="#000000" fill-rule="nonzero" fill-opacity="1" /><path clip-path="url(#clip200)" d="M1334.38 1518.58 Q1330.12 1525.9 1328.05 1533.06 Q1325.98 1540.23 1325.98 1547.58 Q1325.98 1554.93 1328.05 1562.16 Q1330.15 1569.35 1334.38 1576.64 L1329.29 1576.64 Q1324.51 1569.16 1322.13 1561.93 Q1319.77 1554.71 1319.77 1547.58 Q1319.77 1540.48 1322.13 1533.29 Q1324.48 1526.09 1329.29 1518.58 L1334.38 1518.58 Z" fill="#000000" fill-rule="nonzero" fill-opacity="1" /><path clip-path="url(#clip200)" d="M1351.6 1565.85 L1351.6 1581.6 L1345.71 1581.6 L1345.71 1532.62 Q1345.71 1518.1 1359.27 1518.1 Q1373.09 1518.1 1373.09 1530.36 Q1373.09 1539.08 1367.61 1542.26 Q1376.52 1545.13 1376.52 1553.63 Q1376.52 1568.71 1361.18 1568.71 Q1354.43 1568.71 1351.6 1565.85 M1351.6 1558.21 Q1355.13 1563.72 1361.4 1563.72 Q1370.57 1563.72 1370.57 1553.72 Q1370.57 1544.75 1355.8 1545.45 L1355.8 1540.03 Q1367.36 1540.03 1367.36 1529.85 Q1367.36 1522.88 1359.91 1522.88 Q1351.6 1522.88 1351.6 1532.81 L1351.6 1558.21 Z" fill="#000000" fill-rule="nonzero" fill-opacity="1" /><path clip-path="url(#clip200)" d="M1386.42 1518.58 L1391.51 1518.58 Q1396.29 1526.09 1398.64 1533.29 Q1401.03 1540.48 1401.03 1547.58 Q1401.03 1554.71 1398.64 1561.93 Q1396.29 1569.16 1391.51 1576.64 L1386.42 1576.64 Q1390.65 1569.35 1392.72 1562.16 Q1394.82 1554.93 1394.82 1547.58 Q1394.82 1540.23 1392.72 1533.06 Q1390.65 1525.9 1386.42 1518.58 Z" fill="#000000" fill-rule="nonzero" fill-opacity="1" /><polyline clip-path="url(#clip200)" style="stroke:#000000; stroke-linecap:round; stroke-linejoin:round; stroke-width:4; stroke-opacity:1; fill:none" points="186.274,1423.18 186.274,123.472 "/>
<polyline clip-path="url(#clip200)" style="stroke:#000000; stroke-linecap:round; stroke-linejoin:round; stroke-width:4; stroke-opacity:1; fill:none" points="186.274,1386.41 205.172,1386.41 "/>
<polyline clip-path="url(#clip200)" style="stroke:#000000; stroke-linecap:round; stroke-linejoin:round; stroke-width:4; stroke-opacity:1; fill:none" points="186.274,1079.87 205.172,1079.87 "/>
<polyline clip-path="url(#clip200)" style="stroke:#000000; stroke-linecap:round; stroke-linejoin:round; stroke-width:4; stroke-opacity:1; fill:none" points="186.274,773.32 205.172,773.32 "/>
<polyline clip-path="url(#clip200)" style="stroke:#000000; stroke-linecap:round; stroke-linejoin:round; stroke-width:4; stroke-opacity:1; fill:none" points="186.274,466.774 205.172,466.774 "/>
<polyline clip-path="url(#clip200)" style="stroke:#000000; stroke-linecap:round; stroke-linejoin:round; stroke-width:4; stroke-opacity:1; fill:none" points="186.274,160.228 205.172,160.228 "/>
<path clip-path="url(#clip200)" d="M62.9365 1372.21 Q59.3254 1372.21 57.4967 1375.78 Q55.6912 1379.32 55.6912 1386.45 Q55.6912 1393.55 57.4967 1397.12 Q59.3254 1400.66 62.9365 1400.66 Q66.5707 1400.66 68.3763 1397.12 Q70.205 1393.55 70.205 1386.45 Q70.205 1379.32 68.3763 1375.78 Q66.5707 1372.21 62.9365 1372.21 M62.9365 1368.51 Q68.7467 1368.51 71.8022 1373.11 Q74.8809 1377.7 74.8809 1386.45 Q74.8809 1395.17 71.8022 1399.78 Q68.7467 1404.36 62.9365 1404.36 Q57.1264 1404.36 54.0477 1399.78 Q50.9921 1395.17 50.9921 1386.45 Q50.9921 1377.7 54.0477 1373.11 Q57.1264 1368.51 62.9365 1368.51 Z" fill="#000000" fill-rule="nonzero" fill-opacity="1" /><path clip-path="url(#clip200)" d="M83.0984 1397.81 L87.9827 1397.81 L87.9827 1403.69 L83.0984 1403.69 L83.0984 1397.81 Z" fill="#000000" fill-rule="nonzero" fill-opacity="1" /><path clip-path="url(#clip200)" d="M108.168 1372.21 Q104.557 1372.21 102.728 1375.78 Q100.922 1379.32 100.922 1386.45 Q100.922 1393.55 102.728 1397.12 Q104.557 1400.66 108.168 1400.66 Q111.802 1400.66 113.608 1397.12 Q115.436 1393.55 115.436 1386.45 Q115.436 1379.32 113.608 1375.78 Q111.802 1372.21 108.168 1372.21 M108.168 1368.51 Q113.978 1368.51 117.033 1373.11 Q120.112 1377.7 120.112 1386.45 Q120.112 1395.17 117.033 1399.78 Q113.978 1404.36 108.168 1404.36 Q102.358 1404.36 99.2789 1399.78 Q96.2234 1395.17 96.2234 1386.45 Q96.2234 1377.7 99.2789 1373.11 Q102.358 1368.51 108.168 1368.51 Z" fill="#000000" fill-rule="nonzero" fill-opacity="1" /><path clip-path="url(#clip200)" d="M138.33 1372.21 Q134.719 1372.21 132.89 1375.78 Q131.084 1379.32 131.084 1386.45 Q131.084 1393.55 132.89 1397.12 Q134.719 1400.66 138.33 1400.66 Q141.964 1400.66 143.769 1397.12 Q145.598 1393.55 145.598 1386.45 Q145.598 1379.32 143.769 1375.78 Q141.964 1372.21 138.33 1372.21 M138.33 1368.51 Q144.14 1368.51 147.195 1373.11 Q150.274 1377.7 150.274 1386.45 Q150.274 1395.17 147.195 1399.78 Q144.14 1404.36 138.33 1404.36 Q132.519 1404.36 129.441 1399.78 Q126.385 1395.17 126.385 1386.45 Q126.385 1377.7 129.441 1373.11 Q132.519 1368.51 138.33 1368.51 Z" fill="#000000" fill-rule="nonzero" fill-opacity="1" /><path clip-path="url(#clip200)" d="M63.9319 1065.67 Q60.3208 1065.67 58.4921 1069.23 Q56.6865 1072.77 56.6865 1079.9 Q56.6865 1087.01 58.4921 1090.57 Q60.3208 1094.11 63.9319 1094.11 Q67.5661 1094.11 69.3717 1090.57 Q71.2004 1087.01 71.2004 1079.9 Q71.2004 1072.77 69.3717 1069.23 Q67.5661 1065.67 63.9319 1065.67 M63.9319 1061.96 Q69.742 1061.96 72.7976 1066.57 Q75.8763 1071.15 75.8763 1079.9 Q75.8763 1088.63 72.7976 1093.23 Q69.742 1097.82 63.9319 1097.82 Q58.1217 1097.82 55.043 1093.23 Q51.9875 1088.63 51.9875 1079.9 Q51.9875 1071.15 55.043 1066.57 Q58.1217 1061.96 63.9319 1061.96 Z" fill="#000000" fill-rule="nonzero" fill-opacity="1" /><path clip-path="url(#clip200)" d="M84.0938 1091.27 L88.978 1091.27 L88.978 1097.15 L84.0938 1097.15 L84.0938 1091.27 Z" fill="#000000" fill-rule="nonzero" fill-opacity="1" /><path clip-path="url(#clip200)" d="M103.191 1093.21 L119.51 1093.21 L119.51 1097.15 L97.566 1097.15 L97.566 1093.21 Q100.228 1090.46 104.811 1085.83 Q109.418 1081.17 110.598 1079.83 Q112.844 1077.31 113.723 1075.57 Q114.626 1073.81 114.626 1072.12 Q114.626 1069.37 112.682 1067.63 Q110.76 1065.9 107.658 1065.9 Q105.459 1065.9 103.006 1066.66 Q100.575 1067.42 97.7974 1068.98 L97.7974 1064.25 Q100.621 1063.12 103.075 1062.54 Q105.529 1061.96 107.566 1061.96 Q112.936 1061.96 116.131 1064.65 Q119.325 1067.33 119.325 1071.82 Q119.325 1073.95 118.515 1075.87 Q117.728 1077.77 115.621 1080.36 Q115.043 1081.04 111.941 1084.25 Q108.839 1087.45 103.191 1093.21 Z" fill="#000000" fill-rule="nonzero" fill-opacity="1" /><path clip-path="url(#clip200)" d="M129.371 1062.59 L147.728 1062.59 L147.728 1066.52 L133.654 1066.52 L133.654 1074.99 Q134.672 1074.65 135.691 1074.48 Q136.709 1074.3 137.728 1074.3 Q143.515 1074.3 146.894 1077.47 Q150.274 1080.64 150.274 1086.06 Q150.274 1091.64 146.802 1094.74 Q143.33 1097.82 137.01 1097.82 Q134.834 1097.82 132.566 1097.45 Q130.32 1097.08 127.913 1096.34 L127.913 1091.64 Q129.996 1092.77 132.219 1093.33 Q134.441 1093.88 136.918 1093.88 Q140.922 1093.88 143.26 1091.78 Q145.598 1089.67 145.598 1086.06 Q145.598 1082.45 143.26 1080.34 Q140.922 1078.23 136.918 1078.23 Q135.043 1078.23 133.168 1078.65 Q131.316 1079.07 129.371 1079.95 L129.371 1062.59 Z" fill="#000000" fill-rule="nonzero" fill-opacity="1" /><path clip-path="url(#clip200)" d="M62.9365 759.119 Q59.3254 759.119 57.4967 762.684 Q55.6912 766.226 55.6912 773.355 Q55.6912 780.462 57.4967 784.026 Q59.3254 787.568 62.9365 787.568 Q66.5707 787.568 68.3763 784.026 Q70.205 780.462 70.205 773.355 Q70.205 766.226 68.3763 762.684 Q66.5707 759.119 62.9365 759.119 M62.9365 755.415 Q68.7467 755.415 71.8022 760.022 Q74.8809 764.605 74.8809 773.355 Q74.8809 782.082 71.8022 786.688 Q68.7467 791.272 62.9365 791.272 Q57.1264 791.272 54.0477 786.688 Q50.9921 782.082 50.9921 773.355 Q50.9921 764.605 54.0477 760.022 Q57.1264 755.415 62.9365 755.415 Z" fill="#000000" fill-rule="nonzero" fill-opacity="1" /><path clip-path="url(#clip200)" d="M83.0984 784.721 L87.9827 784.721 L87.9827 790.6 L83.0984 790.6 L83.0984 784.721 Z" fill="#000000" fill-rule="nonzero" fill-opacity="1" /><path clip-path="url(#clip200)" d="M98.2141 756.04 L116.57 756.04 L116.57 759.976 L102.496 759.976 L102.496 768.448 Q103.515 768.101 104.534 767.938 Q105.552 767.753 106.571 767.753 Q112.358 767.753 115.737 770.925 Q119.117 774.096 119.117 779.512 Q119.117 785.091 115.645 788.193 Q112.172 791.272 105.853 791.272 Q103.677 791.272 101.409 790.901 Q99.1632 790.531 96.7558 789.79 L96.7558 785.091 Q98.8391 786.225 101.061 786.781 Q103.284 787.337 105.76 787.337 Q109.765 787.337 112.103 785.23 Q114.441 783.124 114.441 779.512 Q114.441 775.901 112.103 773.795 Q109.765 771.688 105.76 771.688 Q103.885 771.688 102.01 772.105 Q100.159 772.522 98.2141 773.401 L98.2141 756.04 Z" fill="#000000" fill-rule="nonzero" fill-opacity="1" /><path clip-path="url(#clip200)" d="M138.33 759.119 Q134.719 759.119 132.89 762.684 Q131.084 766.226 131.084 773.355 Q131.084 780.462 132.89 784.026 Q134.719 787.568 138.33 787.568 Q141.964 787.568 143.769 784.026 Q145.598 780.462 145.598 773.355 Q145.598 766.226 143.769 762.684 Q141.964 759.119 138.33 759.119 M138.33 755.415 Q144.14 755.415 147.195 760.022 Q150.274 764.605 150.274 773.355 Q150.274 782.082 147.195 786.688 Q144.14 791.272 138.33 791.272 Q132.519 791.272 129.441 786.688 Q126.385 782.082 126.385 773.355 Q126.385 764.605 129.441 760.022 Q132.519 755.415 138.33 755.415 Z" fill="#000000" fill-rule="nonzero" fill-opacity="1" /><path clip-path="url(#clip200)" d="M63.9319 452.573 Q60.3208 452.573 58.4921 456.138 Q56.6865 459.679 56.6865 466.809 Q56.6865 473.915 58.4921 477.48 Q60.3208 481.022 63.9319 481.022 Q67.5661 481.022 69.3717 477.48 Q71.2004 473.915 71.2004 466.809 Q71.2004 459.679 69.3717 456.138 Q67.5661 452.573 63.9319 452.573 M63.9319 448.869 Q69.742 448.869 72.7976 453.476 Q75.8763 458.059 75.8763 466.809 Q75.8763 475.536 72.7976 480.142 Q69.742 484.725 63.9319 484.725 Q58.1217 484.725 55.043 480.142 Q51.9875 475.536 51.9875 466.809 Q51.9875 458.059 55.043 453.476 Q58.1217 448.869 63.9319 448.869 Z" fill="#000000" fill-rule="nonzero" fill-opacity="1" /><path clip-path="url(#clip200)" d="M84.0938 478.175 L88.978 478.175 L88.978 484.054 L84.0938 484.054 L84.0938 478.175 Z" fill="#000000" fill-rule="nonzero" fill-opacity="1" /><path clip-path="url(#clip200)" d="M97.9826 449.494 L120.205 449.494 L120.205 451.485 L107.658 484.054 L102.774 484.054 L114.58 453.429 L97.9826 453.429 L97.9826 449.494 Z" fill="#000000" fill-rule="nonzero" fill-opacity="1" /><path clip-path="url(#clip200)" d="M129.371 449.494 L147.728 449.494 L147.728 453.429 L133.654 453.429 L133.654 461.902 Q134.672 461.554 135.691 461.392 Q136.709 461.207 137.728 461.207 Q143.515 461.207 146.894 464.378 Q150.274 467.55 150.274 472.966 Q150.274 478.545 146.802 481.647 Q143.33 484.725 137.01 484.725 Q134.834 484.725 132.566 484.355 Q130.32 483.985 127.913 483.244 L127.913 478.545 Q129.996 479.679 132.219 480.235 Q134.441 480.79 136.918 480.79 Q140.922 480.79 143.26 478.684 Q145.598 476.577 145.598 472.966 Q145.598 469.355 143.26 467.249 Q140.922 465.142 136.918 465.142 Q135.043 465.142 133.168 465.559 Q131.316 465.976 129.371 466.855 L129.371 449.494 Z" fill="#000000" fill-rule="nonzero" fill-opacity="1" /><path clip-path="url(#clip200)" d="M53.7467 173.573 L61.3856 173.573 L61.3856 147.207 L53.0754 148.874 L53.0754 144.615 L61.3393 142.948 L66.0152 142.948 L66.0152 173.573 L73.654 173.573 L73.654 177.508 L53.7467 177.508 L53.7467 173.573 Z" fill="#000000" fill-rule="nonzero" fill-opacity="1" /><path clip-path="url(#clip200)" d="M83.0984 171.628 L87.9827 171.628 L87.9827 177.508 L83.0984 177.508 L83.0984 171.628 Z" fill="#000000" fill-rule="nonzero" fill-opacity="1" /><path clip-path="url(#clip200)" d="M108.168 146.027 Q104.557 146.027 102.728 149.591 Q100.922 153.133 100.922 160.263 Q100.922 167.369 102.728 170.934 Q104.557 174.476 108.168 174.476 Q111.802 174.476 113.608 170.934 Q115.436 167.369 115.436 160.263 Q115.436 153.133 113.608 149.591 Q111.802 146.027 108.168 146.027 M108.168 142.323 Q113.978 142.323 117.033 146.929 Q120.112 151.513 120.112 160.263 Q120.112 168.99 117.033 173.596 Q113.978 178.179 108.168 178.179 Q102.358 178.179 99.2789 173.596 Q96.2234 168.99 96.2234 160.263 Q96.2234 151.513 99.2789 146.929 Q102.358 142.323 108.168 142.323 Z" fill="#000000" fill-rule="nonzero" fill-opacity="1" /><path clip-path="url(#clip200)" d="M138.33 146.027 Q134.719 146.027 132.89 149.591 Q131.084 153.133 131.084 160.263 Q131.084 167.369 132.89 170.934 Q134.719 174.476 138.33 174.476 Q141.964 174.476 143.769 170.934 Q145.598 167.369 145.598 160.263 Q145.598 153.133 143.769 149.591 Q141.964 146.027 138.33 146.027 M138.33 142.323 Q144.14 142.323 147.195 146.929 Q150.274 151.513 150.274 160.263 Q150.274 168.99 147.195 173.596 Q144.14 178.179 138.33 178.179 Q132.519 178.179 129.441 173.596 Q126.385 168.99 126.385 160.263 Q126.385 151.513 129.441 146.929 Q132.519 142.323 138.33 142.323 Z" fill="#000000" fill-rule="nonzero" fill-opacity="1" /><path clip-path="url(#clip200)" d="M1128.06 12.096 L1139.08 12.096 L1165.89 62.6918 L1165.89 12.096 L1173.83 12.096 L1173.83 72.576 L1162.81 72.576 L1136 21.9802 L1136 72.576 L1128.06 72.576 L1128.06 12.096 Z" fill="#000000" fill-rule="nonzero" fill-opacity="1" /><path clip-path="url(#clip200)" d="M1218.8 44.2197 Q1221.43 45.1109 1223.9 48.0275 Q1226.41 50.9442 1228.92 56.0483 L1237.23 72.576 L1228.44 72.576 L1220.7 57.061 Q1217.7 50.9847 1214.87 48.9997 Q1212.07 47.0148 1207.21 47.0148 L1198.3 47.0148 L1198.3 72.576 L1190.12 72.576 L1190.12 12.096 L1208.59 12.096 Q1218.96 12.096 1224.06 16.4305 Q1229.17 20.7649 1229.17 29.5149 Q1229.17 35.2267 1226.49 38.994 Q1223.86 42.7613 1218.8 44.2197 M1198.3 18.8205 L1198.3 40.2903 L1208.59 40.2903 Q1214.5 40.2903 1217.5 37.5762 Q1220.54 34.8216 1220.54 29.5149 Q1220.54 24.2082 1217.5 21.5346 Q1214.5 18.8205 1208.59 18.8205 L1198.3 18.8205 Z" fill="#000000" fill-rule="nonzero" fill-opacity="1" /><path clip-path="url(#clip200)" d="M1247.76 12.096 L1259.95 12.096 L1275.39 53.2532 L1290.9 12.096 L1303.1 12.096 L1303.1 72.576 L1295.12 72.576 L1295.12 19.4686 L1279.52 60.9499 L1271.3 60.9499 L1255.7 19.4686 L1255.7 72.576 L1247.76 72.576 L1247.76 12.096 Z" fill="#000000" fill-rule="nonzero" fill-opacity="1" /><path clip-path="url(#clip200)" d="M1355.6 14.0809 L1355.6 22.0612 Q1350.94 19.8332 1346.81 18.7395 Q1342.67 17.6457 1338.83 17.6457 Q1332.14 17.6457 1328.5 20.2383 Q1324.89 22.8309 1324.89 27.611 Q1324.89 31.6214 1327.28 33.6873 Q1329.71 35.7128 1336.44 36.9686 L1341.38 37.9813 Q1350.53 39.7232 1354.87 44.1387 Q1359.24 48.5136 1359.24 55.8863 Q1359.24 64.6767 1353.33 69.2137 Q1347.45 73.7508 1336.07 73.7508 Q1331.78 73.7508 1326.92 72.7785 Q1322.1 71.8063 1316.91 69.9024 L1316.91 61.4765 Q1321.89 64.2716 1326.67 65.6895 Q1331.45 67.1073 1336.07 67.1073 Q1343.08 67.1073 1346.89 64.3527 Q1350.7 61.598 1350.7 56.4939 Q1350.7 52.0379 1347.94 49.5264 Q1345.23 47.0148 1338.99 45.759 L1334.01 44.7868 Q1324.85 42.9639 1320.76 39.075 Q1316.67 35.1862 1316.67 28.2591 Q1316.67 20.2383 1322.3 15.6203 Q1327.97 11.0023 1337.89 11.0023 Q1342.15 11.0023 1346.56 11.7719 Q1350.98 12.5416 1355.6 14.0809 Z" fill="#000000" fill-rule="nonzero" fill-opacity="1" /><path clip-path="url(#clip200)" d="M1372 12.096 L1410.24 12.096 L1410.24 18.9825 L1380.19 18.9825 L1380.19 36.8875 L1408.99 36.8875 L1408.99 43.7741 L1380.19 43.7741 L1380.19 65.6895 L1410.97 65.6895 L1410.97 72.576 L1372 72.576 L1372 12.096 Z" fill="#000000" fill-rule="nonzero" fill-opacity="1" /><polyline clip-path="url(#clip201)" style="stroke:#009af9; stroke-linecap:round; stroke-linejoin:round; stroke-width:4; stroke-opacity:1; fill:none" points="247.59,1386.4 288.467,1386.39 329.344,1386.37 370.221,1386.34 411.098,1386.3 451.975,1386.24 492.852,1386.14 533.729,1385.98 574.606,1385.74 615.483,1385.34 656.36,1384.73 697.237,1383.76 738.114,1382.26 778.991,1379.96 819.868,1376.47 860.745,1371.29 901.622,1363.83 942.499,1353.36 983.376,1339.07 1024.25,1319.93 1065.13,1294.41 1106.01,1260.21 1146.88,1214.16 1187.76,1152.41 1228.64,1071.39 1269.51,969.638 1310.39,849.933 1351.27,720.413 1392.15,592.863 1433.02,478.656 1473.9,384.97 1514.78,313.595 1555.65,262.277 1596.53,226.923 1637.41,203.286 1678.29,187.8 1719.16,177.79 1760.04,171.376 1800.92,167.289 1841.79,164.694 1882.67,163.05 1923.55,162.01 1964.42,161.353 2005.3,160.938 2046.18,160.676 2087.06,160.511 2127.93,160.407 2168.81,160.341 2209.69,160.299 2250.56,160.273 2291.44,160.256 "/>
</svg>
