<?xml version="1.0" encoding="utf-8"?>
<svg xmlns="http://www.w3.org/2000/svg" xmlns:xlink="http://www.w3.org/1999/xlink" width="600" height="400" viewBox="0 0 2400 1600">
<defs>
  <clipPath id="clip050">
    <rect x="0" y="0" width="2400" height="1600"/>
  </clipPath>
</defs>
<path clip-path="url(#clip050)" d="M0 1600 L2400 1600 L2400 0 L0 0  Z" fill="#ffffff" fill-rule="evenodd" fill-opacity="1"/>
<defs>
  <clipPath id="clip051">
    <rect x="192" y="47" width="2161" height="1440"/>
  </clipPath>
</defs>
<path clip-path="url(#clip050)" d="M192.339 1486.45 L2352.76 1486.45 L2352.76 47.2441 L192.339 47.2441  Z" fill="#ffffff" fill-rule="evenodd" fill-opacity="1"/>
<polyline clip-path="url(#clip051)" style="stroke:#000000; stroke-linecap:round; stroke-linejoin:round; stroke-width:2; stroke-opacity:0.1; fill:none" points="423.327,1486.45 423.327,47.2441 "/>
<polyline clip-path="url(#clip051)" style="stroke:#000000; stroke-linecap:round; stroke-linejoin:round; stroke-width:2; stroke-opacity:0.1; fill:none" points="989.474,1486.45 989.474,47.2441 "/>
<polyline clip-path="url(#clip051)" style="stroke:#000000; stroke-linecap:round; stroke-linejoin:round; stroke-width:2; stroke-opacity:0.1; fill:none" points="1555.62,1486.45 1555.62,47.2441 "/>
<polyline clip-path="url(#clip051)" style="stroke:#000000; stroke-linecap:round; stroke-linejoin:round; stroke-width:2; stroke-opacity:0.1; fill:none" points="2121.77,1486.45 2121.77,47.2441 "/>
<polyline clip-path="url(#clip051)" style="stroke:#000000; stroke-linecap:round; stroke-linejoin:round; stroke-width:2; stroke-opacity:0.1; fill:none" points="192.339,1486.45 2352.76,1486.45 "/>
<polyline clip-path="url(#clip051)" style="stroke:#000000; stroke-linecap:round; stroke-linejoin:round; stroke-width:2; stroke-opacity:0.1; fill:none" points="192.339,1306.55 2352.76,1306.55 "/>
<polyline clip-path="url(#clip051)" style="stroke:#000000; stroke-linecap:round; stroke-linejoin:round; stroke-width:2; stroke-opacity:0.1; fill:none" points="192.339,1126.65 2352.76,1126.65 "/>
<polyline clip-path="url(#clip051)" style="stroke:#000000; stroke-linecap:round; stroke-linejoin:round; stroke-width:2; stroke-opacity:0.1; fill:none" points="192.339,946.746 2352.76,946.746 "/>
<polyline clip-path="url(#clip051)" style="stroke:#000000; stroke-linecap:round; stroke-linejoin:round; stroke-width:2; stroke-opacity:0.1; fill:none" points="192.339,766.846 2352.76,766.846 "/>
<polyline clip-path="url(#clip051)" style="stroke:#000000; stroke-linecap:round; stroke-linejoin:round; stroke-width:2; stroke-opacity:0.1; fill:none" points="192.339,586.946 2352.76,586.946 "/>
<polyline clip-path="url(#clip051)" style="stroke:#000000; stroke-linecap:round; stroke-linejoin:round; stroke-width:2; stroke-opacity:0.1; fill:none" points="192.339,407.045 2352.76,407.045 "/>
<polyline clip-path="url(#clip051)" style="stroke:#000000; stroke-linecap:round; stroke-linejoin:round; stroke-width:2; stroke-opacity:0.1; fill:none" points="192.339,227.145 2352.76,227.145 "/>
<polyline clip-path="url(#clip051)" style="stroke:#000000; stroke-linecap:round; stroke-linejoin:round; stroke-width:2; stroke-opacity:0.1; fill:none" points="192.339,47.2441 2352.76,47.2441 "/>
<polyline clip-path="url(#clip050)" style="stroke:#000000; stroke-linecap:round; stroke-linejoin:round; stroke-width:4; stroke-opacity:1; fill:none" points="192.339,1486.45 2352.76,1486.45 "/>
<polyline clip-path="url(#clip050)" style="stroke:#000000; stroke-linecap:round; stroke-linejoin:round; stroke-width:4; stroke-opacity:1; fill:none" points="423.327,1486.45 423.327,1467.55 "/>
<polyline clip-path="url(#clip050)" style="stroke:#000000; stroke-linecap:round; stroke-linejoin:round; stroke-width:4; stroke-opacity:1; fill:none" points="989.474,1486.45 989.474,1467.55 "/>
<polyline clip-path="url(#clip050)" style="stroke:#000000; stroke-linecap:round; stroke-linejoin:round; stroke-width:4; stroke-opacity:1; fill:none" points="1555.62,1486.45 1555.62,1467.55 "/>
<polyline clip-path="url(#clip050)" style="stroke:#000000; stroke-linecap:round; stroke-linejoin:round; stroke-width:4; stroke-opacity:1; fill:none" points="2121.77,1486.45 2121.77,1467.55 "/>
<path clip-path="url(#clip050)" d="M423.327 1517.37 Q419.716 1517.37 417.887 1520.93 Q416.081 1524.47 416.081 1531.6 Q416.081 1538.71 417.887 1542.27 Q419.716 1545.82 423.327 1545.82 Q426.961 1545.82 428.767 1542.27 Q430.595 1538.71 430.595 1531.6 Q430.595 1524.47 428.767 1520.93 Q426.961 1517.37 423.327 1517.37 M423.327 1513.66 Q429.137 1513.66 432.192 1518.27 Q435.271 1522.85 435.271 1531.6 Q435.271 1540.33 432.192 1544.94 Q429.137 1549.52 423.327 1549.52 Q417.517 1549.52 414.438 1544.94 Q411.382 1540.33 411.382 1531.6 Q411.382 1522.85 414.438 1518.27 Q417.517 1513.66 423.327 1513.66 Z" fill="#000000" fill-rule="nonzero" fill-opacity="1" /><path clip-path="url(#clip050)" d="M979.856 1544.91 L987.495 1544.91 L987.495 1518.55 L979.185 1520.21 L979.185 1515.95 L987.448 1514.29 L992.124 1514.29 L992.124 1544.91 L999.763 1544.91 L999.763 1548.85 L979.856 1548.85 L979.856 1544.91 Z" fill="#000000" fill-rule="nonzero" fill-opacity="1" /><path clip-path="url(#clip050)" d="M1550.27 1544.91 L1566.59 1544.91 L1566.59 1548.85 L1544.65 1548.85 L1544.65 1544.91 Q1547.31 1542.16 1551.89 1537.53 Q1556.5 1532.88 1557.68 1531.53 Q1559.93 1529.01 1560.81 1527.27 Q1561.71 1525.51 1561.71 1523.82 Q1561.71 1521.07 1559.76 1519.33 Q1557.84 1517.6 1554.74 1517.6 Q1552.54 1517.6 1550.09 1518.36 Q1547.66 1519.13 1544.88 1520.68 L1544.88 1515.95 Q1547.7 1514.82 1550.16 1514.24 Q1552.61 1513.66 1554.65 1513.66 Q1560.02 1513.66 1563.21 1516.35 Q1566.41 1519.03 1566.41 1523.52 Q1566.41 1525.65 1565.6 1527.57 Q1564.81 1529.47 1562.7 1532.07 Q1562.13 1532.74 1559.02 1535.95 Q1555.92 1539.15 1550.27 1544.91 Z" fill="#000000" fill-rule="nonzero" fill-opacity="1" /><path clip-path="url(#clip050)" d="M2126.02 1530.21 Q2129.37 1530.93 2131.25 1533.2 Q2133.15 1535.47 2133.15 1538.8 Q2133.15 1543.92 2129.63 1546.72 Q2126.11 1549.52 2119.63 1549.52 Q2117.45 1549.52 2115.14 1549.08 Q2112.84 1548.66 2110.39 1547.81 L2110.39 1543.29 Q2112.34 1544.43 2114.65 1545.01 Q2116.96 1545.58 2119.49 1545.58 Q2123.89 1545.58 2126.18 1543.85 Q2128.49 1542.11 2128.49 1538.8 Q2128.49 1535.75 2126.34 1534.03 Q2124.21 1532.3 2120.39 1532.3 L2116.36 1532.3 L2116.36 1528.45 L2120.58 1528.45 Q2124.02 1528.45 2125.85 1527.09 Q2127.68 1525.7 2127.68 1523.11 Q2127.68 1520.45 2125.78 1519.03 Q2123.91 1517.6 2120.39 1517.6 Q2118.47 1517.6 2116.27 1518.01 Q2114.07 1518.43 2111.43 1519.31 L2111.43 1515.14 Q2114.09 1514.4 2116.41 1514.03 Q2118.75 1513.66 2120.81 1513.66 Q2126.13 1513.66 2129.23 1516.09 Q2132.33 1518.5 2132.33 1522.62 Q2132.33 1525.49 2130.69 1527.48 Q2129.05 1529.45 2126.02 1530.21 Z" fill="#000000" fill-rule="nonzero" fill-opacity="1" /><polyline clip-path="url(#clip050)" style="stroke:#000000; stroke-linecap:round; stroke-linejoin:round; stroke-width:4; stroke-opacity:1; fill:none" points="192.339,1486.45 192.339,47.2441 "/>
<polyline clip-path="url(#clip050)" style="stroke:#000000; stroke-linecap:round; stroke-linejoin:round; stroke-width:4; stroke-opacity:1; fill:none" points="192.339,1486.45 211.236,1486.45 "/>
<polyline clip-path="url(#clip050)" style="stroke:#000000; stroke-linecap:round; stroke-linejoin:round; stroke-width:4; stroke-opacity:1; fill:none" points="192.339,1306.55 211.236,1306.55 "/>
<polyline clip-path="url(#clip050)" style="stroke:#000000; stroke-linecap:round; stroke-linejoin:round; stroke-width:4; stroke-opacity:1; fill:none" points="192.339,1126.65 211.236,1126.65 "/>
<polyline clip-path="url(#clip050)" style="stroke:#000000; stroke-linecap:round; stroke-linejoin:round; stroke-width:4; stroke-opacity:1; fill:none" points="192.339,946.746 211.236,946.746 "/>
<polyline clip-path="url(#clip050)" style="stroke:#000000; stroke-linecap:round; stroke-linejoin:round; stroke-width:4; stroke-opacity:1; fill:none" points="192.339,766.846 211.236,766.846 "/>
<polyline clip-path="url(#clip050)" style="stroke:#000000; stroke-linecap:round; stroke-linejoin:round; stroke-width:4; stroke-opacity:1; fill:none" points="192.339,586.946 211.236,586.946 "/>
<polyline clip-path="url(#clip050)" style="stroke:#000000; stroke-linecap:round; stroke-linejoin:round; stroke-width:4; stroke-opacity:1; fill:none" points="192.339,407.045 211.236,407.045 "/>
<polyline clip-path="url(#clip050)" style="stroke:#000000; stroke-linecap:round; stroke-linejoin:round; stroke-width:4; stroke-opacity:1; fill:none" points="192.339,227.145 211.236,227.145 "/>
<polyline clip-path="url(#clip050)" style="stroke:#000000; stroke-linecap:round; stroke-linejoin:round; stroke-width:4; stroke-opacity:1; fill:none" points="192.339,47.2441 211.236,47.2441 "/>
<path clip-path="url(#clip050)" d="M50.9921 1486.9 L80.6679 1486.9 L80.6679 1490.83 L50.9921 1490.83 L50.9921 1486.9 Z" fill="#000000" fill-rule="nonzero" fill-opacity="1" /><path clip-path="url(#clip050)" d="M100.76 1472.25 Q97.1493 1472.25 95.3206 1475.81 Q93.515 1479.35 93.515 1486.48 Q93.515 1493.59 95.3206 1497.15 Q97.1493 1500.7 100.76 1500.7 Q104.395 1500.7 106.2 1497.15 Q108.029 1493.59 108.029 1486.48 Q108.029 1479.35 106.2 1475.81 Q104.395 1472.25 100.76 1472.25 M100.76 1468.54 Q106.571 1468.54 109.626 1473.15 Q112.705 1477.73 112.705 1486.48 Q112.705 1495.21 109.626 1499.82 Q106.571 1504.4 100.76 1504.4 Q94.9502 1504.4 91.8715 1499.82 Q88.816 1495.21 88.816 1486.48 Q88.816 1477.73 91.8715 1473.15 Q94.9502 1468.54 100.76 1468.54 Z" fill="#000000" fill-rule="nonzero" fill-opacity="1" /><path clip-path="url(#clip050)" d="M120.922 1497.85 L125.807 1497.85 L125.807 1503.73 L120.922 1503.73 L120.922 1497.85 Z" fill="#000000" fill-rule="nonzero" fill-opacity="1" /><path clip-path="url(#clip050)" d="M140.019 1499.79 L156.339 1499.79 L156.339 1503.73 L134.394 1503.73 L134.394 1499.79 Q137.056 1497.04 141.64 1492.41 Q146.246 1487.76 147.427 1486.41 Q149.672 1483.89 150.552 1482.15 Q151.455 1480.39 151.455 1478.7 Q151.455 1475.95 149.51 1474.21 Q147.589 1472.48 144.487 1472.48 Q142.288 1472.48 139.834 1473.24 Q137.404 1474.01 134.626 1475.56 L134.626 1470.83 Q137.45 1469.7 139.904 1469.12 Q142.357 1468.54 144.394 1468.54 Q149.765 1468.54 152.959 1471.23 Q156.154 1473.91 156.154 1478.4 Q156.154 1480.53 155.343 1482.45 Q154.556 1484.35 152.45 1486.95 Q151.871 1487.62 148.769 1490.83 Q145.668 1494.03 140.019 1499.79 Z" fill="#000000" fill-rule="nonzero" fill-opacity="1" /><path clip-path="url(#clip050)" d="M99.1632 1292.35 Q95.5521 1292.35 93.7234 1295.91 Q91.9178 1299.45 91.9178 1306.58 Q91.9178 1313.69 93.7234 1317.25 Q95.5521 1320.8 99.1632 1320.8 Q102.797 1320.8 104.603 1317.25 Q106.432 1313.69 106.432 1306.58 Q106.432 1299.45 104.603 1295.91 Q102.797 1292.35 99.1632 1292.35 M99.1632 1288.64 Q104.973 1288.64 108.029 1293.25 Q111.108 1297.83 111.108 1306.58 Q111.108 1315.31 108.029 1319.92 Q104.973 1324.5 99.1632 1324.5 Q93.353 1324.5 90.2743 1319.92 Q87.2188 1315.31 87.2188 1306.58 Q87.2188 1297.83 90.2743 1293.25 Q93.353 1288.64 99.1632 1288.64 Z" fill="#000000" fill-rule="nonzero" fill-opacity="1" /><path clip-path="url(#clip050)" d="M119.325 1317.95 L124.209 1317.95 L124.209 1323.83 L119.325 1323.83 L119.325 1317.95 Z" fill="#000000" fill-rule="nonzero" fill-opacity="1" /><path clip-path="url(#clip050)" d="M144.394 1292.35 Q140.783 1292.35 138.955 1295.91 Q137.149 1299.45 137.149 1306.58 Q137.149 1313.69 138.955 1317.25 Q140.783 1320.8 144.394 1320.8 Q148.029 1320.8 149.834 1317.25 Q151.663 1313.69 151.663 1306.58 Q151.663 1299.45 149.834 1295.91 Q148.029 1292.35 144.394 1292.35 M144.394 1288.64 Q150.205 1288.64 153.26 1293.25 Q156.339 1297.83 156.339 1306.58 Q156.339 1315.31 153.26 1319.92 Q150.205 1324.5 144.394 1324.5 Q138.584 1324.5 135.506 1319.92 Q132.45 1315.31 132.45 1306.58 Q132.45 1297.83 135.506 1293.25 Q138.584 1288.64 144.394 1288.64 Z" fill="#000000" fill-rule="nonzero" fill-opacity="1" /><path clip-path="url(#clip050)" d="M100.76 1112.45 Q97.1493 1112.45 95.3206 1116.01 Q93.515 1119.55 93.515 1126.68 Q93.515 1133.79 95.3206 1137.35 Q97.1493 1140.89 100.76 1140.89 Q104.395 1140.89 106.2 1137.35 Q108.029 1133.79 108.029 1126.68 Q108.029 1119.55 106.2 1116.01 Q104.395 1112.45 100.76 1112.45 M100.76 1108.74 Q106.571 1108.74 109.626 1113.35 Q112.705 1117.93 112.705 1126.68 Q112.705 1135.41 109.626 1140.01 Q106.571 1144.6 100.76 1144.6 Q94.9502 1144.6 91.8715 1140.01 Q88.816 1135.41 88.816 1126.68 Q88.816 1117.93 91.8715 1113.35 Q94.9502 1108.74 100.76 1108.74 Z" fill="#000000" fill-rule="nonzero" fill-opacity="1" /><path clip-path="url(#clip050)" d="M120.922 1138.05 L125.807 1138.05 L125.807 1143.93 L120.922 1143.93 L120.922 1138.05 Z" fill="#000000" fill-rule="nonzero" fill-opacity="1" /><path clip-path="url(#clip050)" d="M140.019 1139.99 L156.339 1139.99 L156.339 1143.93 L134.394 1143.93 L134.394 1139.99 Q137.056 1137.24 141.64 1132.61 Q146.246 1127.95 147.427 1126.61 Q149.672 1124.09 150.552 1122.35 Q151.455 1120.59 151.455 1118.9 Q151.455 1116.15 149.51 1114.41 Q147.589 1112.68 144.487 1112.68 Q142.288 1112.68 139.834 1113.44 Q137.404 1114.2 134.626 1115.76 L134.626 1111.03 Q137.45 1109.9 139.904 1109.32 Q142.357 1108.74 144.394 1108.74 Q149.765 1108.74 152.959 1111.43 Q156.154 1114.11 156.154 1118.6 Q156.154 1120.73 155.343 1122.65 Q154.556 1124.55 152.45 1127.14 Q151.871 1127.82 148.769 1131.03 Q145.668 1134.23 140.019 1139.99 Z" fill="#000000" fill-rule="nonzero" fill-opacity="1" /><path clip-path="url(#clip050)" d="M98.6771 932.545 Q95.066 932.545 93.2373 936.11 Q91.4317 939.652 91.4317 946.781 Q91.4317 953.888 93.2373 957.452 Q95.066 960.994 98.6771 960.994 Q102.311 960.994 104.117 957.452 Q105.946 953.888 105.946 946.781 Q105.946 939.652 104.117 936.11 Q102.311 932.545 98.6771 932.545 M98.6771 928.841 Q104.487 928.841 107.543 933.448 Q110.621 938.031 110.621 946.781 Q110.621 955.508 107.543 960.114 Q104.487 964.698 98.6771 964.698 Q92.8669 964.698 89.7882 960.114 Q86.7327 955.508 86.7327 946.781 Q86.7327 938.031 89.7882 933.448 Q92.8669 928.841 98.6771 928.841 Z" fill="#000000" fill-rule="nonzero" fill-opacity="1" /><path clip-path="url(#clip050)" d="M118.839 958.147 L123.723 958.147 L123.723 964.026 L118.839 964.026 L118.839 958.147 Z" fill="#000000" fill-rule="nonzero" fill-opacity="1" /><path clip-path="url(#clip050)" d="M146.756 933.541 L134.95 951.989 L146.756 951.989 L146.756 933.541 M145.529 929.466 L151.408 929.466 L151.408 951.989 L156.339 951.989 L156.339 955.878 L151.408 955.878 L151.408 964.026 L146.756 964.026 L146.756 955.878 L131.154 955.878 L131.154 951.364 L145.529 929.466 Z" fill="#000000" fill-rule="nonzero" fill-opacity="1" /><path clip-path="url(#clip050)" d="M99.0011 752.645 Q95.39 752.645 93.5613 756.209 Q91.7558 759.751 91.7558 766.881 Q91.7558 773.987 93.5613 777.552 Q95.39 781.094 99.0011 781.094 Q102.635 781.094 104.441 777.552 Q106.27 773.987 106.27 766.881 Q106.27 759.751 104.441 756.209 Q102.635 752.645 99.0011 752.645 M99.0011 748.941 Q104.811 748.941 107.867 753.547 Q110.946 758.131 110.946 766.881 Q110.946 775.608 107.867 780.214 Q104.811 784.797 99.0011 784.797 Q93.191 784.797 90.1123 780.214 Q87.0567 775.608 87.0567 766.881 Q87.0567 758.131 90.1123 753.547 Q93.191 748.941 99.0011 748.941 Z" fill="#000000" fill-rule="nonzero" fill-opacity="1" /><path clip-path="url(#clip050)" d="M119.163 778.246 L124.047 778.246 L124.047 784.126 L119.163 784.126 L119.163 778.246 Z" fill="#000000" fill-rule="nonzero" fill-opacity="1" /><path clip-path="url(#clip050)" d="M144.811 764.983 Q141.663 764.983 139.811 767.135 Q137.982 769.288 137.982 773.038 Q137.982 776.765 139.811 778.941 Q141.663 781.094 144.811 781.094 Q147.959 781.094 149.788 778.941 Q151.64 776.765 151.64 773.038 Q151.64 769.288 149.788 767.135 Q147.959 764.983 144.811 764.983 M154.093 750.33 L154.093 754.589 Q152.334 753.756 150.529 753.316 Q148.746 752.876 146.987 752.876 Q142.357 752.876 139.904 756.001 Q137.473 759.126 137.126 765.446 Q138.492 763.432 140.552 762.367 Q142.612 761.279 145.089 761.279 Q150.297 761.279 153.306 764.45 Q156.339 767.598 156.339 773.038 Q156.339 778.362 153.191 781.58 Q150.043 784.797 144.811 784.797 Q138.816 784.797 135.644 780.214 Q132.473 775.608 132.473 766.881 Q132.473 758.686 136.362 753.825 Q140.251 748.941 146.802 748.941 Q148.561 748.941 150.343 749.288 Q152.149 749.635 154.093 750.33 Z" fill="#000000" fill-rule="nonzero" fill-opacity="1" /><path clip-path="url(#clip050)" d="M99.2558 572.744 Q95.6447 572.744 93.816 576.309 Q92.0104 579.851 92.0104 586.98 Q92.0104 594.087 93.816 597.651 Q95.6447 601.193 99.2558 601.193 Q102.89 601.193 104.696 597.651 Q106.524 594.087 106.524 586.98 Q106.524 579.851 104.696 576.309 Q102.89 572.744 99.2558 572.744 M99.2558 569.041 Q105.066 569.041 108.121 573.647 Q111.2 578.23 111.2 586.98 Q111.2 595.707 108.121 600.313 Q105.066 604.897 99.2558 604.897 Q93.4456 604.897 90.3669 600.313 Q87.3114 595.707 87.3114 586.98 Q87.3114 578.23 90.3669 573.647 Q93.4456 569.041 99.2558 569.041 Z" fill="#000000" fill-rule="nonzero" fill-opacity="1" /><path clip-path="url(#clip050)" d="M119.418 598.346 L124.302 598.346 L124.302 604.226 L119.418 604.226 L119.418 598.346 Z" fill="#000000" fill-rule="nonzero" fill-opacity="1" /><path clip-path="url(#clip050)" d="M144.487 587.814 Q141.154 587.814 139.232 589.596 Q137.334 591.378 137.334 594.503 Q137.334 597.628 139.232 599.411 Q141.154 601.193 144.487 601.193 Q147.82 601.193 149.742 599.411 Q151.663 597.605 151.663 594.503 Q151.663 591.378 149.742 589.596 Q147.843 587.814 144.487 587.814 M139.811 585.823 Q136.802 585.082 135.112 583.022 Q133.445 580.962 133.445 577.999 Q133.445 573.855 136.385 571.448 Q139.348 569.041 144.487 569.041 Q149.649 569.041 152.589 571.448 Q155.529 573.855 155.529 577.999 Q155.529 580.962 153.839 583.022 Q152.172 585.082 149.186 585.823 Q152.566 586.61 154.441 588.902 Q156.339 591.193 156.339 594.503 Q156.339 599.526 153.26 602.212 Q150.205 604.897 144.487 604.897 Q138.769 604.897 135.691 602.212 Q132.635 599.526 132.635 594.503 Q132.635 591.193 134.533 588.902 Q136.431 586.61 139.811 585.823 M138.098 578.439 Q138.098 581.124 139.765 582.628 Q141.455 584.133 144.487 584.133 Q147.496 584.133 149.186 582.628 Q150.899 581.124 150.899 578.439 Q150.899 575.753 149.186 574.249 Q147.496 572.744 144.487 572.744 Q141.455 572.744 139.765 574.249 Q138.098 575.753 138.098 578.439 Z" fill="#000000" fill-rule="nonzero" fill-opacity="1" /><path clip-path="url(#clip050)" d="M89.9734 420.39 L97.6122 420.39 L97.6122 394.024 L89.3021 395.691 L89.3021 391.432 L97.566 389.765 L102.242 389.765 L102.242 420.39 L109.881 420.39 L109.881 424.325 L89.9734 424.325 L89.9734 420.39 Z" fill="#000000" fill-rule="nonzero" fill-opacity="1" /><path clip-path="url(#clip050)" d="M119.325 418.445 L124.209 418.445 L124.209 424.325 L119.325 424.325 L119.325 418.445 Z" fill="#000000" fill-rule="nonzero" fill-opacity="1" /><path clip-path="url(#clip050)" d="M144.394 392.844 Q140.783 392.844 138.955 396.409 Q137.149 399.95 137.149 407.08 Q137.149 414.186 138.955 417.751 Q140.783 421.293 144.394 421.293 Q148.029 421.293 149.834 417.751 Q151.663 414.186 151.663 407.08 Q151.663 399.95 149.834 396.409 Q148.029 392.844 144.394 392.844 M144.394 389.14 Q150.205 389.14 153.26 393.746 Q156.339 398.33 156.339 407.08 Q156.339 415.807 153.26 420.413 Q150.205 424.996 144.394 424.996 Q138.584 424.996 135.506 420.413 Q132.45 415.807 132.45 407.08 Q132.45 398.33 135.506 393.746 Q138.584 389.14 144.394 389.14 Z" fill="#000000" fill-rule="nonzero" fill-opacity="1" /><path clip-path="url(#clip050)" d="M91.5706 240.489 L99.2095 240.489 L99.2095 214.124 L90.8993 215.79 L90.8993 211.531 L99.1632 209.865 L103.839 209.865 L103.839 240.489 L111.478 240.489 L111.478 244.425 L91.5706 244.425 L91.5706 240.489 Z" fill="#000000" fill-rule="nonzero" fill-opacity="1" /><path clip-path="url(#clip050)" d="M120.922 238.545 L125.807 238.545 L125.807 244.425 L120.922 244.425 L120.922 238.545 Z" fill="#000000" fill-rule="nonzero" fill-opacity="1" /><path clip-path="url(#clip050)" d="M140.019 240.489 L156.339 240.489 L156.339 244.425 L134.394 244.425 L134.394 240.489 Q137.056 237.735 141.64 233.105 Q146.246 228.452 147.427 227.11 Q149.672 224.587 150.552 222.851 Q151.455 221.091 151.455 219.402 Q151.455 216.647 149.51 214.911 Q147.589 213.175 144.487 213.175 Q142.288 213.175 139.834 213.939 Q137.404 214.703 134.626 216.253 L134.626 211.531 Q137.45 210.397 139.904 209.818 Q142.357 209.24 144.394 209.24 Q149.765 209.24 152.959 211.925 Q156.154 214.61 156.154 219.101 Q156.154 221.23 155.343 223.152 Q154.556 225.05 152.45 227.642 Q151.871 228.314 148.769 231.531 Q145.668 234.726 140.019 240.489 Z" fill="#000000" fill-rule="nonzero" fill-opacity="1" /><path clip-path="url(#clip050)" d="M89.4873 60.5889 L97.1261 60.5889 L97.1261 34.2233 L88.816 35.89 L88.816 31.6308 L97.0798 29.9641 L101.756 29.9641 L101.756 60.5889 L109.395 60.5889 L109.395 64.5241 L89.4873 64.5241 L89.4873 60.5889 Z" fill="#000000" fill-rule="nonzero" fill-opacity="1" /><path clip-path="url(#clip050)" d="M118.839 58.6445 L123.723 58.6445 L123.723 64.5241 L118.839 64.5241 L118.839 58.6445 Z" fill="#000000" fill-rule="nonzero" fill-opacity="1" /><path clip-path="url(#clip050)" d="M146.756 34.0381 L134.95 52.4871 L146.756 52.4871 L146.756 34.0381 M145.529 29.9641 L151.408 29.9641 L151.408 52.4871 L156.339 52.4871 L156.339 56.376 L151.408 56.376 L151.408 64.5241 L146.756 64.5241 L146.756 56.376 L131.154 56.376 L131.154 51.8621 L145.529 29.9641 Z" fill="#000000" fill-rule="nonzero" fill-opacity="1" /><circle clip-path="url(#clip051)" cx="466.877" cy="1306.55" r="14.4" fill="#000000" fill-rule="evenodd" fill-opacity="1" stroke="none"/>
<circle clip-path="url(#clip051)" cx="473.682" cy="1306.55" r="14.4" fill="#000000" fill-rule="evenodd" fill-opacity="1" stroke="none"/>
<circle clip-path="url(#clip051)" cx="491.525" cy="1306.55" r="14.4" fill="#000000" fill-rule="evenodd" fill-opacity="1" stroke="none"/>
<circle clip-path="url(#clip051)" cx="497.964" cy="1306.55" r="14.4" fill="#000000" fill-rule="evenodd" fill-opacity="1" stroke="none"/>
<circle clip-path="url(#clip051)" cx="564.578" cy="1306.55" r="14.4" fill="#000000" fill-rule="evenodd" fill-opacity="1" stroke="none"/>
<circle clip-path="url(#clip051)" cx="571.001" cy="1306.55" r="14.4" fill="#000000" fill-rule="evenodd" fill-opacity="1" stroke="none"/>
<circle clip-path="url(#clip051)" cx="587.485" cy="1306.55" r="14.4" fill="#000000" fill-rule="evenodd" fill-opacity="1" stroke="none"/>
<circle clip-path="url(#clip051)" cx="592.726" cy="1306.55" r="14.4" fill="#000000" fill-rule="evenodd" fill-opacity="1" stroke="none"/>
<circle clip-path="url(#clip051)" cx="594.441" cy="1306.55" r="14.4" fill="#000000" fill-rule="evenodd" fill-opacity="1" stroke="none"/>
<circle clip-path="url(#clip051)" cx="595.108" cy="1306.55" r="14.4" fill="#000000" fill-rule="evenodd" fill-opacity="1" stroke="none"/>
<circle clip-path="url(#clip051)" cx="608.992" cy="1306.55" r="14.4" fill="#000000" fill-rule="evenodd" fill-opacity="1" stroke="none"/>
<circle clip-path="url(#clip051)" cx="618.417" cy="1306.55" r="14.4" fill="#000000" fill-rule="evenodd" fill-opacity="1" stroke="none"/>
<circle clip-path="url(#clip051)" cx="622.026" cy="1306.55" r="14.4" fill="#000000" fill-rule="evenodd" fill-opacity="1" stroke="none"/>
<circle clip-path="url(#clip051)" cx="622.609" cy="1306.55" r="14.4" fill="#000000" fill-rule="evenodd" fill-opacity="1" stroke="none"/>
<circle clip-path="url(#clip051)" cx="632.37" cy="1306.55" r="14.4" fill="#000000" fill-rule="evenodd" fill-opacity="1" stroke="none"/>
<circle clip-path="url(#clip051)" cx="644.042" cy="1306.55" r="14.4" fill="#000000" fill-rule="evenodd" fill-opacity="1" stroke="none"/>
<circle clip-path="url(#clip051)" cx="676.816" cy="1306.55" r="14.4" fill="#000000" fill-rule="evenodd" fill-opacity="1" stroke="none"/>
<circle clip-path="url(#clip051)" cx="699.711" cy="1306.55" r="14.4" fill="#000000" fill-rule="evenodd" fill-opacity="1" stroke="none"/>
<circle clip-path="url(#clip051)" cx="726.291" cy="1306.55" r="14.4" fill="#000000" fill-rule="evenodd" fill-opacity="1" stroke="none"/>
<circle clip-path="url(#clip051)" cx="751.62" cy="1306.55" r="14.4" fill="#000000" fill-rule="evenodd" fill-opacity="1" stroke="none"/>
<circle clip-path="url(#clip051)" cx="787.353" cy="1306.55" r="14.4" fill="#000000" fill-rule="evenodd" fill-opacity="1" stroke="none"/>
<circle clip-path="url(#clip051)" cx="799.343" cy="1306.55" r="14.4" fill="#000000" fill-rule="evenodd" fill-opacity="1" stroke="none"/>
<circle clip-path="url(#clip051)" cx="803.392" cy="1306.55" r="14.4" fill="#000000" fill-rule="evenodd" fill-opacity="1" stroke="none"/>
<circle clip-path="url(#clip051)" cx="814.204" cy="1306.55" r="14.4" fill="#000000" fill-rule="evenodd" fill-opacity="1" stroke="none"/>
<circle clip-path="url(#clip051)" cx="820.13" cy="1306.55" r="14.4" fill="#000000" fill-rule="evenodd" fill-opacity="1" stroke="none"/>
<circle clip-path="url(#clip051)" cx="823.685" cy="1306.55" r="14.4" fill="#000000" fill-rule="evenodd" fill-opacity="1" stroke="none"/>
<circle clip-path="url(#clip051)" cx="830.832" cy="1306.55" r="14.4" fill="#000000" fill-rule="evenodd" fill-opacity="1" stroke="none"/>
<circle clip-path="url(#clip051)" cx="861.41" cy="1306.55" r="14.4" fill="#000000" fill-rule="evenodd" fill-opacity="1" stroke="none"/>
<circle clip-path="url(#clip051)" cx="879.897" cy="1306.55" r="14.4" fill="#000000" fill-rule="evenodd" fill-opacity="1" stroke="none"/>
<circle clip-path="url(#clip051)" cx="940.441" cy="1306.55" r="14.4" fill="#000000" fill-rule="evenodd" fill-opacity="1" stroke="none"/>
<circle clip-path="url(#clip051)" cx="953.55" cy="1306.55" r="14.4" fill="#000000" fill-rule="evenodd" fill-opacity="1" stroke="none"/>
<circle clip-path="url(#clip051)" cx="982.684" cy="1306.55" r="14.4" fill="#000000" fill-rule="evenodd" fill-opacity="1" stroke="none"/>
<circle clip-path="url(#clip051)" cx="1010.82" cy="407.045" r="14.4" fill="#000000" fill-rule="evenodd" fill-opacity="1" stroke="none"/>
<circle clip-path="url(#clip051)" cx="1020.17" cy="407.045" r="14.4" fill="#000000" fill-rule="evenodd" fill-opacity="1" stroke="none"/>
<circle clip-path="url(#clip051)" cx="1020.31" cy="407.045" r="14.4" fill="#000000" fill-rule="evenodd" fill-opacity="1" stroke="none"/>
<circle clip-path="url(#clip051)" cx="1037.97" cy="407.045" r="14.4" fill="#000000" fill-rule="evenodd" fill-opacity="1" stroke="none"/>
<circle clip-path="url(#clip051)" cx="1060.92" cy="407.045" r="14.4" fill="#000000" fill-rule="evenodd" fill-opacity="1" stroke="none"/>
<circle clip-path="url(#clip051)" cx="1065.87" cy="407.045" r="14.4" fill="#000000" fill-rule="evenodd" fill-opacity="1" stroke="none"/>
<circle clip-path="url(#clip051)" cx="1077.99" cy="407.045" r="14.4" fill="#000000" fill-rule="evenodd" fill-opacity="1" stroke="none"/>
<circle clip-path="url(#clip051)" cx="1116.45" cy="407.045" r="14.4" fill="#000000" fill-rule="evenodd" fill-opacity="1" stroke="none"/>
<circle clip-path="url(#clip051)" cx="1116.52" cy="407.045" r="14.4" fill="#000000" fill-rule="evenodd" fill-opacity="1" stroke="none"/>
<circle clip-path="url(#clip051)" cx="1127.53" cy="407.045" r="14.4" fill="#000000" fill-rule="evenodd" fill-opacity="1" stroke="none"/>
<circle clip-path="url(#clip051)" cx="1194.56" cy="407.045" r="14.4" fill="#000000" fill-rule="evenodd" fill-opacity="1" stroke="none"/>
<circle clip-path="url(#clip051)" cx="1196.52" cy="407.045" r="14.4" fill="#000000" fill-rule="evenodd" fill-opacity="1" stroke="none"/>
<circle clip-path="url(#clip051)" cx="1219.18" cy="407.045" r="14.4" fill="#000000" fill-rule="evenodd" fill-opacity="1" stroke="none"/>
<circle clip-path="url(#clip051)" cx="1222.03" cy="407.045" r="14.4" fill="#000000" fill-rule="evenodd" fill-opacity="1" stroke="none"/>
<circle clip-path="url(#clip051)" cx="1258.63" cy="407.045" r="14.4" fill="#000000" fill-rule="evenodd" fill-opacity="1" stroke="none"/>
<circle clip-path="url(#clip051)" cx="1275.36" cy="407.045" r="14.4" fill="#000000" fill-rule="evenodd" fill-opacity="1" stroke="none"/>
<circle clip-path="url(#clip051)" cx="1298.34" cy="407.045" r="14.4" fill="#000000" fill-rule="evenodd" fill-opacity="1" stroke="none"/>
<circle clip-path="url(#clip051)" cx="1300.79" cy="407.045" r="14.4" fill="#000000" fill-rule="evenodd" fill-opacity="1" stroke="none"/>
<circle clip-path="url(#clip051)" cx="1312.85" cy="407.045" r="14.4" fill="#000000" fill-rule="evenodd" fill-opacity="1" stroke="none"/>
<circle clip-path="url(#clip051)" cx="1318.39" cy="407.045" r="14.4" fill="#000000" fill-rule="evenodd" fill-opacity="1" stroke="none"/>
<circle clip-path="url(#clip051)" cx="1325.66" cy="407.045" r="14.4" fill="#000000" fill-rule="evenodd" fill-opacity="1" stroke="none"/>
<circle clip-path="url(#clip051)" cx="1327.23" cy="407.045" r="14.4" fill="#000000" fill-rule="evenodd" fill-opacity="1" stroke="none"/>
<circle clip-path="url(#clip051)" cx="1353.47" cy="407.045" r="14.4" fill="#000000" fill-rule="evenodd" fill-opacity="1" stroke="none"/>
<circle clip-path="url(#clip051)" cx="1391.74" cy="407.045" r="14.4" fill="#000000" fill-rule="evenodd" fill-opacity="1" stroke="none"/>
<circle clip-path="url(#clip051)" cx="1421.51" cy="407.045" r="14.4" fill="#000000" fill-rule="evenodd" fill-opacity="1" stroke="none"/>
<circle clip-path="url(#clip051)" cx="1443.88" cy="407.045" r="14.4" fill="#000000" fill-rule="evenodd" fill-opacity="1" stroke="none"/>
<circle clip-path="url(#clip051)" cx="1457.85" cy="407.045" r="14.4" fill="#000000" fill-rule="evenodd" fill-opacity="1" stroke="none"/>
<circle clip-path="url(#clip051)" cx="1483.77" cy="407.045" r="14.4" fill="#000000" fill-rule="evenodd" fill-opacity="1" stroke="none"/>
<circle clip-path="url(#clip051)" cx="1495.48" cy="407.045" r="14.4" fill="#000000" fill-rule="evenodd" fill-opacity="1" stroke="none"/>
<circle clip-path="url(#clip051)" cx="1533.68" cy="407.045" r="14.4" fill="#000000" fill-rule="evenodd" fill-opacity="1" stroke="none"/>
<circle clip-path="url(#clip051)" cx="1535.05" cy="407.045" r="14.4" fill="#000000" fill-rule="evenodd" fill-opacity="1" stroke="none"/>
<circle clip-path="url(#clip051)" cx="1564.68" cy="1306.55" r="14.4" fill="#000000" fill-rule="evenodd" fill-opacity="1" stroke="none"/>
<circle clip-path="url(#clip051)" cx="1576.19" cy="1306.55" r="14.4" fill="#000000" fill-rule="evenodd" fill-opacity="1" stroke="none"/>
<circle clip-path="url(#clip051)" cx="1608.86" cy="1306.55" r="14.4" fill="#000000" fill-rule="evenodd" fill-opacity="1" stroke="none"/>
<circle clip-path="url(#clip051)" cx="1627.6" cy="1306.55" r="14.4" fill="#000000" fill-rule="evenodd" fill-opacity="1" stroke="none"/>
<circle clip-path="url(#clip051)" cx="1633.9" cy="1306.55" r="14.4" fill="#000000" fill-rule="evenodd" fill-opacity="1" stroke="none"/>
<circle clip-path="url(#clip051)" cx="1634.75" cy="1306.55" r="14.4" fill="#000000" fill-rule="evenodd" fill-opacity="1" stroke="none"/>
<circle clip-path="url(#clip051)" cx="1640.42" cy="1306.55" r="14.4" fill="#000000" fill-rule="evenodd" fill-opacity="1" stroke="none"/>
<circle clip-path="url(#clip051)" cx="1650.22" cy="1306.55" r="14.4" fill="#000000" fill-rule="evenodd" fill-opacity="1" stroke="none"/>
<circle clip-path="url(#clip051)" cx="1664.48" cy="1306.55" r="14.4" fill="#000000" fill-rule="evenodd" fill-opacity="1" stroke="none"/>
<circle clip-path="url(#clip051)" cx="1681.51" cy="1306.55" r="14.4" fill="#000000" fill-rule="evenodd" fill-opacity="1" stroke="none"/>
<circle clip-path="url(#clip051)" cx="1686.48" cy="1306.55" r="14.4" fill="#000000" fill-rule="evenodd" fill-opacity="1" stroke="none"/>
<circle clip-path="url(#clip051)" cx="1691.72" cy="1306.55" r="14.4" fill="#000000" fill-rule="evenodd" fill-opacity="1" stroke="none"/>
<circle clip-path="url(#clip051)" cx="1691.97" cy="1306.55" r="14.4" fill="#000000" fill-rule="evenodd" fill-opacity="1" stroke="none"/>
<circle clip-path="url(#clip051)" cx="1712.15" cy="1306.55" r="14.4" fill="#000000" fill-rule="evenodd" fill-opacity="1" stroke="none"/>
<circle clip-path="url(#clip051)" cx="1725.62" cy="1306.55" r="14.4" fill="#000000" fill-rule="evenodd" fill-opacity="1" stroke="none"/>
<circle clip-path="url(#clip051)" cx="1736.82" cy="1306.55" r="14.4" fill="#000000" fill-rule="evenodd" fill-opacity="1" stroke="none"/>
<circle clip-path="url(#clip051)" cx="1756.81" cy="1306.55" r="14.4" fill="#000000" fill-rule="evenodd" fill-opacity="1" stroke="none"/>
<circle clip-path="url(#clip051)" cx="1800.97" cy="1306.55" r="14.4" fill="#000000" fill-rule="evenodd" fill-opacity="1" stroke="none"/>
<circle clip-path="url(#clip051)" cx="1823.29" cy="1306.55" r="14.4" fill="#000000" fill-rule="evenodd" fill-opacity="1" stroke="none"/>
<circle clip-path="url(#clip051)" cx="1829.81" cy="1306.55" r="14.4" fill="#000000" fill-rule="evenodd" fill-opacity="1" stroke="none"/>
<circle clip-path="url(#clip051)" cx="1843.57" cy="1306.55" r="14.4" fill="#000000" fill-rule="evenodd" fill-opacity="1" stroke="none"/>
<circle clip-path="url(#clip051)" cx="1906.92" cy="1306.55" r="14.4" fill="#000000" fill-rule="evenodd" fill-opacity="1" stroke="none"/>
<circle clip-path="url(#clip051)" cx="1947.36" cy="1306.55" r="14.4" fill="#000000" fill-rule="evenodd" fill-opacity="1" stroke="none"/>
<circle clip-path="url(#clip051)" cx="1956.59" cy="1306.55" r="14.4" fill="#000000" fill-rule="evenodd" fill-opacity="1" stroke="none"/>
<circle clip-path="url(#clip051)" cx="1966.19" cy="1306.55" r="14.4" fill="#000000" fill-rule="evenodd" fill-opacity="1" stroke="none"/>
<circle clip-path="url(#clip051)" cx="1966.22" cy="1306.55" r="14.4" fill="#000000" fill-rule="evenodd" fill-opacity="1" stroke="none"/>
<circle clip-path="url(#clip051)" cx="1990.7" cy="1306.55" r="14.4" fill="#000000" fill-rule="evenodd" fill-opacity="1" stroke="none"/>
<circle clip-path="url(#clip051)" cx="2007.54" cy="1306.55" r="14.4" fill="#000000" fill-rule="evenodd" fill-opacity="1" stroke="none"/>
<circle clip-path="url(#clip051)" cx="2019.71" cy="1306.55" r="14.4" fill="#000000" fill-rule="evenodd" fill-opacity="1" stroke="none"/>
<circle clip-path="url(#clip051)" cx="2020.85" cy="1306.55" r="14.4" fill="#000000" fill-rule="evenodd" fill-opacity="1" stroke="none"/>
<circle clip-path="url(#clip051)" cx="2037.76" cy="1306.55" r="14.4" fill="#000000" fill-rule="evenodd" fill-opacity="1" stroke="none"/>
<circle clip-path="url(#clip051)" cx="2040.69" cy="1306.55" r="14.4" fill="#000000" fill-rule="evenodd" fill-opacity="1" stroke="none"/>
<circle clip-path="url(#clip051)" cx="2071.42" cy="1306.55" r="14.4" fill="#000000" fill-rule="evenodd" fill-opacity="1" stroke="none"/>
<circle clip-path="url(#clip051)" cx="2082.14" cy="1306.55" r="14.4" fill="#000000" fill-rule="evenodd" fill-opacity="1" stroke="none"/>
<circle clip-path="url(#clip051)" cx="2095.97" cy="1306.55" r="14.4" fill="#000000" fill-rule="evenodd" fill-opacity="1" stroke="none"/>
<circle clip-path="url(#clip051)" cx="2112.24" cy="1306.55" r="14.4" fill="#000000" fill-rule="evenodd" fill-opacity="1" stroke="none"/>
<circle clip-path="url(#clip051)" cx="2117.14" cy="1306.55" r="14.4" fill="#000000" fill-rule="evenodd" fill-opacity="1" stroke="none"/>
<polyline clip-path="url(#clip051)" style="stroke:#e26f46; stroke-linecap:round; stroke-linejoin:round; stroke-width:4; stroke-opacity:1; fill:none" points="253.483,1306.55 255.521,1306.55 257.559,1306.55 259.597,1306.55 261.635,1306.55 263.673,1306.55 265.711,1306.55 267.75,1306.55 269.788,1306.55 271.826,1306.55 273.864,1306.55 275.902,1306.55 277.94,1306.55 279.978,1306.55 282.016,1306.55 284.055,1306.55 286.093,1306.55 288.131,1306.55 290.169,1306.55 292.207,1306.55 294.245,1306.55 296.283,1306.55 298.322,1306.55 300.36,1306.55 302.398,1306.55 304.436,1306.55 306.474,1306.55 308.512,1306.55 310.55,1306.55 312.588,1306.55 314.627,1306.55 316.665,1306.55 318.703,1306.55 320.741,1306.55 322.779,1306.55 324.817,1306.55 326.855,1306.55 328.893,1306.55 330.932,1306.55 332.97,1306.55 335.008,1306.55 337.046,1306.55 339.084,1306.55 341.122,1306.55 343.16,1306.55 345.198,1306.55 347.237,1306.55 349.275,1306.55 351.313,1306.55 353.351,1306.55 355.389,1306.55 357.427,1306.55 359.465,1306.55 361.504,1306.55 363.542,1306.55 365.58,1306.55 367.618,1306.55 369.656,1306.55 371.694,1306.55 373.732,1306.55 375.77,1306.55 377.809,1306.55 379.847,1306.55 381.885,1306.55 383.923,1306.55 385.961,1306.55 387.999,1306.55 390.037,1306.55 392.075,1306.55 394.114,1306.55 396.152,1306.55 398.19,1306.55 400.228,1306.55 402.266,1306.55 404.304,1306.55 406.342,1306.55 408.38,1306.55 410.419,1306.55 412.457,1306.55 414.495,1306.55 416.533,1306.55 418.571,1306.55 420.609,1306.55 422.647,1306.55 424.686,1306.55 426.724,1306.55 428.762,1306.55 430.8,1306.55 432.838,1306.55 434.876,1306.55 436.914,1306.55 438.952,1306.55 440.991,1306.55 443.029,1306.55 445.067,1306.55 447.105,1306.55 449.143,1306.55 451.181,1306.55 453.219,1306.55 455.257,1306.55 457.296,1306.55 459.334,1306.55 461.372,1306.55 463.41,1306.55 465.448,1306.55 467.486,1306.55 469.524,1306.55 471.563,1306.55 473.601,1306.55 475.639,1306.55 477.677,1306.55 479.715,1306.55 481.753,1306.55 483.791,1306.55 485.829,1306.55 487.868,1306.55 489.906,1306.55 491.944,1306.55 493.982,1306.55 496.02,1306.55 498.058,1306.55 500.096,1306.55 502.134,1306.55 504.173,1306.55 506.211,1306.55 508.249,1306.55 510.287,1306.55 512.325,1306.55 514.363,1306.55 516.401,1306.55 518.439,1306.55 520.478,1306.55 522.516,1306.55 524.554,1306.55 526.592,1306.55 528.63,1306.55 530.668,1306.55 532.706,1306.55 534.745,1306.55 536.783,1306.55 538.821,1306.55 540.859,1306.55 542.897,1306.55 544.935,1306.55 546.973,1306.55 549.011,1306.55 551.05,1306.55 553.088,1306.55 555.126,1306.55 557.164,1306.55 559.202,1306.55 561.24,1306.55 563.278,1306.55 565.316,1306.55 567.355,1306.55 569.393,1306.55 571.431,1306.55 573.469,1306.55 575.507,1306.55 577.545,1306.55 579.583,1306.55 581.621,1306.55 583.66,1306.55 585.698,1306.55 587.736,1306.55 589.774,1306.55 591.812,1306.55 593.85,1306.55 595.888,1306.55 597.927,1306.55 599.965,1306.55 602.003,1306.55 604.041,1306.55 606.079,1306.55 608.117,1306.55 610.155,1306.55 612.193,1306.55 614.232,1306.55 616.27,1306.55 618.308,1306.55 620.346,1306.55 622.384,1306.55 624.422,1306.55 626.46,1306.55 628.498,1306.55 630.537,1306.55 632.575,1306.55 634.613,1306.55 636.651,1306.55 638.689,1306.55 640.727,1306.55 642.765,1306.55 644.804,1306.55 646.842,1306.55 648.88,1306.55 650.918,1306.55 652.956,1306.55 654.994,1306.55 657.032,1306.55 659.07,1306.55 661.109,1306.55 663.147,1306.55 665.185,1306.55 667.223,1306.55 669.261,1306.55 671.299,1306.55 673.337,1306.55 675.375,1306.55 677.414,1306.55 679.452,1306.55 681.49,1306.55 683.528,1306.55 685.566,1306.55 687.604,1306.55 689.642,1306.55 691.68,1306.55 693.719,1306.55 695.757,1306.55 697.795,1306.55 699.833,1306.55 701.871,1306.55 703.909,1306.55 705.947,1306.55 707.986,1306.55 710.024,1306.55 712.062,1306.55 714.1,1306.55 716.138,1306.55 718.176,1306.55 720.214,1306.55 722.252,1306.55 724.291,1306.55 726.329,1306.55 728.367,1306.55 730.405,1306.55 732.443,1306.55 734.481,1306.55 736.519,1306.55 738.557,1306.55 740.596,1306.55 742.634,1306.55 744.672,1306.55 746.71,1306.55 748.748,1306.55 750.786,1306.55 752.824,1306.55 754.862,1306.55 756.901,1306.55 758.939,1306.55 760.977,1306.55 763.015,1306.55 765.053,1306.55 767.091,1306.55 769.129,1306.55 771.168,1306.55 773.206,1306.55 775.244,1306.55 777.282,1306.55 779.32,1306.55 781.358,1306.55 783.396,1306.55 785.434,1306.55 787.473,1306.55 789.511,1306.55 791.549,1306.55 793.587,1306.55 795.625,1306.55 797.663,1306.55 799.701,1306.55 801.739,1306.55 803.778,1306.55 805.816,1306.55 807.854,1306.55 809.892,1306.55 811.93,1306.55 813.968,1306.55 816.006,1306.55 818.044,1306.55 820.083,1306.55 822.121,1306.55 824.159,1306.55 826.197,1306.55 828.235,1306.55 830.273,1306.55 832.311,1306.55 834.35,1306.55 836.388,1306.55 838.426,1306.55 840.464,1306.55 842.502,1306.55 844.54,1306.55 846.578,1306.55 848.616,1306.55 850.655,1306.55 852.693,1306.55 854.731,1306.55 856.769,1306.55 858.807,1306.55 860.845,1306.55 862.883,1306.55 864.921,1306.55 866.96,1306.55 868.998,1306.55 871.036,1306.55 873.074,1306.55 875.112,1306.55 877.15,1306.55 879.188,1306.55 881.227,1306.55 883.265,1306.55 885.303,1306.55 887.341,1306.55 889.379,1306.55 891.417,1306.55 893.455,1306.55 895.493,1306.55 897.532,1306.55 899.57,1306.55 901.608,1306.55 903.646,1306.55 905.684,1306.55 907.722,1306.55 909.76,1306.55 911.798,1306.55 913.837,1306.55 915.875,1306.55 917.913,1306.55 919.951,1306.55 921.989,1306.55 924.027,1306.55 926.065,1306.55 928.103,1306.55 930.142,1306.55 932.18,1306.55 934.218,1306.55 936.256,1306.55 938.294,1306.55 940.332,1306.55 942.37,1306.55 944.409,1306.55 946.447,1306.55 948.485,1306.55 950.523,1306.55 952.561,1306.55 954.599,1306.55 956.637,1306.55 958.675,1306.55 960.714,1306.55 962.752,1306.55 964.79,1306.55 966.828,1306.55 968.866,1306.55 970.904,1306.55 972.942,1306.55 974.98,1306.55 977.019,1306.55 979.057,1306.55 981.095,1306.55 983.133,1306.55 985.171,1306.55 987.209,1306.55 989.247,1306.55 991.285,407.045 993.324,407.045 995.362,407.045 997.4,407.045 999.438,407.045 1001.48,407.045 1003.51,407.045 1005.55,407.045 1007.59,407.045 1009.63,407.045 1011.67,407.045 1013.7,407.045 1015.74,407.045 1017.78,407.045 1019.82,407.045 1021.86,407.045 1023.9,407.045 1025.93,407.045 1027.97,407.045 1030.01,407.045 1032.05,407.045 1034.09,407.045 1036.12,407.045 1038.16,407.045 1040.2,407.045 1042.24,407.045 1044.28,407.045 1046.31,407.045 1048.35,407.045 1050.39,407.045 1052.43,407.045 1054.47,407.045 1056.51,407.045 1058.54,407.045 1060.58,407.045 1062.62,407.045 1064.66,407.045 1066.7,407.045 1068.73,407.045 1070.77,407.045 1072.81,407.045 1074.85,407.045 1076.89,407.045 1078.93,407.045 1080.96,407.045 1083,407.045 1085.04,407.045 1087.08,407.045 1089.12,407.045 1091.15,407.045 1093.19,407.045 1095.23,407.045 1097.27,407.045 1099.31,407.045 1101.34,407.045 1103.38,407.045 1105.42,407.045 1107.46,407.045 1109.5,407.045 1111.54,407.045 1113.57,407.045 1115.61,407.045 1117.65,407.045 1119.69,407.045 1121.73,407.045 1123.76,407.045 1125.8,407.045 1127.84,407.045 1129.88,407.045 1131.92,407.045 1133.95,407.045 1135.99,407.045 1138.03,407.045 1140.07,407.045 1142.11,407.045 1144.15,407.045 1146.18,407.045 1148.22,407.045 1150.26,407.045 1152.3,407.045 1154.34,407.045 1156.37,407.045 1158.41,407.045 1160.45,407.045 1162.49,407.045 1164.53,407.045 1166.56,407.045 1168.6,407.045 1170.64,407.045 1172.68,407.045 1174.72,407.045 1176.76,407.045 1178.79,407.045 1180.83,407.045 1182.87,407.045 1184.91,407.045 1186.95,407.045 1188.98,407.045 1191.02,407.045 1193.06,407.045 1195.1,407.045 1197.14,407.045 1199.17,407.045 1201.21,407.045 1203.25,407.045 1205.29,407.045 1207.33,407.045 1209.37,407.045 1211.4,407.045 1213.44,407.045 1215.48,407.045 1217.52,407.045 1219.56,407.045 1221.59,407.045 1223.63,407.045 1225.67,407.045 1227.71,407.045 1229.75,407.045 1231.78,407.045 1233.82,407.045 1235.86,407.045 1237.9,407.045 1239.94,407.045 1241.98,407.045 1244.01,407.045 1246.05,407.045 1248.09,407.045 1250.13,407.045 1252.17,407.045 1254.2,407.045 1256.24,407.045 1258.28,407.045 1260.32,407.045 1262.36,407.045 1264.39,407.045 1266.43,407.045 1268.47,407.045 1270.51,407.045 1272.55,407.045 1274.59,407.045 1276.62,407.045 1278.66,407.045 1280.7,407.045 1282.74,407.045 1284.78,407.045 1286.81,407.045 1288.85,407.045 1290.89,407.045 1292.93,407.045 1294.97,407.045 1297,407.045 1299.04,407.045 1301.08,407.045 1303.12,407.045 1305.16,407.045 1307.2,407.045 1309.23,407.045 1311.27,407.045 1313.31,407.045 1315.35,407.045 1317.39,407.045 1319.42,407.045 1321.46,407.045 1323.5,407.045 1325.54,407.045 1327.58,407.045 1329.61,407.045 1331.65,407.045 1333.69,407.045 1335.73,407.045 1337.77,407.045 1339.81,407.045 1341.84,407.045 1343.88,407.045 1345.92,407.045 1347.96,407.045 1350,407.045 1352.03,407.045 1354.07,407.045 1356.11,407.045 1358.15,407.045 1360.19,407.045 1362.23,407.045 1364.26,407.045 1366.3,407.045 1368.34,407.045 1370.38,407.045 1372.42,407.045 1374.45,407.045 1376.49,407.045 1378.53,407.045 1380.57,407.045 1382.61,407.045 1384.64,407.045 1386.68,407.045 1388.72,407.045 1390.76,407.045 1392.8,407.045 1394.84,407.045 1396.87,407.045 1398.91,407.045 1400.95,407.045 1402.99,407.045 1405.03,407.045 1407.06,407.045 1409.1,407.045 1411.14,407.045 1413.18,407.045 1415.22,407.045 1417.25,407.045 1419.29,407.045 1421.33,407.045 1423.37,407.045 1425.41,407.045 1427.45,407.045 1429.48,407.045 1431.52,407.045 1433.56,407.045 1435.6,407.045 1437.64,407.045 1439.67,407.045 1441.71,407.045 1443.75,407.045 1445.79,407.045 1447.83,407.045 1449.86,407.045 1451.9,407.045 1453.94,407.045 1455.98,407.045 1458.02,407.045 1460.06,407.045 1462.09,407.045 1464.13,407.045 1466.17,407.045 1468.21,407.045 1470.25,407.045 1472.28,407.045 1474.32,407.045 1476.36,407.045 1478.4,407.045 1480.44,407.045 1482.47,407.045 1484.51,407.045 1486.55,407.045 1488.59,407.045 1490.63,407.045 1492.67,407.045 1494.7,407.045 1496.74,407.045 1498.78,407.045 1500.82,407.045 1502.86,407.045 1504.89,407.045 1506.93,407.045 1508.97,407.045 1511.01,407.045 1513.05,407.045 1515.08,407.045 1517.12,407.045 1519.16,407.045 1521.2,407.045 1523.24,407.045 1525.28,407.045 1527.31,407.045 1529.35,407.045 1531.39,407.045 1533.43,407.045 1535.47,407.045 1537.5,407.045 1539.54,407.045 1541.58,407.045 1543.62,407.045 1545.66,407.045 1547.69,407.045 1549.73,407.045 1551.77,407.045 1553.81,407.045 1555.85,1306.55 1557.89,1306.55 1559.92,1306.55 1561.96,1306.55 1564,1306.55 1566.04,1306.55 1568.08,1306.55 1570.11,1306.55 1572.15,1306.55 1574.19,1306.55 1576.23,1306.55 1578.27,1306.55 1580.3,1306.55 1582.34,1306.55 1584.38,1306.55 1586.42,1306.55 1588.46,1306.55 1590.5,1306.55 1592.53,1306.55 1594.57,1306.55 1596.61,1306.55 1598.65,1306.55 1600.69,1306.55 1602.72,1306.55 1604.76,1306.55 1606.8,1306.55 1608.84,1306.55 1610.88,1306.55 1612.91,1306.55 1614.95,1306.55 1616.99,1306.55 1619.03,1306.55 1621.07,1306.55 1623.11,1306.55 1625.14,1306.55 1627.18,1306.55 1629.22,1306.55 1631.26,1306.55 1633.3,1306.55 1635.33,1306.55 1637.37,1306.55 1639.41,1306.55 1641.45,1306.55 1643.49,1306.55 1645.53,1306.55 1647.56,1306.55 1649.6,1306.55 1651.64,1306.55 1653.68,1306.55 1655.72,1306.55 1657.75,1306.55 1659.79,1306.55 1661.83,1306.55 1663.87,1306.55 1665.91,1306.55 1667.94,1306.55 1669.98,1306.55 1672.02,1306.55 1674.06,1306.55 1676.1,1306.55 1678.14,1306.55 1680.17,1306.55 1682.21,1306.55 1684.25,1306.55 1686.29,1306.55 1688.33,1306.55 1690.36,1306.55 1692.4,1306.55 1694.44,1306.55 1696.48,1306.55 1698.52,1306.55 1700.55,1306.55 1702.59,1306.55 1704.63,1306.55 1706.67,1306.55 1708.71,1306.55 1710.75,1306.55 1712.78,1306.55 1714.82,1306.55 1716.86,1306.55 1718.9,1306.55 1720.94,1306.55 1722.97,1306.55 1725.01,1306.55 1727.05,1306.55 1729.09,1306.55 1731.13,1306.55 1733.16,1306.55 1735.2,1306.55 1737.24,1306.55 1739.28,1306.55 1741.32,1306.55 1743.36,1306.55 1745.39,1306.55 1747.43,1306.55 1749.47,1306.55 1751.51,1306.55 1753.55,1306.55 1755.58,1306.55 1757.62,1306.55 1759.66,1306.55 1761.7,1306.55 1763.74,1306.55 1765.77,1306.55 1767.81,1306.55 1769.85,1306.55 1771.89,1306.55 1773.93,1306.55 1775.97,1306.55 1778,1306.55 1780.04,1306.55 1782.08,1306.55 1784.12,1306.55 1786.16,1306.55 1788.19,1306.55 1790.23,1306.55 1792.27,1306.55 1794.31,1306.55 1796.35,1306.55 1798.38,1306.55 1800.42,1306.55 1802.46,1306.55 1804.5,1306.55 1806.54,1306.55 1808.58,1306.55 1810.61,1306.55 1812.65,1306.55 1814.69,1306.55 1816.73,1306.55 1818.77,1306.55 1820.8,1306.55 1822.84,1306.55 1824.88,1306.55 1826.92,1306.55 1828.96,1306.55 1830.99,1306.55 1833.03,1306.55 1835.07,1306.55 1837.11,1306.55 1839.15,1306.55 1841.19,1306.55 1843.22,1306.55 1845.26,1306.55 1847.3,1306.55 1849.34,1306.55 1851.38,1306.55 1853.41,1306.55 1855.45,1306.55 1857.49,1306.55 1859.53,1306.55 1861.57,1306.55 1863.6,1306.55 1865.64,1306.55 1867.68,1306.55 1869.72,1306.55 1871.76,1306.55 1873.8,1306.55 1875.83,1306.55 1877.87,1306.55 1879.91,1306.55 1881.95,1306.55 1883.99,1306.55 1886.02,1306.55 1888.06,1306.55 1890.1,1306.55 1892.14,1306.55 1894.18,1306.55 1896.21,1306.55 1898.25,1306.55 1900.29,1306.55 1902.33,1306.55 1904.37,1306.55 1906.41,1306.55 1908.44,1306.55 1910.48,1306.55 1912.52,1306.55 1914.56,1306.55 1916.6,1306.55 1918.63,1306.55 1920.67,1306.55 1922.71,1306.55 1924.75,1306.55 1926.79,1306.55 1928.82,1306.55 1930.86,1306.55 1932.9,1306.55 1934.94,1306.55 1936.98,1306.55 1939.02,1306.55 1941.05,1306.55 1943.09,1306.55 1945.13,1306.55 1947.17,1306.55 1949.21,1306.55 1951.24,1306.55 1953.28,1306.55 1955.32,1306.55 1957.36,1306.55 1959.4,1306.55 1961.44,1306.55 1963.47,1306.55 1965.51,1306.55 1967.55,1306.55 1969.59,1306.55 1971.63,1306.55 1973.66,1306.55 1975.7,1306.55 1977.74,1306.55 1979.78,1306.55 1981.82,1306.55 1983.85,1306.55 1985.89,1306.55 1987.93,1306.55 1989.97,1306.55 1992.01,1306.55 1994.05,1306.55 1996.08,1306.55 1998.12,1306.55 2000.16,1306.55 2002.2,1306.55 2004.24,1306.55 2006.27,1306.55 2008.31,1306.55 2010.35,1306.55 2012.39,1306.55 2014.43,1306.55 2016.46,1306.55 2018.5,1306.55 2020.54,1306.55 2022.58,1306.55 2024.62,1306.55 2026.66,1306.55 2028.69,1306.55 2030.73,1306.55 2032.77,1306.55 2034.81,1306.55 2036.85,1306.55 2038.88,1306.55 2040.92,1306.55 2042.96,1306.55 2045,1306.55 2047.04,1306.55 2049.07,1306.55 2051.11,1306.55 2053.15,1306.55 2055.19,1306.55 2057.23,1306.55 2059.27,1306.55 2061.3,1306.55 2063.34,1306.55 2065.38,1306.55 2067.42,1306.55 2069.46,1306.55 2071.49,1306.55 2073.53,1306.55 2075.57,1306.55 2077.61,1306.55 2079.65,1306.55 2081.68,1306.55 2083.72,1306.55 2085.76,1306.55 2087.8,1306.55 2089.84,1306.55 2091.88,1306.55 2093.91,1306.55 2095.95,1306.55 2097.99,1306.55 2100.03,1306.55 2102.07,1306.55 2104.1,1306.55 2106.14,1306.55 2108.18,1306.55 2110.22,1306.55 2112.26,1306.55 2114.29,1306.55 2116.33,1306.55 2118.37,1306.55 2120.41,1306.55 2122.45,1306.55 2124.49,1306.55 2126.52,1306.55 2128.56,1306.55 2130.6,1306.55 2132.64,1306.55 2134.68,1306.55 2136.71,1306.55 2138.75,1306.55 2140.79,1306.55 2142.83,1306.55 2144.87,1306.55 2146.9,1306.55 2148.94,1306.55 2150.98,1306.55 2153.02,1306.55 2155.06,1306.55 2157.1,1306.55 2159.13,1306.55 2161.17,1306.55 2163.21,1306.55 2165.25,1306.55 2167.29,1306.55 2169.32,1306.55 2171.36,1306.55 2173.4,1306.55 2175.44,1306.55 2177.48,1306.55 2179.51,1306.55 2181.55,1306.55 2183.59,1306.55 2185.63,1306.55 2187.67,1306.55 2189.71,1306.55 2191.74,1306.55 2193.78,1306.55 2195.82,1306.55 2197.86,1306.55 2199.9,1306.55 2201.93,1306.55 2203.97,1306.55 2206.01,1306.55 2208.05,1306.55 2210.09,1306.55 2212.12,1306.55 2214.16,1306.55 2216.2,1306.55 2218.24,1306.55 2220.28,1306.55 2222.32,1306.55 2224.35,1306.55 2226.39,1306.55 2228.43,1306.55 2230.47,1306.55 2232.51,1306.55 2234.54,1306.55 2236.58,1306.55 2238.62,1306.55 2240.66,1306.55 2242.7,1306.55 2244.74,1306.55 2246.77,1306.55 2248.81,1306.55 2250.85,1306.55 2252.89,1306.55 2254.93,1306.55 2256.96,1306.55 2259,1306.55 2261.04,1306.55 2263.08,1306.55 2265.12,1306.55 2267.15,1306.55 2269.19,1306.55 2271.23,1306.55 2273.27,1306.55 2275.31,1306.55 2277.35,1306.55 2279.38,1306.55 2281.42,1306.55 2283.46,1306.55 2285.5,1306.55 2287.54,1306.55 2289.57,1306.55 2291.61,1306.55 "/>
<path clip-path="url(#clip050)" d="M1964.84 250.738 L2280.74 250.738 L2280.74 95.2176 L1964.84 95.2176  Z" fill="#ffffff" fill-rule="evenodd" fill-opacity="1"/>
<polyline clip-path="url(#clip050)" style="stroke:#000000; stroke-linecap:round; stroke-linejoin:round; stroke-width:4; stroke-opacity:1; fill:none" points="1964.84,250.738 2280.74,250.738 2280.74,95.2176 1964.84,95.2176 1964.84,250.738 "/>
<circle clip-path="url(#clip050)" cx="2060.86" cy="147.058" r="20.48" fill="#000000" fill-rule="evenodd" fill-opacity="1" stroke="none"/>
<path clip-path="url(#clip050)" d="M2175.79 142.347 L2175.79 128.319 L2180.05 128.319 L2180.05 164.338 L2175.79 164.338 L2175.79 160.449 Q2174.45 162.763 2172.39 163.898 Q2170.35 165.009 2167.48 165.009 Q2162.78 165.009 2159.82 161.259 Q2156.88 157.509 2156.88 151.398 Q2156.88 145.287 2159.82 141.537 Q2162.78 137.787 2167.48 137.787 Q2170.35 137.787 2172.39 138.921 Q2174.45 140.032 2175.79 142.347 M2161.27 151.398 Q2161.27 156.097 2163.2 158.782 Q2165.14 161.444 2168.52 161.444 Q2171.9 161.444 2173.84 158.782 Q2175.79 156.097 2175.79 151.398 Q2175.79 146.699 2173.84 144.037 Q2171.9 141.352 2168.52 141.352 Q2165.14 141.352 2163.2 144.037 Q2161.27 146.699 2161.27 151.398 Z" fill="#000000" fill-rule="nonzero" fill-opacity="1" /><path clip-path="url(#clip050)" d="M2200.6 151.305 Q2195.44 151.305 2193.45 152.486 Q2191.46 153.666 2191.46 156.514 Q2191.46 158.782 2192.94 160.125 Q2194.45 161.444 2197.02 161.444 Q2200.56 161.444 2202.69 158.944 Q2204.84 156.421 2204.84 152.254 L2204.84 151.305 L2200.6 151.305 M2209.1 149.546 L2209.1 164.338 L2204.84 164.338 L2204.84 160.402 Q2203.38 162.763 2201.21 163.898 Q2199.03 165.009 2195.88 165.009 Q2191.9 165.009 2189.54 162.787 Q2187.2 160.541 2187.2 156.791 Q2187.2 152.416 2190.12 150.194 Q2193.06 147.972 2198.87 147.972 L2204.84 147.972 L2204.84 147.555 Q2204.84 144.615 2202.9 143.018 Q2200.97 141.398 2197.48 141.398 Q2195.26 141.398 2193.15 141.93 Q2191.04 142.463 2189.1 143.527 L2189.1 139.592 Q2191.44 138.69 2193.64 138.25 Q2195.83 137.787 2197.92 137.787 Q2203.54 137.787 2206.32 140.703 Q2209.1 143.62 2209.1 149.546 Z" fill="#000000" fill-rule="nonzero" fill-opacity="1" /><path clip-path="url(#clip050)" d="M2222.08 131.051 L2222.08 138.412 L2230.86 138.412 L2230.86 141.722 L2222.08 141.722 L2222.08 155.796 Q2222.08 158.967 2222.94 159.87 Q2223.82 160.773 2226.48 160.773 L2230.86 160.773 L2230.86 164.338 L2226.48 164.338 Q2221.55 164.338 2219.68 162.509 Q2217.8 160.657 2217.8 155.796 L2217.8 141.722 L2214.68 141.722 L2214.68 138.412 L2217.8 138.412 L2217.8 131.051 L2222.08 131.051 Z" fill="#000000" fill-rule="nonzero" fill-opacity="1" /><path clip-path="url(#clip050)" d="M2248.24 151.305 Q2243.08 151.305 2241.09 152.486 Q2239.1 153.666 2239.1 156.514 Q2239.1 158.782 2240.58 160.125 Q2242.08 161.444 2244.65 161.444 Q2248.2 161.444 2250.33 158.944 Q2252.48 156.421 2252.48 152.254 L2252.48 151.305 L2248.24 151.305 M2256.74 149.546 L2256.74 164.338 L2252.48 164.338 L2252.48 160.402 Q2251.02 162.763 2248.84 163.898 Q2246.67 165.009 2243.52 165.009 Q2239.54 165.009 2237.18 162.787 Q2234.84 160.541 2234.84 156.791 Q2234.84 152.416 2237.76 150.194 Q2240.7 147.972 2246.51 147.972 L2252.48 147.972 L2252.48 147.555 Q2252.48 144.615 2250.53 143.018 Q2248.61 141.398 2245.12 141.398 Q2242.89 141.398 2240.79 141.93 Q2238.68 142.463 2236.74 143.527 L2236.74 139.592 Q2239.08 138.69 2241.27 138.25 Q2243.47 137.787 2245.56 137.787 Q2251.18 137.787 2253.96 140.703 Q2256.74 143.62 2256.74 149.546 Z" fill="#000000" fill-rule="nonzero" fill-opacity="1" /><polyline clip-path="url(#clip050)" style="stroke:#e26f46; stroke-linecap:round; stroke-linejoin:round; stroke-width:4; stroke-opacity:1; fill:none" points="1988.84,198.898 2132.87,198.898 "/>
<path clip-path="url(#clip050)" d="M2164.28 182.891 L2164.28 190.252 L2173.06 190.252 L2173.06 193.562 L2164.28 193.562 L2164.28 207.636 Q2164.28 210.807 2165.14 211.71 Q2166.02 212.613 2168.68 212.613 L2173.06 212.613 L2173.06 216.178 L2168.68 216.178 Q2163.75 216.178 2161.88 214.349 Q2160 212.497 2160 207.636 L2160 193.562 L2156.88 193.562 L2156.88 190.252 L2160 190.252 L2160 182.891 L2164.28 182.891 Z" fill="#000000" fill-rule="nonzero" fill-opacity="1" /><path clip-path="url(#clip050)" d="M2193.68 194.233 Q2192.96 193.817 2192.11 193.631 Q2191.27 193.423 2190.26 193.423 Q2186.65 193.423 2184.7 195.784 Q2182.78 198.122 2182.78 202.52 L2182.78 216.178 L2178.5 216.178 L2178.5 190.252 L2182.78 190.252 L2182.78 194.28 Q2184.12 191.918 2186.27 190.784 Q2188.43 189.627 2191.51 189.627 Q2191.95 189.627 2192.48 189.696 Q2193.01 189.743 2193.66 189.858 L2193.68 194.233 Z" fill="#000000" fill-rule="nonzero" fill-opacity="1" /><path clip-path="url(#clip050)" d="M2197.71 205.946 L2197.71 190.252 L2201.97 190.252 L2201.97 205.784 Q2201.97 209.465 2203.4 211.316 Q2204.84 213.145 2207.71 213.145 Q2211.16 213.145 2213.15 210.946 Q2215.16 208.747 2215.16 204.951 L2215.16 190.252 L2219.42 190.252 L2219.42 216.178 L2215.16 216.178 L2215.16 212.196 Q2213.61 214.557 2211.55 215.715 Q2209.52 216.849 2206.81 216.849 Q2202.34 216.849 2200.02 214.071 Q2197.71 211.293 2197.71 205.946 M2208.43 189.627 L2208.43 189.627 Z" fill="#000000" fill-rule="nonzero" fill-opacity="1" /><path clip-path="url(#clip050)" d="M2250.37 202.15 L2250.37 204.233 L2230.79 204.233 Q2231.07 208.631 2233.43 210.946 Q2235.81 213.238 2240.05 213.238 Q2242.5 213.238 2244.79 212.636 Q2247.11 212.034 2249.38 210.83 L2249.38 214.858 Q2247.08 215.83 2244.68 216.34 Q2242.27 216.849 2239.79 216.849 Q2233.59 216.849 2229.96 213.238 Q2226.34 209.627 2226.34 203.469 Q2226.34 197.104 2229.77 193.377 Q2233.22 189.627 2239.05 189.627 Q2244.28 189.627 2247.32 193.006 Q2250.37 196.363 2250.37 202.15 M2246.11 200.9 Q2246.07 197.405 2244.14 195.321 Q2242.25 193.238 2239.1 193.238 Q2235.53 193.238 2233.38 195.252 Q2231.25 197.266 2230.93 200.923 L2246.11 200.9 Z" fill="#000000" fill-rule="nonzero" fill-opacity="1" /></svg>
