<?xml version="1.0" encoding="utf-8"?>
<svg xmlns="http://www.w3.org/2000/svg" xmlns:xlink="http://www.w3.org/1999/xlink" width="600" height="400" viewBox="0 0 2400 1600">
<defs>
  <clipPath id="clip910">
    <rect x="0" y="0" width="2400" height="1600"/>
  </clipPath>
</defs>
<path clip-path="url(#clip910)" d="M0 1600 L2400 1600 L2400 0 L0 0  Z" fill="#ffffff" fill-rule="evenodd" fill-opacity="1"/>
<defs>
  <clipPath id="clip911">
    <rect x="192" y="47" width="2161" height="1440"/>
  </clipPath>
</defs>
<path clip-path="url(#clip910)" d="M192.339 1486.45 L2352.76 1486.45 L2352.76 47.2441 L192.339 47.2441  Z" fill="#ffffff" fill-rule="evenodd" fill-opacity="1"/>
<polyline clip-path="url(#clip911)" style="stroke:#000000; stroke-linecap:round; stroke-linejoin:round; stroke-width:2; stroke-opacity:0.1; fill:none" points="423.327,1486.45 423.327,47.2441 "/>
<polyline clip-path="url(#clip911)" style="stroke:#000000; stroke-linecap:round; stroke-linejoin:round; stroke-width:2; stroke-opacity:0.1; fill:none" points="989.474,1486.45 989.474,47.2441 "/>
<polyline clip-path="url(#clip911)" style="stroke:#000000; stroke-linecap:round; stroke-linejoin:round; stroke-width:2; stroke-opacity:0.1; fill:none" points="1555.62,1486.45 1555.62,47.2441 "/>
<polyline clip-path="url(#clip911)" style="stroke:#000000; stroke-linecap:round; stroke-linejoin:round; stroke-width:2; stroke-opacity:0.1; fill:none" points="2121.77,1486.45 2121.77,47.2441 "/>
<polyline clip-path="url(#clip911)" style="stroke:#000000; stroke-linecap:round; stroke-linejoin:round; stroke-width:2; stroke-opacity:0.1; fill:none" points="192.339,1486.45 2352.76,1486.45 "/>
<polyline clip-path="url(#clip911)" style="stroke:#000000; stroke-linecap:round; stroke-linejoin:round; stroke-width:2; stroke-opacity:0.1; fill:none" points="192.339,1306.55 2352.76,1306.55 "/>
<polyline clip-path="url(#clip911)" style="stroke:#000000; stroke-linecap:round; stroke-linejoin:round; stroke-width:2; stroke-opacity:0.1; fill:none" points="192.339,1126.65 2352.76,1126.65 "/>
<polyline clip-path="url(#clip911)" style="stroke:#000000; stroke-linecap:round; stroke-linejoin:round; stroke-width:2; stroke-opacity:0.1; fill:none" points="192.339,946.746 2352.76,946.746 "/>
<polyline clip-path="url(#clip911)" style="stroke:#000000; stroke-linecap:round; stroke-linejoin:round; stroke-width:2; stroke-opacity:0.1; fill:none" points="192.339,766.846 2352.76,766.846 "/>
<polyline clip-path="url(#clip911)" style="stroke:#000000; stroke-linecap:round; stroke-linejoin:round; stroke-width:2; stroke-opacity:0.1; fill:none" points="192.339,586.946 2352.76,586.946 "/>
<polyline clip-path="url(#clip911)" style="stroke:#000000; stroke-linecap:round; stroke-linejoin:round; stroke-width:2; stroke-opacity:0.1; fill:none" points="192.339,407.045 2352.76,407.045 "/>
<polyline clip-path="url(#clip911)" style="stroke:#000000; stroke-linecap:round; stroke-linejoin:round; stroke-width:2; stroke-opacity:0.1; fill:none" points="192.339,227.145 2352.76,227.145 "/>
<polyline clip-path="url(#clip911)" style="stroke:#000000; stroke-linecap:round; stroke-linejoin:round; stroke-width:2; stroke-opacity:0.1; fill:none" points="192.339,47.2441 2352.76,47.2441 "/>
<polyline clip-path="url(#clip910)" style="stroke:#000000; stroke-linecap:round; stroke-linejoin:round; stroke-width:4; stroke-opacity:1; fill:none" points="192.339,1486.45 2352.76,1486.45 "/>
<polyline clip-path="url(#clip910)" style="stroke:#000000; stroke-linecap:round; stroke-linejoin:round; stroke-width:4; stroke-opacity:1; fill:none" points="423.327,1486.45 423.327,1467.55 "/>
<polyline clip-path="url(#clip910)" style="stroke:#000000; stroke-linecap:round; stroke-linejoin:round; stroke-width:4; stroke-opacity:1; fill:none" points="989.474,1486.45 989.474,1467.55 "/>
<polyline clip-path="url(#clip910)" style="stroke:#000000; stroke-linecap:round; stroke-linejoin:round; stroke-width:4; stroke-opacity:1; fill:none" points="1555.62,1486.45 1555.62,1467.55 "/>
<polyline clip-path="url(#clip910)" style="stroke:#000000; stroke-linecap:round; stroke-linejoin:round; stroke-width:4; stroke-opacity:1; fill:none" points="2121.77,1486.45 2121.77,1467.55 "/>
<path clip-path="url(#clip910)" d="M423.327 1517.37 Q419.716 1517.37 417.887 1520.93 Q416.081 1524.47 416.081 1531.6 Q416.081 1538.71 417.887 1542.27 Q419.716 1545.82 423.327 1545.82 Q426.961 1545.82 428.767 1542.27 Q430.595 1538.71 430.595 1531.6 Q430.595 1524.47 428.767 1520.93 Q426.961 1517.37 423.327 1517.37 M423.327 1513.66 Q429.137 1513.66 432.192 1518.27 Q435.271 1522.85 435.271 1531.6 Q435.271 1540.33 432.192 1544.94 Q429.137 1549.52 423.327 1549.52 Q417.517 1549.52 414.438 1544.94 Q411.382 1540.33 411.382 1531.6 Q411.382 1522.85 414.438 1518.27 Q417.517 1513.66 423.327 1513.66 Z" fill="#000000" fill-rule="nonzero" fill-opacity="1" /><path clip-path="url(#clip910)" d="M979.856 1544.91 L987.495 1544.91 L987.495 1518.55 L979.185 1520.21 L979.185 1515.95 L987.448 1514.29 L992.124 1514.29 L992.124 1544.91 L999.763 1544.91 L999.763 1548.85 L979.856 1548.85 L979.856 1544.91 Z" fill="#000000" fill-rule="nonzero" fill-opacity="1" /><path clip-path="url(#clip910)" d="M1550.27 1544.91 L1566.59 1544.91 L1566.59 1548.85 L1544.65 1548.85 L1544.65 1544.91 Q1547.31 1542.16 1551.89 1537.53 Q1556.5 1532.88 1557.68 1531.53 Q1559.93 1529.01 1560.81 1527.27 Q1561.71 1525.51 1561.71 1523.82 Q1561.71 1521.07 1559.76 1519.33 Q1557.84 1517.6 1554.74 1517.6 Q1552.54 1517.6 1550.09 1518.36 Q1547.66 1519.13 1544.88 1520.68 L1544.88 1515.95 Q1547.7 1514.82 1550.16 1514.24 Q1552.61 1513.66 1554.65 1513.66 Q1560.02 1513.66 1563.21 1516.35 Q1566.41 1519.03 1566.41 1523.52 Q1566.41 1525.65 1565.6 1527.57 Q1564.81 1529.47 1562.7 1532.07 Q1562.13 1532.74 1559.02 1535.95 Q1555.92 1539.15 1550.27 1544.91 Z" fill="#000000" fill-rule="nonzero" fill-opacity="1" /><path clip-path="url(#clip910)" d="M2126.02 1530.21 Q2129.37 1530.93 2131.25 1533.2 Q2133.15 1535.47 2133.15 1538.8 Q2133.15 1543.92 2129.63 1546.72 Q2126.11 1549.52 2119.63 1549.52 Q2117.45 1549.52 2115.14 1549.08 Q2112.84 1548.66 2110.39 1547.81 L2110.39 1543.29 Q2112.34 1544.43 2114.65 1545.01 Q2116.96 1545.58 2119.49 1545.58 Q2123.89 1545.58 2126.18 1543.85 Q2128.49 1542.11 2128.49 1538.8 Q2128.49 1535.75 2126.34 1534.03 Q2124.21 1532.3 2120.39 1532.3 L2116.36 1532.3 L2116.36 1528.45 L2120.58 1528.45 Q2124.02 1528.45 2125.85 1527.09 Q2127.68 1525.7 2127.68 1523.11 Q2127.68 1520.45 2125.78 1519.03 Q2123.91 1517.6 2120.39 1517.6 Q2118.47 1517.6 2116.27 1518.01 Q2114.07 1518.43 2111.43 1519.31 L2111.43 1515.14 Q2114.09 1514.4 2116.41 1514.03 Q2118.75 1513.66 2120.81 1513.66 Q2126.13 1513.66 2129.23 1516.09 Q2132.33 1518.5 2132.33 1522.62 Q2132.33 1525.49 2130.69 1527.48 Q2129.05 1529.45 2126.02 1530.21 Z" fill="#000000" fill-rule="nonzero" fill-opacity="1" /><polyline clip-path="url(#clip910)" style="stroke:#000000; stroke-linecap:round; stroke-linejoin:round; stroke-width:4; stroke-opacity:1; fill:none" points="192.339,1486.45 192.339,47.2441 "/>
<polyline clip-path="url(#clip910)" style="stroke:#000000; stroke-linecap:round; stroke-linejoin:round; stroke-width:4; stroke-opacity:1; fill:none" points="192.339,1486.45 211.236,1486.45 "/>
<polyline clip-path="url(#clip910)" style="stroke:#000000; stroke-linecap:round; stroke-linejoin:round; stroke-width:4; stroke-opacity:1; fill:none" points="192.339,1306.55 211.236,1306.55 "/>
<polyline clip-path="url(#clip910)" style="stroke:#000000; stroke-linecap:round; stroke-linejoin:round; stroke-width:4; stroke-opacity:1; fill:none" points="192.339,1126.65 211.236,1126.65 "/>
<polyline clip-path="url(#clip910)" style="stroke:#000000; stroke-linecap:round; stroke-linejoin:round; stroke-width:4; stroke-opacity:1; fill:none" points="192.339,946.746 211.236,946.746 "/>
<polyline clip-path="url(#clip910)" style="stroke:#000000; stroke-linecap:round; stroke-linejoin:round; stroke-width:4; stroke-opacity:1; fill:none" points="192.339,766.846 211.236,766.846 "/>
<polyline clip-path="url(#clip910)" style="stroke:#000000; stroke-linecap:round; stroke-linejoin:round; stroke-width:4; stroke-opacity:1; fill:none" points="192.339,586.946 211.236,586.946 "/>
<polyline clip-path="url(#clip910)" style="stroke:#000000; stroke-linecap:round; stroke-linejoin:round; stroke-width:4; stroke-opacity:1; fill:none" points="192.339,407.045 211.236,407.045 "/>
<polyline clip-path="url(#clip910)" style="stroke:#000000; stroke-linecap:round; stroke-linejoin:round; stroke-width:4; stroke-opacity:1; fill:none" points="192.339,227.145 211.236,227.145 "/>
<polyline clip-path="url(#clip910)" style="stroke:#000000; stroke-linecap:round; stroke-linejoin:round; stroke-width:4; stroke-opacity:1; fill:none" points="192.339,47.2441 211.236,47.2441 "/>
<path clip-path="url(#clip910)" d="M50.9921 1486.9 L80.6679 1486.9 L80.6679 1490.83 L50.9921 1490.83 L50.9921 1486.9 Z" fill="#000000" fill-rule="nonzero" fill-opacity="1" /><path clip-path="url(#clip910)" d="M100.76 1472.25 Q97.1493 1472.25 95.3206 1475.81 Q93.515 1479.35 93.515 1486.48 Q93.515 1493.59 95.3206 1497.15 Q97.1493 1500.7 100.76 1500.7 Q104.395 1500.7 106.2 1497.15 Q108.029 1493.59 108.029 1486.48 Q108.029 1479.35 106.2 1475.81 Q104.395 1472.25 100.76 1472.25 M100.76 1468.54 Q106.571 1468.54 109.626 1473.15 Q112.705 1477.73 112.705 1486.48 Q112.705 1495.21 109.626 1499.82 Q106.571 1504.4 100.76 1504.4 Q94.9502 1504.4 91.8715 1499.82 Q88.816 1495.21 88.816 1486.48 Q88.816 1477.73 91.8715 1473.15 Q94.9502 1468.54 100.76 1468.54 Z" fill="#000000" fill-rule="nonzero" fill-opacity="1" /><path clip-path="url(#clip910)" d="M120.922 1497.85 L125.807 1497.85 L125.807 1503.73 L120.922 1503.73 L120.922 1497.85 Z" fill="#000000" fill-rule="nonzero" fill-opacity="1" /><path clip-path="url(#clip910)" d="M140.019 1499.79 L156.339 1499.79 L156.339 1503.73 L134.394 1503.73 L134.394 1499.79 Q137.056 1497.04 141.64 1492.41 Q146.246 1487.76 147.427 1486.41 Q149.672 1483.89 150.552 1482.15 Q151.455 1480.39 151.455 1478.7 Q151.455 1475.95 149.51 1474.21 Q147.589 1472.48 144.487 1472.48 Q142.288 1472.48 139.834 1473.24 Q137.404 1474.01 134.626 1475.56 L134.626 1470.83 Q137.45 1469.7 139.904 1469.12 Q142.357 1468.54 144.394 1468.54 Q149.765 1468.54 152.959 1471.23 Q156.154 1473.91 156.154 1478.4 Q156.154 1480.53 155.343 1482.45 Q154.556 1484.35 152.45 1486.95 Q151.871 1487.62 148.769 1490.83 Q145.668 1494.03 140.019 1499.79 Z" fill="#000000" fill-rule="nonzero" fill-opacity="1" /><path clip-path="url(#clip910)" d="M99.1632 1292.35 Q95.5521 1292.35 93.7234 1295.91 Q91.9178 1299.45 91.9178 1306.58 Q91.9178 1313.69 93.7234 1317.25 Q95.5521 1320.8 99.1632 1320.8 Q102.797 1320.8 104.603 1317.25 Q106.432 1313.69 106.432 1306.58 Q106.432 1299.45 104.603 1295.91 Q102.797 1292.35 99.1632 1292.35 M99.1632 1288.64 Q104.973 1288.64 108.029 1293.25 Q111.108 1297.83 111.108 1306.58 Q111.108 1315.31 108.029 1319.92 Q104.973 1324.5 99.1632 1324.5 Q93.353 1324.5 90.2743 1319.92 Q87.2188 1315.31 87.2188 1306.58 Q87.2188 1297.83 90.2743 1293.25 Q93.353 1288.64 99.1632 1288.64 Z" fill="#000000" fill-rule="nonzero" fill-opacity="1" /><path clip-path="url(#clip910)" d="M119.325 1317.95 L124.209 1317.95 L124.209 1323.83 L119.325 1323.83 L119.325 1317.95 Z" fill="#000000" fill-rule="nonzero" fill-opacity="1" /><path clip-path="url(#clip910)" d="M144.394 1292.35 Q140.783 1292.35 138.955 1295.91 Q137.149 1299.45 137.149 1306.58 Q137.149 1313.69 138.955 1317.25 Q140.783 1320.8 144.394 1320.8 Q148.029 1320.8 149.834 1317.25 Q151.663 1313.69 151.663 1306.58 Q151.663 1299.45 149.834 1295.91 Q148.029 1292.35 144.394 1292.35 M144.394 1288.64 Q150.205 1288.64 153.26 1293.25 Q156.339 1297.83 156.339 1306.58 Q156.339 1315.31 153.26 1319.92 Q150.205 1324.5 144.394 1324.5 Q138.584 1324.5 135.506 1319.92 Q132.45 1315.31 132.45 1306.58 Q132.45 1297.83 135.506 1293.25 Q138.584 1288.64 144.394 1288.64 Z" fill="#000000" fill-rule="nonzero" fill-opacity="1" /><path clip-path="url(#clip910)" d="M100.76 1112.45 Q97.1493 1112.45 95.3206 1116.01 Q93.515 1119.55 93.515 1126.68 Q93.515 1133.79 95.3206 1137.35 Q97.1493 1140.89 100.76 1140.89 Q104.395 1140.89 106.2 1137.35 Q108.029 1133.79 108.029 1126.68 Q108.029 1119.55 106.2 1116.01 Q104.395 1112.45 100.76 1112.45 M100.76 1108.74 Q106.571 1108.74 109.626 1113.35 Q112.705 1117.93 112.705 1126.68 Q112.705 1135.41 109.626 1140.01 Q106.571 1144.6 100.76 1144.6 Q94.9502 1144.6 91.8715 1140.01 Q88.816 1135.41 88.816 1126.68 Q88.816 1117.93 91.8715 1113.35 Q94.9502 1108.74 100.76 1108.74 Z" fill="#000000" fill-rule="nonzero" fill-opacity="1" /><path clip-path="url(#clip910)" d="M120.922 1138.05 L125.807 1138.05 L125.807 1143.93 L120.922 1143.93 L120.922 1138.05 Z" fill="#000000" fill-rule="nonzero" fill-opacity="1" /><path clip-path="url(#clip910)" d="M140.019 1139.99 L156.339 1139.99 L156.339 1143.93 L134.394 1143.93 L134.394 1139.99 Q137.056 1137.24 141.64 1132.61 Q146.246 1127.95 147.427 1126.61 Q149.672 1124.09 150.552 1122.35 Q151.455 1120.59 151.455 1118.9 Q151.455 1116.15 149.51 1114.41 Q147.589 1112.68 144.487 1112.68 Q142.288 1112.68 139.834 1113.44 Q137.404 1114.2 134.626 1115.76 L134.626 1111.03 Q137.45 1109.9 139.904 1109.32 Q142.357 1108.74 144.394 1108.74 Q149.765 1108.74 152.959 1111.43 Q156.154 1114.11 156.154 1118.6 Q156.154 1120.73 155.343 1122.65 Q154.556 1124.55 152.45 1127.14 Q151.871 1127.82 148.769 1131.03 Q145.668 1134.23 140.019 1139.99 Z" fill="#000000" fill-rule="nonzero" fill-opacity="1" /><path clip-path="url(#clip910)" d="M98.6771 932.545 Q95.066 932.545 93.2373 936.11 Q91.4317 939.652 91.4317 946.781 Q91.4317 953.888 93.2373 957.452 Q95.066 960.994 98.6771 960.994 Q102.311 960.994 104.117 957.452 Q105.946 953.888 105.946 946.781 Q105.946 939.652 104.117 936.11 Q102.311 932.545 98.6771 932.545 M98.6771 928.841 Q104.487 928.841 107.543 933.448 Q110.621 938.031 110.621 946.781 Q110.621 955.508 107.543 960.114 Q104.487 964.698 98.6771 964.698 Q92.8669 964.698 89.7882 960.114 Q86.7327 955.508 86.7327 946.781 Q86.7327 938.031 89.7882 933.448 Q92.8669 928.841 98.6771 928.841 Z" fill="#000000" fill-rule="nonzero" fill-opacity="1" /><path clip-path="url(#clip910)" d="M118.839 958.147 L123.723 958.147 L123.723 964.026 L118.839 964.026 L118.839 958.147 Z" fill="#000000" fill-rule="nonzero" fill-opacity="1" /><path clip-path="url(#clip910)" d="M146.756 933.541 L134.95 951.989 L146.756 951.989 L146.756 933.541 M145.529 929.466 L151.408 929.466 L151.408 951.989 L156.339 951.989 L156.339 955.878 L151.408 955.878 L151.408 964.026 L146.756 964.026 L146.756 955.878 L131.154 955.878 L131.154 951.364 L145.529 929.466 Z" fill="#000000" fill-rule="nonzero" fill-opacity="1" /><path clip-path="url(#clip910)" d="M99.0011 752.645 Q95.39 752.645 93.5613 756.209 Q91.7558 759.751 91.7558 766.881 Q91.7558 773.987 93.5613 777.552 Q95.39 781.094 99.0011 781.094 Q102.635 781.094 104.441 777.552 Q106.27 773.987 106.27 766.881 Q106.27 759.751 104.441 756.209 Q102.635 752.645 99.0011 752.645 M99.0011 748.941 Q104.811 748.941 107.867 753.547 Q110.946 758.131 110.946 766.881 Q110.946 775.608 107.867 780.214 Q104.811 784.797 99.0011 784.797 Q93.191 784.797 90.1123 780.214 Q87.0567 775.608 87.0567 766.881 Q87.0567 758.131 90.1123 753.547 Q93.191 748.941 99.0011 748.941 Z" fill="#000000" fill-rule="nonzero" fill-opacity="1" /><path clip-path="url(#clip910)" d="M119.163 778.246 L124.047 778.246 L124.047 784.126 L119.163 784.126 L119.163 778.246 Z" fill="#000000" fill-rule="nonzero" fill-opacity="1" /><path clip-path="url(#clip910)" d="M144.811 764.983 Q141.663 764.983 139.811 767.135 Q137.982 769.288 137.982 773.038 Q137.982 776.765 139.811 778.941 Q141.663 781.094 144.811 781.094 Q147.959 781.094 149.788 778.941 Q151.64 776.765 151.64 773.038 Q151.64 769.288 149.788 767.135 Q147.959 764.983 144.811 764.983 M154.093 750.33 L154.093 754.589 Q152.334 753.756 150.529 753.316 Q148.746 752.876 146.987 752.876 Q142.357 752.876 139.904 756.001 Q137.473 759.126 137.126 765.446 Q138.492 763.432 140.552 762.367 Q142.612 761.279 145.089 761.279 Q150.297 761.279 153.306 764.45 Q156.339 767.598 156.339 773.038 Q156.339 778.362 153.191 781.58 Q150.043 784.797 144.811 784.797 Q138.816 784.797 135.644 780.214 Q132.473 775.608 132.473 766.881 Q132.473 758.686 136.362 753.825 Q140.251 748.941 146.802 748.941 Q148.561 748.941 150.343 749.288 Q152.149 749.635 154.093 750.33 Z" fill="#000000" fill-rule="nonzero" fill-opacity="1" /><path clip-path="url(#clip910)" d="M99.2558 572.744 Q95.6447 572.744 93.816 576.309 Q92.0104 579.851 92.0104 586.98 Q92.0104 594.087 93.816 597.651 Q95.6447 601.193 99.2558 601.193 Q102.89 601.193 104.696 597.651 Q106.524 594.087 106.524 586.98 Q106.524 579.851 104.696 576.309 Q102.89 572.744 99.2558 572.744 M99.2558 569.041 Q105.066 569.041 108.121 573.647 Q111.2 578.23 111.2 586.98 Q111.2 595.707 108.121 600.313 Q105.066 604.897 99.2558 604.897 Q93.4456 604.897 90.3669 600.313 Q87.3114 595.707 87.3114 586.98 Q87.3114 578.23 90.3669 573.647 Q93.4456 569.041 99.2558 569.041 Z" fill="#000000" fill-rule="nonzero" fill-opacity="1" /><path clip-path="url(#clip910)" d="M119.418 598.346 L124.302 598.346 L124.302 604.226 L119.418 604.226 L119.418 598.346 Z" fill="#000000" fill-rule="nonzero" fill-opacity="1" /><path clip-path="url(#clip910)" d="M144.487 587.814 Q141.154 587.814 139.232 589.596 Q137.334 591.378 137.334 594.503 Q137.334 597.628 139.232 599.411 Q141.154 601.193 144.487 601.193 Q147.82 601.193 149.742 599.411 Q151.663 597.605 151.663 594.503 Q151.663 591.378 149.742 589.596 Q147.843 587.814 144.487 587.814 M139.811 585.823 Q136.802 585.082 135.112 583.022 Q133.445 580.962 133.445 577.999 Q133.445 573.855 136.385 571.448 Q139.348 569.041 144.487 569.041 Q149.649 569.041 152.589 571.448 Q155.529 573.855 155.529 577.999 Q155.529 580.962 153.839 583.022 Q152.172 585.082 149.186 585.823 Q152.566 586.61 154.441 588.902 Q156.339 591.193 156.339 594.503 Q156.339 599.526 153.26 602.212 Q150.205 604.897 144.487 604.897 Q138.769 604.897 135.691 602.212 Q132.635 599.526 132.635 594.503 Q132.635 591.193 134.533 588.902 Q136.431 586.61 139.811 585.823 M138.098 578.439 Q138.098 581.124 139.765 582.628 Q141.455 584.133 144.487 584.133 Q147.496 584.133 149.186 582.628 Q150.899 581.124 150.899 578.439 Q150.899 575.753 149.186 574.249 Q147.496 572.744 144.487 572.744 Q141.455 572.744 139.765 574.249 Q138.098 575.753 138.098 578.439 Z" fill="#000000" fill-rule="nonzero" fill-opacity="1" /><path clip-path="url(#clip910)" d="M89.9734 420.39 L97.6122 420.39 L97.6122 394.024 L89.3021 395.691 L89.3021 391.432 L97.566 389.765 L102.242 389.765 L102.242 420.39 L109.881 420.39 L109.881 424.325 L89.9734 424.325 L89.9734 420.39 Z" fill="#000000" fill-rule="nonzero" fill-opacity="1" /><path clip-path="url(#clip910)" d="M119.325 418.445 L124.209 418.445 L124.209 424.325 L119.325 424.325 L119.325 418.445 Z" fill="#000000" fill-rule="nonzero" fill-opacity="1" /><path clip-path="url(#clip910)" d="M144.394 392.844 Q140.783 392.844 138.955 396.409 Q137.149 399.95 137.149 407.08 Q137.149 414.186 138.955 417.751 Q140.783 421.293 144.394 421.293 Q148.029 421.293 149.834 417.751 Q151.663 414.186 151.663 407.08 Q151.663 399.95 149.834 396.409 Q148.029 392.844 144.394 392.844 M144.394 389.14 Q150.205 389.14 153.26 393.746 Q156.339 398.33 156.339 407.08 Q156.339 415.807 153.26 420.413 Q150.205 424.996 144.394 424.996 Q138.584 424.996 135.506 420.413 Q132.45 415.807 132.45 407.08 Q132.45 398.33 135.506 393.746 Q138.584 389.14 144.394 389.14 Z" fill="#000000" fill-rule="nonzero" fill-opacity="1" /><path clip-path="url(#clip910)" d="M91.5706 240.489 L99.2095 240.489 L99.2095 214.124 L90.8993 215.79 L90.8993 211.531 L99.1632 209.865 L103.839 209.865 L103.839 240.489 L111.478 240.489 L111.478 244.425 L91.5706 244.425 L91.5706 240.489 Z" fill="#000000" fill-rule="nonzero" fill-opacity="1" /><path clip-path="url(#clip910)" d="M120.922 238.545 L125.807 238.545 L125.807 244.425 L120.922 244.425 L120.922 238.545 Z" fill="#000000" fill-rule="nonzero" fill-opacity="1" /><path clip-path="url(#clip910)" d="M140.019 240.489 L156.339 240.489 L156.339 244.425 L134.394 244.425 L134.394 240.489 Q137.056 237.735 141.64 233.105 Q146.246 228.452 147.427 227.11 Q149.672 224.587 150.552 222.851 Q151.455 221.091 151.455 219.402 Q151.455 216.647 149.51 214.911 Q147.589 213.175 144.487 213.175 Q142.288 213.175 139.834 213.939 Q137.404 214.703 134.626 216.253 L134.626 211.531 Q137.45 210.397 139.904 209.818 Q142.357 209.24 144.394 209.24 Q149.765 209.24 152.959 211.925 Q156.154 214.61 156.154 219.101 Q156.154 221.23 155.343 223.152 Q154.556 225.05 152.45 227.642 Q151.871 228.314 148.769 231.531 Q145.668 234.726 140.019 240.489 Z" fill="#000000" fill-rule="nonzero" fill-opacity="1" /><path clip-path="url(#clip910)" d="M89.4873 60.5889 L97.1261 60.5889 L97.1261 34.2233 L88.816 35.89 L88.816 31.6308 L97.0798 29.9641 L101.756 29.9641 L101.756 60.5889 L109.395 60.5889 L109.395 64.5241 L89.4873 64.5241 L89.4873 60.5889 Z" fill="#000000" fill-rule="nonzero" fill-opacity="1" /><path clip-path="url(#clip910)" d="M118.839 58.6445 L123.723 58.6445 L123.723 64.5241 L118.839 64.5241 L118.839 58.6445 Z" fill="#000000" fill-rule="nonzero" fill-opacity="1" /><path clip-path="url(#clip910)" d="M146.756 34.0381 L134.95 52.4871 L146.756 52.4871 L146.756 34.0381 M145.529 29.9641 L151.408 29.9641 L151.408 52.4871 L156.339 52.4871 L156.339 56.376 L151.408 56.376 L151.408 64.5241 L146.756 64.5241 L146.756 56.376 L131.154 56.376 L131.154 51.8621 L145.529 29.9641 Z" fill="#000000" fill-rule="nonzero" fill-opacity="1" /><circle clip-path="url(#clip911)" cx="466.877" cy="1306.55" r="14.4" fill="#000000" fill-rule="evenodd" fill-opacity="1" stroke="none"/>
<circle clip-path="url(#clip911)" cx="473.682" cy="1306.55" r="14.4" fill="#000000" fill-rule="evenodd" fill-opacity="1" stroke="none"/>
<circle clip-path="url(#clip911)" cx="491.525" cy="1306.55" r="14.4" fill="#000000" fill-rule="evenodd" fill-opacity="1" stroke="none"/>
<circle clip-path="url(#clip911)" cx="497.964" cy="1306.55" r="14.4" fill="#000000" fill-rule="evenodd" fill-opacity="1" stroke="none"/>
<circle clip-path="url(#clip911)" cx="564.578" cy="1306.55" r="14.4" fill="#000000" fill-rule="evenodd" fill-opacity="1" stroke="none"/>
<circle clip-path="url(#clip911)" cx="571.001" cy="1306.55" r="14.4" fill="#000000" fill-rule="evenodd" fill-opacity="1" stroke="none"/>
<circle clip-path="url(#clip911)" cx="587.485" cy="1306.55" r="14.4" fill="#000000" fill-rule="evenodd" fill-opacity="1" stroke="none"/>
<circle clip-path="url(#clip911)" cx="592.726" cy="1306.55" r="14.4" fill="#000000" fill-rule="evenodd" fill-opacity="1" stroke="none"/>
<circle clip-path="url(#clip911)" cx="594.441" cy="1306.55" r="14.4" fill="#000000" fill-rule="evenodd" fill-opacity="1" stroke="none"/>
<circle clip-path="url(#clip911)" cx="595.108" cy="1306.55" r="14.4" fill="#000000" fill-rule="evenodd" fill-opacity="1" stroke="none"/>
<circle clip-path="url(#clip911)" cx="608.992" cy="1306.55" r="14.4" fill="#000000" fill-rule="evenodd" fill-opacity="1" stroke="none"/>
<circle clip-path="url(#clip911)" cx="618.417" cy="1306.55" r="14.4" fill="#000000" fill-rule="evenodd" fill-opacity="1" stroke="none"/>
<circle clip-path="url(#clip911)" cx="622.026" cy="1306.55" r="14.4" fill="#000000" fill-rule="evenodd" fill-opacity="1" stroke="none"/>
<circle clip-path="url(#clip911)" cx="622.609" cy="1306.55" r="14.4" fill="#000000" fill-rule="evenodd" fill-opacity="1" stroke="none"/>
<circle clip-path="url(#clip911)" cx="632.37" cy="1306.55" r="14.4" fill="#000000" fill-rule="evenodd" fill-opacity="1" stroke="none"/>
<circle clip-path="url(#clip911)" cx="644.042" cy="1306.55" r="14.4" fill="#000000" fill-rule="evenodd" fill-opacity="1" stroke="none"/>
<circle clip-path="url(#clip911)" cx="676.816" cy="1306.55" r="14.4" fill="#000000" fill-rule="evenodd" fill-opacity="1" stroke="none"/>
<circle clip-path="url(#clip911)" cx="699.711" cy="1306.55" r="14.4" fill="#000000" fill-rule="evenodd" fill-opacity="1" stroke="none"/>
<circle clip-path="url(#clip911)" cx="726.291" cy="1306.55" r="14.4" fill="#000000" fill-rule="evenodd" fill-opacity="1" stroke="none"/>
<circle clip-path="url(#clip911)" cx="751.62" cy="1306.55" r="14.4" fill="#000000" fill-rule="evenodd" fill-opacity="1" stroke="none"/>
<circle clip-path="url(#clip911)" cx="787.353" cy="1306.55" r="14.4" fill="#000000" fill-rule="evenodd" fill-opacity="1" stroke="none"/>
<circle clip-path="url(#clip911)" cx="799.343" cy="1306.55" r="14.4" fill="#000000" fill-rule="evenodd" fill-opacity="1" stroke="none"/>
<circle clip-path="url(#clip911)" cx="803.392" cy="1306.55" r="14.4" fill="#000000" fill-rule="evenodd" fill-opacity="1" stroke="none"/>
<circle clip-path="url(#clip911)" cx="814.204" cy="1306.55" r="14.4" fill="#000000" fill-rule="evenodd" fill-opacity="1" stroke="none"/>
<circle clip-path="url(#clip911)" cx="820.13" cy="1306.55" r="14.4" fill="#000000" fill-rule="evenodd" fill-opacity="1" stroke="none"/>
<circle clip-path="url(#clip911)" cx="823.685" cy="1306.55" r="14.4" fill="#000000" fill-rule="evenodd" fill-opacity="1" stroke="none"/>
<circle clip-path="url(#clip911)" cx="830.832" cy="1306.55" r="14.4" fill="#000000" fill-rule="evenodd" fill-opacity="1" stroke="none"/>
<circle clip-path="url(#clip911)" cx="861.41" cy="1306.55" r="14.4" fill="#000000" fill-rule="evenodd" fill-opacity="1" stroke="none"/>
<circle clip-path="url(#clip911)" cx="879.897" cy="1306.55" r="14.4" fill="#000000" fill-rule="evenodd" fill-opacity="1" stroke="none"/>
<circle clip-path="url(#clip911)" cx="940.441" cy="1306.55" r="14.4" fill="#000000" fill-rule="evenodd" fill-opacity="1" stroke="none"/>
<circle clip-path="url(#clip911)" cx="953.55" cy="1306.55" r="14.4" fill="#000000" fill-rule="evenodd" fill-opacity="1" stroke="none"/>
<circle clip-path="url(#clip911)" cx="982.684" cy="1306.55" r="14.4" fill="#000000" fill-rule="evenodd" fill-opacity="1" stroke="none"/>
<circle clip-path="url(#clip911)" cx="1010.82" cy="407.045" r="14.4" fill="#000000" fill-rule="evenodd" fill-opacity="1" stroke="none"/>
<circle clip-path="url(#clip911)" cx="1020.17" cy="407.045" r="14.4" fill="#000000" fill-rule="evenodd" fill-opacity="1" stroke="none"/>
<circle clip-path="url(#clip911)" cx="1020.31" cy="407.045" r="14.4" fill="#000000" fill-rule="evenodd" fill-opacity="1" stroke="none"/>
<circle clip-path="url(#clip911)" cx="1037.97" cy="407.045" r="14.4" fill="#000000" fill-rule="evenodd" fill-opacity="1" stroke="none"/>
<circle clip-path="url(#clip911)" cx="1060.92" cy="407.045" r="14.4" fill="#000000" fill-rule="evenodd" fill-opacity="1" stroke="none"/>
<circle clip-path="url(#clip911)" cx="1065.87" cy="407.045" r="14.4" fill="#000000" fill-rule="evenodd" fill-opacity="1" stroke="none"/>
<circle clip-path="url(#clip911)" cx="1077.99" cy="407.045" r="14.4" fill="#000000" fill-rule="evenodd" fill-opacity="1" stroke="none"/>
<circle clip-path="url(#clip911)" cx="1116.45" cy="407.045" r="14.4" fill="#000000" fill-rule="evenodd" fill-opacity="1" stroke="none"/>
<circle clip-path="url(#clip911)" cx="1116.52" cy="407.045" r="14.4" fill="#000000" fill-rule="evenodd" fill-opacity="1" stroke="none"/>
<circle clip-path="url(#clip911)" cx="1127.53" cy="407.045" r="14.4" fill="#000000" fill-rule="evenodd" fill-opacity="1" stroke="none"/>
<circle clip-path="url(#clip911)" cx="1194.56" cy="407.045" r="14.4" fill="#000000" fill-rule="evenodd" fill-opacity="1" stroke="none"/>
<circle clip-path="url(#clip911)" cx="1196.52" cy="407.045" r="14.4" fill="#000000" fill-rule="evenodd" fill-opacity="1" stroke="none"/>
<circle clip-path="url(#clip911)" cx="1219.18" cy="407.045" r="14.4" fill="#000000" fill-rule="evenodd" fill-opacity="1" stroke="none"/>
<circle clip-path="url(#clip911)" cx="1222.03" cy="407.045" r="14.4" fill="#000000" fill-rule="evenodd" fill-opacity="1" stroke="none"/>
<circle clip-path="url(#clip911)" cx="1258.63" cy="407.045" r="14.4" fill="#000000" fill-rule="evenodd" fill-opacity="1" stroke="none"/>
<circle clip-path="url(#clip911)" cx="1275.36" cy="407.045" r="14.4" fill="#000000" fill-rule="evenodd" fill-opacity="1" stroke="none"/>
<circle clip-path="url(#clip911)" cx="1298.34" cy="407.045" r="14.4" fill="#000000" fill-rule="evenodd" fill-opacity="1" stroke="none"/>
<circle clip-path="url(#clip911)" cx="1300.79" cy="407.045" r="14.4" fill="#000000" fill-rule="evenodd" fill-opacity="1" stroke="none"/>
<circle clip-path="url(#clip911)" cx="1312.85" cy="407.045" r="14.4" fill="#000000" fill-rule="evenodd" fill-opacity="1" stroke="none"/>
<circle clip-path="url(#clip911)" cx="1318.39" cy="407.045" r="14.4" fill="#000000" fill-rule="evenodd" fill-opacity="1" stroke="none"/>
<circle clip-path="url(#clip911)" cx="1325.66" cy="407.045" r="14.4" fill="#000000" fill-rule="evenodd" fill-opacity="1" stroke="none"/>
<circle clip-path="url(#clip911)" cx="1327.23" cy="407.045" r="14.4" fill="#000000" fill-rule="evenodd" fill-opacity="1" stroke="none"/>
<circle clip-path="url(#clip911)" cx="1353.47" cy="407.045" r="14.4" fill="#000000" fill-rule="evenodd" fill-opacity="1" stroke="none"/>
<circle clip-path="url(#clip911)" cx="1391.74" cy="407.045" r="14.4" fill="#000000" fill-rule="evenodd" fill-opacity="1" stroke="none"/>
<circle clip-path="url(#clip911)" cx="1421.51" cy="407.045" r="14.4" fill="#000000" fill-rule="evenodd" fill-opacity="1" stroke="none"/>
<circle clip-path="url(#clip911)" cx="1443.88" cy="407.045" r="14.4" fill="#000000" fill-rule="evenodd" fill-opacity="1" stroke="none"/>
<circle clip-path="url(#clip911)" cx="1457.85" cy="407.045" r="14.4" fill="#000000" fill-rule="evenodd" fill-opacity="1" stroke="none"/>
<circle clip-path="url(#clip911)" cx="1483.77" cy="407.045" r="14.4" fill="#000000" fill-rule="evenodd" fill-opacity="1" stroke="none"/>
<circle clip-path="url(#clip911)" cx="1495.48" cy="407.045" r="14.4" fill="#000000" fill-rule="evenodd" fill-opacity="1" stroke="none"/>
<circle clip-path="url(#clip911)" cx="1533.68" cy="407.045" r="14.4" fill="#000000" fill-rule="evenodd" fill-opacity="1" stroke="none"/>
<circle clip-path="url(#clip911)" cx="1535.05" cy="407.045" r="14.4" fill="#000000" fill-rule="evenodd" fill-opacity="1" stroke="none"/>
<circle clip-path="url(#clip911)" cx="1564.68" cy="1306.55" r="14.4" fill="#000000" fill-rule="evenodd" fill-opacity="1" stroke="none"/>
<circle clip-path="url(#clip911)" cx="1576.19" cy="1306.55" r="14.4" fill="#000000" fill-rule="evenodd" fill-opacity="1" stroke="none"/>
<circle clip-path="url(#clip911)" cx="1608.86" cy="1306.55" r="14.4" fill="#000000" fill-rule="evenodd" fill-opacity="1" stroke="none"/>
<circle clip-path="url(#clip911)" cx="1627.6" cy="1306.55" r="14.4" fill="#000000" fill-rule="evenodd" fill-opacity="1" stroke="none"/>
<circle clip-path="url(#clip911)" cx="1633.9" cy="1306.55" r="14.4" fill="#000000" fill-rule="evenodd" fill-opacity="1" stroke="none"/>
<circle clip-path="url(#clip911)" cx="1634.75" cy="1306.55" r="14.4" fill="#000000" fill-rule="evenodd" fill-opacity="1" stroke="none"/>
<circle clip-path="url(#clip911)" cx="1640.42" cy="1306.55" r="14.4" fill="#000000" fill-rule="evenodd" fill-opacity="1" stroke="none"/>
<circle clip-path="url(#clip911)" cx="1650.22" cy="1306.55" r="14.4" fill="#000000" fill-rule="evenodd" fill-opacity="1" stroke="none"/>
<circle clip-path="url(#clip911)" cx="1664.48" cy="1306.55" r="14.4" fill="#000000" fill-rule="evenodd" fill-opacity="1" stroke="none"/>
<circle clip-path="url(#clip911)" cx="1681.51" cy="1306.55" r="14.4" fill="#000000" fill-rule="evenodd" fill-opacity="1" stroke="none"/>
<circle clip-path="url(#clip911)" cx="1686.48" cy="1306.55" r="14.4" fill="#000000" fill-rule="evenodd" fill-opacity="1" stroke="none"/>
<circle clip-path="url(#clip911)" cx="1691.72" cy="1306.55" r="14.4" fill="#000000" fill-rule="evenodd" fill-opacity="1" stroke="none"/>
<circle clip-path="url(#clip911)" cx="1691.97" cy="1306.55" r="14.4" fill="#000000" fill-rule="evenodd" fill-opacity="1" stroke="none"/>
<circle clip-path="url(#clip911)" cx="1712.15" cy="1306.55" r="14.4" fill="#000000" fill-rule="evenodd" fill-opacity="1" stroke="none"/>
<circle clip-path="url(#clip911)" cx="1725.62" cy="1306.55" r="14.4" fill="#000000" fill-rule="evenodd" fill-opacity="1" stroke="none"/>
<circle clip-path="url(#clip911)" cx="1736.82" cy="1306.55" r="14.4" fill="#000000" fill-rule="evenodd" fill-opacity="1" stroke="none"/>
<circle clip-path="url(#clip911)" cx="1756.81" cy="1306.55" r="14.4" fill="#000000" fill-rule="evenodd" fill-opacity="1" stroke="none"/>
<circle clip-path="url(#clip911)" cx="1800.97" cy="1306.55" r="14.4" fill="#000000" fill-rule="evenodd" fill-opacity="1" stroke="none"/>
<circle clip-path="url(#clip911)" cx="1823.29" cy="1306.55" r="14.4" fill="#000000" fill-rule="evenodd" fill-opacity="1" stroke="none"/>
<circle clip-path="url(#clip911)" cx="1829.81" cy="1306.55" r="14.4" fill="#000000" fill-rule="evenodd" fill-opacity="1" stroke="none"/>
<circle clip-path="url(#clip911)" cx="1843.57" cy="1306.55" r="14.4" fill="#000000" fill-rule="evenodd" fill-opacity="1" stroke="none"/>
<circle clip-path="url(#clip911)" cx="1906.92" cy="1306.55" r="14.4" fill="#000000" fill-rule="evenodd" fill-opacity="1" stroke="none"/>
<circle clip-path="url(#clip911)" cx="1947.36" cy="1306.55" r="14.4" fill="#000000" fill-rule="evenodd" fill-opacity="1" stroke="none"/>
<circle clip-path="url(#clip911)" cx="1956.59" cy="1306.55" r="14.4" fill="#000000" fill-rule="evenodd" fill-opacity="1" stroke="none"/>
<circle clip-path="url(#clip911)" cx="1966.19" cy="1306.55" r="14.4" fill="#000000" fill-rule="evenodd" fill-opacity="1" stroke="none"/>
<circle clip-path="url(#clip911)" cx="1966.22" cy="1306.55" r="14.4" fill="#000000" fill-rule="evenodd" fill-opacity="1" stroke="none"/>
<circle clip-path="url(#clip911)" cx="1990.7" cy="1306.55" r="14.4" fill="#000000" fill-rule="evenodd" fill-opacity="1" stroke="none"/>
<circle clip-path="url(#clip911)" cx="2007.54" cy="1306.55" r="14.4" fill="#000000" fill-rule="evenodd" fill-opacity="1" stroke="none"/>
<circle clip-path="url(#clip911)" cx="2019.71" cy="1306.55" r="14.4" fill="#000000" fill-rule="evenodd" fill-opacity="1" stroke="none"/>
<circle clip-path="url(#clip911)" cx="2020.85" cy="1306.55" r="14.4" fill="#000000" fill-rule="evenodd" fill-opacity="1" stroke="none"/>
<circle clip-path="url(#clip911)" cx="2037.76" cy="1306.55" r="14.4" fill="#000000" fill-rule="evenodd" fill-opacity="1" stroke="none"/>
<circle clip-path="url(#clip911)" cx="2040.69" cy="1306.55" r="14.4" fill="#000000" fill-rule="evenodd" fill-opacity="1" stroke="none"/>
<circle clip-path="url(#clip911)" cx="2071.42" cy="1306.55" r="14.4" fill="#000000" fill-rule="evenodd" fill-opacity="1" stroke="none"/>
<circle clip-path="url(#clip911)" cx="2082.14" cy="1306.55" r="14.4" fill="#000000" fill-rule="evenodd" fill-opacity="1" stroke="none"/>
<circle clip-path="url(#clip911)" cx="2095.97" cy="1306.55" r="14.4" fill="#000000" fill-rule="evenodd" fill-opacity="1" stroke="none"/>
<circle clip-path="url(#clip911)" cx="2112.24" cy="1306.55" r="14.4" fill="#000000" fill-rule="evenodd" fill-opacity="1" stroke="none"/>
<circle clip-path="url(#clip911)" cx="2117.14" cy="1306.55" r="14.4" fill="#000000" fill-rule="evenodd" fill-opacity="1" stroke="none"/>
<polyline clip-path="url(#clip911)" style="stroke:#e26f46; stroke-linecap:round; stroke-linejoin:round; stroke-width:4; stroke-opacity:1; fill:none" points="253.483,1306.55 255.521,1306.55 257.559,1306.55 259.597,1306.55 261.635,1306.55 263.673,1306.55 265.711,1306.55 267.75,1306.55 269.788,1306.55 271.826,1306.55 273.864,1306.55 275.902,1306.55 277.94,1306.55 279.978,1306.55 282.016,1306.55 284.055,1306.55 286.093,1306.55 288.131,1306.55 290.169,1306.55 292.207,1306.55 294.245,1306.55 296.283,1306.55 298.322,1306.55 300.36,1306.55 302.398,1306.55 304.436,1306.55 306.474,1306.55 308.512,1306.55 310.55,1306.55 312.588,1306.55 314.627,1306.55 316.665,1306.55 318.703,1306.55 320.741,1306.55 322.779,1306.55 324.817,1306.55 326.855,1306.55 328.893,1306.55 330.932,1306.55 332.97,1306.55 335.008,1306.55 337.046,1306.55 339.084,1306.55 341.122,1306.55 343.16,1306.55 345.198,1306.55 347.237,1306.55 349.275,1306.55 351.313,1306.55 353.351,1306.55 355.389,1306.55 357.427,1306.55 359.465,1306.55 361.504,1306.55 363.542,1306.55 365.58,1306.55 367.618,1306.55 369.656,1306.55 371.694,1306.55 373.732,1306.55 375.77,1306.55 377.809,1306.55 379.847,1306.55 381.885,1306.55 383.923,1306.55 385.961,1306.55 387.999,1306.55 390.037,1306.55 392.075,1306.55 394.114,1306.55 396.152,1306.55 398.19,1306.55 400.228,1306.55 402.266,1306.55 404.304,1306.55 406.342,1306.55 408.38,1306.55 410.419,1306.55 412.457,1306.55 414.495,1306.55 416.533,1306.55 418.571,1306.55 420.609,1306.55 422.647,1306.55 424.686,1306.55 426.724,1306.55 428.762,1306.55 430.8,1306.55 432.838,1306.55 434.876,1306.55 436.914,1306.55 438.952,1306.55 440.991,1306.55 443.029,1306.55 445.067,1306.55 447.105,1306.55 449.143,1306.55 451.181,1306.55 453.219,1306.55 455.257,1306.55 457.296,1306.55 459.334,1306.55 461.372,1306.55 463.41,1306.55 465.448,1306.55 467.486,1306.55 469.524,1306.55 471.563,1306.55 473.601,1306.55 475.639,1306.55 477.677,1306.55 479.715,1306.55 481.753,1306.55 483.791,1306.55 485.829,1306.55 487.868,1306.55 489.906,1306.55 491.944,1306.55 493.982,1306.55 496.02,1306.55 498.058,1306.55 500.096,1306.55 502.134,1306.55 504.173,1306.55 506.211,1306.55 508.249,1306.55 510.287,1306.55 512.325,1306.55 514.363,1306.55 516.401,1306.55 518.439,1306.55 520.478,1306.55 522.516,1306.55 524.554,1306.55 526.592,1306.55 528.63,1306.55 530.668,1306.55 532.706,1306.55 534.745,1306.55 536.783,1306.55 538.821,1306.55 540.859,1306.55 542.897,1306.55 544.935,1306.55 546.973,1306.55 549.011,1306.55 551.05,1306.55 553.088,1306.55 555.126,1306.55 557.164,1306.55 559.202,1306.55 561.24,1306.55 563.278,1306.55 565.316,1306.55 567.355,1306.55 569.393,1306.55 571.431,1306.55 573.469,1306.55 575.507,1306.55 577.545,1306.55 579.583,1306.55 581.621,1306.55 583.66,1306.55 585.698,1306.55 587.736,1306.55 589.774,1306.55 591.812,1306.55 593.85,1306.55 595.888,1306.55 597.927,1306.55 599.965,1306.55 602.003,1306.55 604.041,1306.55 606.079,1306.55 608.117,1306.55 610.155,1306.55 612.193,1306.55 614.232,1306.55 616.27,1306.55 618.308,1306.55 620.346,1306.55 622.384,1306.55 624.422,1306.55 626.46,1306.55 628.498,1306.55 630.537,1306.55 632.575,1306.55 634.613,1306.55 636.651,1306.55 638.689,1306.55 640.727,1306.55 642.765,1306.55 644.804,1306.55 646.842,1306.55 648.88,1306.55 650.918,1306.55 652.956,1306.55 654.994,1306.55 657.032,1306.55 659.07,1306.55 661.109,1306.55 663.147,1306.55 665.185,1306.55 667.223,1306.55 669.261,1306.55 671.299,1306.55 673.337,1306.55 675.375,1306.55 677.414,1306.55 679.452,1306.55 681.49,1306.55 683.528,1306.55 685.566,1306.55 687.604,1306.55 689.642,1306.55 691.68,1306.55 693.719,1306.55 695.757,1306.55 697.795,1306.55 699.833,1306.55 701.871,1306.55 703.909,1306.55 705.947,1306.55 707.986,1306.55 710.024,1306.55 712.062,1306.55 714.1,1306.55 716.138,1306.55 718.176,1306.55 720.214,1306.55 722.252,1306.55 724.291,1306.55 726.329,1306.55 728.367,1306.55 730.405,1306.55 732.443,1306.55 734.481,1306.55 736.519,1306.55 738.557,1306.55 740.596,1306.55 742.634,1306.55 744.672,1306.55 746.71,1306.55 748.748,1306.55 750.786,1306.55 752.824,1306.55 754.862,1306.55 756.901,1306.55 758.939,1306.55 760.977,1306.55 763.015,1306.55 765.053,1306.55 767.091,1306.55 769.129,1306.55 771.168,1306.55 773.206,1306.55 775.244,1306.55 777.282,1306.55 779.32,1306.55 781.358,1306.55 783.396,1306.55 785.434,1306.55 787.473,1306.55 789.511,1306.55 791.549,1306.55 793.587,1306.55 795.625,1306.55 797.663,1306.55 799.701,1306.55 801.739,1306.55 803.778,1306.55 805.816,1306.55 807.854,1306.55 809.892,1306.55 811.93,1306.55 813.968,1306.55 816.006,1306.55 818.044,1306.55 820.083,1306.55 822.121,1306.55 824.159,1306.55 826.197,1306.55 828.235,1306.55 830.273,1306.55 832.311,1306.55 834.35,1306.55 836.388,1306.55 838.426,1306.55 840.464,1306.55 842.502,1306.55 844.54,1306.55 846.578,1306.55 848.616,1306.55 850.655,1306.55 852.693,1306.55 854.731,1306.55 856.769,1306.55 858.807,1306.55 860.845,1306.55 862.883,1306.55 864.921,1306.55 866.96,1306.55 868.998,1306.55 871.036,1306.55 873.074,1306.55 875.112,1306.55 877.15,1306.55 879.188,1306.55 881.227,1306.55 883.265,1306.55 885.303,1306.55 887.341,1306.55 889.379,1306.55 891.417,1306.55 893.455,1306.55 895.493,1306.55 897.532,1306.55 899.57,1306.55 901.608,1306.55 903.646,1306.55 905.684,1306.55 907.722,1306.55 909.76,1306.55 911.798,1306.55 913.837,1306.55 915.875,1306.55 917.913,1306.55 919.951,1306.55 921.989,1306.55 924.027,1306.55 926.065,1306.55 928.103,1306.55 930.142,1306.55 932.18,1306.55 934.218,1306.55 936.256,1306.55 938.294,1306.55 940.332,1306.55 942.37,1306.55 944.409,1306.55 946.447,1306.55 948.485,1306.55 950.523,1306.55 952.561,1306.55 954.599,1306.55 956.637,1306.55 958.675,1306.55 960.714,1306.55 962.752,1306.55 964.79,1306.55 966.828,1306.55 968.866,1306.55 970.904,1306.55 972.942,1306.55 974.98,1306.55 977.019,1306.55 979.057,1306.55 981.095,1306.55 983.133,1306.55 985.171,1306.55 987.209,1306.55 989.247,1306.55 991.285,407.045 993.324,407.045 995.362,407.045 997.4,407.045 999.438,407.045 1001.48,407.045 1003.51,407.045 1005.55,407.045 1007.59,407.045 1009.63,407.045 1011.67,407.045 1013.7,407.045 1015.74,407.045 1017.78,407.045 1019.82,407.045 1021.86,407.045 1023.9,407.045 1025.93,407.045 1027.97,407.045 1030.01,407.045 1032.05,407.045 1034.09,407.045 1036.12,407.045 1038.16,407.045 1040.2,407.045 1042.24,407.045 1044.28,407.045 1046.31,407.045 1048.35,407.045 1050.39,407.045 1052.43,407.045 1054.47,407.045 1056.51,407.045 1058.54,407.045 1060.58,407.045 1062.62,407.045 1064.66,407.045 1066.7,407.045 1068.73,407.045 1070.77,407.045 1072.81,407.045 1074.85,407.045 1076.89,407.045 1078.93,407.045 1080.96,407.045 1083,407.045 1085.04,407.045 1087.08,407.045 1089.12,407.045 1091.15,407.045 1093.19,407.045 1095.23,407.045 1097.27,407.045 1099.31,407.045 1101.34,407.045 1103.38,407.045 1105.42,407.045 1107.46,407.045 1109.5,407.045 1111.54,407.045 1113.57,407.045 1115.61,407.045 1117.65,407.045 1119.69,407.045 1121.73,407.045 1123.76,407.045 1125.8,407.045 1127.84,407.045 1129.88,407.045 1131.92,407.045 1133.95,407.045 1135.99,407.045 1138.03,407.045 1140.07,407.045 1142.11,407.045 1144.15,407.045 1146.18,407.045 1148.22,407.045 1150.26,407.045 1152.3,407.045 1154.34,407.045 1156.37,407.045 1158.41,407.045 1160.45,407.045 1162.49,407.045 1164.53,407.045 1166.56,407.045 1168.6,407.045 1170.64,407.045 1172.68,407.045 1174.72,407.045 1176.76,407.045 1178.79,407.045 1180.83,407.045 1182.87,407.045 1184.91,407.045 1186.95,407.045 1188.98,407.045 1191.02,407.045 1193.06,407.045 1195.1,407.045 1197.14,407.045 1199.17,407.045 1201.21,407.045 1203.25,407.045 1205.29,407.045 1207.33,407.045 1209.37,407.045 1211.4,407.045 1213.44,407.045 1215.48,407.045 1217.52,407.045 1219.56,407.045 1221.59,407.045 1223.63,407.045 1225.67,407.045 1227.71,407.045 1229.75,407.045 1231.78,407.045 1233.82,407.045 1235.86,407.045 1237.9,407.045 1239.94,407.045 1241.98,407.045 1244.01,407.045 1246.05,407.045 1248.09,407.045 1250.13,407.045 1252.17,407.045 1254.2,407.045 1256.24,407.045 1258.28,407.045 1260.32,407.045 1262.36,407.045 1264.39,407.045 1266.43,407.045 1268.47,407.045 1270.51,407.045 1272.55,407.045 1274.59,407.045 1276.62,407.045 1278.66,407.045 1280.7,407.045 1282.74,407.045 1284.78,407.045 1286.81,407.045 1288.85,407.045 1290.89,407.045 1292.93,407.045 1294.97,407.045 1297,407.045 1299.04,407.045 1301.08,407.045 1303.12,407.045 1305.16,407.045 1307.2,407.045 1309.23,407.045 1311.27,407.045 1313.31,407.045 1315.35,407.045 1317.39,407.045 1319.42,407.045 1321.46,407.045 1323.5,407.045 1325.54,407.045 1327.58,407.045 1329.61,407.045 1331.65,407.045 1333.69,407.045 1335.73,407.045 1337.77,407.045 1339.81,407.045 1341.84,407.045 1343.88,407.045 1345.92,407.045 1347.96,407.045 1350,407.045 1352.03,407.045 1354.07,407.045 1356.11,407.045 1358.15,407.045 1360.19,407.045 1362.23,407.045 1364.26,407.045 1366.3,407.045 1368.34,407.045 1370.38,407.045 1372.42,407.045 1374.45,407.045 1376.49,407.045 1378.53,407.045 1380.57,407.045 1382.61,407.045 1384.64,407.045 1386.68,407.045 1388.72,407.045 1390.76,407.045 1392.8,407.045 1394.84,407.045 1396.87,407.045 1398.91,407.045 1400.95,407.045 1402.99,407.045 1405.03,407.045 1407.06,407.045 1409.1,407.045 1411.14,407.045 1413.18,407.045 1415.22,407.045 1417.25,407.045 1419.29,407.045 1421.33,407.045 1423.37,407.045 1425.41,407.045 1427.45,407.045 1429.48,407.045 1431.52,407.045 1433.56,407.045 1435.6,407.045 1437.64,407.045 1439.67,407.045 1441.71,407.045 1443.75,407.045 1445.79,407.045 1447.83,407.045 1449.86,407.045 1451.9,407.045 1453.94,407.045 1455.98,407.045 1458.02,407.045 1460.06,407.045 1462.09,407.045 1464.13,407.045 1466.17,407.045 1468.21,407.045 1470.25,407.045 1472.28,407.045 1474.32,407.045 1476.36,407.045 1478.4,407.045 1480.44,407.045 1482.47,407.045 1484.51,407.045 1486.55,407.045 1488.59,407.045 1490.63,407.045 1492.67,407.045 1494.7,407.045 1496.74,407.045 1498.78,407.045 1500.82,407.045 1502.86,407.045 1504.89,407.045 1506.93,407.045 1508.97,407.045 1511.01,407.045 1513.05,407.045 1515.08,407.045 1517.12,407.045 1519.16,407.045 1521.2,407.045 1523.24,407.045 1525.28,407.045 1527.31,407.045 1529.35,407.045 1531.39,407.045 1533.43,407.045 1535.47,407.045 1537.5,407.045 1539.54,407.045 1541.58,407.045 1543.62,407.045 1545.66,407.045 1547.69,407.045 1549.73,407.045 1551.77,407.045 1553.81,407.045 1555.85,1306.55 1557.89,1306.55 1559.92,1306.55 1561.96,1306.55 1564,1306.55 1566.04,1306.55 1568.08,1306.55 1570.11,1306.55 1572.15,1306.55 1574.19,1306.55 1576.23,1306.55 1578.27,1306.55 1580.3,1306.55 1582.34,1306.55 1584.38,1306.55 1586.42,1306.55 1588.46,1306.55 1590.5,1306.55 1592.53,1306.55 1594.57,1306.55 1596.61,1306.55 1598.65,1306.55 1600.69,1306.55 1602.72,1306.55 1604.76,1306.55 1606.8,1306.55 1608.84,1306.55 1610.88,1306.55 1612.91,1306.55 1614.95,1306.55 1616.99,1306.55 1619.03,1306.55 1621.07,1306.55 1623.11,1306.55 1625.14,1306.55 1627.18,1306.55 1629.22,1306.55 1631.26,1306.55 1633.3,1306.55 1635.33,1306.55 1637.37,1306.55 1639.41,1306.55 1641.45,1306.55 1643.49,1306.55 1645.53,1306.55 1647.56,1306.55 1649.6,1306.55 1651.64,1306.55 1653.68,1306.55 1655.72,1306.55 1657.75,1306.55 1659.79,1306.55 1661.83,1306.55 1663.87,1306.55 1665.91,1306.55 1667.94,1306.55 1669.98,1306.55 1672.02,1306.55 1674.06,1306.55 1676.1,1306.55 1678.14,1306.55 1680.17,1306.55 1682.21,1306.55 1684.25,1306.55 1686.29,1306.55 1688.33,1306.55 1690.36,1306.55 1692.4,1306.55 1694.44,1306.55 1696.48,1306.55 1698.52,1306.55 1700.55,1306.55 1702.59,1306.55 1704.63,1306.55 1706.67,1306.55 1708.71,1306.55 1710.75,1306.55 1712.78,1306.55 1714.82,1306.55 1716.86,1306.55 1718.9,1306.55 1720.94,1306.55 1722.97,1306.55 1725.01,1306.55 1727.05,1306.55 1729.09,1306.55 1731.13,1306.55 1733.16,1306.55 1735.2,1306.55 1737.24,1306.55 1739.28,1306.55 1741.32,1306.55 1743.36,1306.55 1745.39,1306.55 1747.43,1306.55 1749.47,1306.55 1751.51,1306.55 1753.55,1306.55 1755.58,1306.55 1757.62,1306.55 1759.66,1306.55 1761.7,1306.55 1763.74,1306.55 1765.77,1306.55 1767.81,1306.55 1769.85,1306.55 1771.89,1306.55 1773.93,1306.55 1775.97,1306.55 1778,1306.55 1780.04,1306.55 1782.08,1306.55 1784.12,1306.55 1786.16,1306.55 1788.19,1306.55 1790.23,1306.55 1792.27,1306.55 1794.31,1306.55 1796.35,1306.55 1798.38,1306.55 1800.42,1306.55 1802.46,1306.55 1804.5,1306.55 1806.54,1306.55 1808.58,1306.55 1810.61,1306.55 1812.65,1306.55 1814.69,1306.55 1816.73,1306.55 1818.77,1306.55 1820.8,1306.55 1822.84,1306.55 1824.88,1306.55 1826.92,1306.55 1828.96,1306.55 1830.99,1306.55 1833.03,1306.55 1835.07,1306.55 1837.11,1306.55 1839.15,1306.55 1841.19,1306.55 1843.22,1306.55 1845.26,1306.55 1847.3,1306.55 1849.34,1306.55 1851.38,1306.55 1853.41,1306.55 1855.45,1306.55 1857.49,1306.55 1859.53,1306.55 1861.57,1306.55 1863.6,1306.55 1865.64,1306.55 1867.68,1306.55 1869.72,1306.55 1871.76,1306.55 1873.8,1306.55 1875.83,1306.55 1877.87,1306.55 1879.91,1306.55 1881.95,1306.55 1883.99,1306.55 1886.02,1306.55 1888.06,1306.55 1890.1,1306.55 1892.14,1306.55 1894.18,1306.55 1896.21,1306.55 1898.25,1306.55 1900.29,1306.55 1902.33,1306.55 1904.37,1306.55 1906.41,1306.55 1908.44,1306.55 1910.48,1306.55 1912.52,1306.55 1914.56,1306.55 1916.6,1306.55 1918.63,1306.55 1920.67,1306.55 1922.71,1306.55 1924.75,1306.55 1926.79,1306.55 1928.82,1306.55 1930.86,1306.55 1932.9,1306.55 1934.94,1306.55 1936.98,1306.55 1939.02,1306.55 1941.05,1306.55 1943.09,1306.55 1945.13,1306.55 1947.17,1306.55 1949.21,1306.55 1951.24,1306.55 1953.28,1306.55 1955.32,1306.55 1957.36,1306.55 1959.4,1306.55 1961.44,1306.55 1963.47,1306.55 1965.51,1306.55 1967.55,1306.55 1969.59,1306.55 1971.63,1306.55 1973.66,1306.55 1975.7,1306.55 1977.74,1306.55 1979.78,1306.55 1981.82,1306.55 1983.85,1306.55 1985.89,1306.55 1987.93,1306.55 1989.97,1306.55 1992.01,1306.55 1994.05,1306.55 1996.08,1306.55 1998.12,1306.55 2000.16,1306.55 2002.2,1306.55 2004.24,1306.55 2006.27,1306.55 2008.31,1306.55 2010.35,1306.55 2012.39,1306.55 2014.43,1306.55 2016.46,1306.55 2018.5,1306.55 2020.54,1306.55 2022.58,1306.55 2024.62,1306.55 2026.66,1306.55 2028.69,1306.55 2030.73,1306.55 2032.77,1306.55 2034.81,1306.55 2036.85,1306.55 2038.88,1306.55 2040.92,1306.55 2042.96,1306.55 2045,1306.55 2047.04,1306.55 2049.07,1306.55 2051.11,1306.55 2053.15,1306.55 2055.19,1306.55 2057.23,1306.55 2059.27,1306.55 2061.3,1306.55 2063.34,1306.55 2065.38,1306.55 2067.42,1306.55 2069.46,1306.55 2071.49,1306.55 2073.53,1306.55 2075.57,1306.55 2077.61,1306.55 2079.65,1306.55 2081.68,1306.55 2083.72,1306.55 2085.76,1306.55 2087.8,1306.55 2089.84,1306.55 2091.88,1306.55 2093.91,1306.55 2095.95,1306.55 2097.99,1306.55 2100.03,1306.55 2102.07,1306.55 2104.1,1306.55 2106.14,1306.55 2108.18,1306.55 2110.22,1306.55 2112.26,1306.55 2114.29,1306.55 2116.33,1306.55 2118.37,1306.55 2120.41,1306.55 2122.45,1306.55 2124.49,1306.55 2126.52,1306.55 2128.56,1306.55 2130.6,1306.55 2132.64,1306.55 2134.68,1306.55 2136.71,1306.55 2138.75,1306.55 2140.79,1306.55 2142.83,1306.55 2144.87,1306.55 2146.9,1306.55 2148.94,1306.55 2150.98,1306.55 2153.02,1306.55 2155.06,1306.55 2157.1,1306.55 2159.13,1306.55 2161.17,1306.55 2163.21,1306.55 2165.25,1306.55 2167.29,1306.55 2169.32,1306.55 2171.36,1306.55 2173.4,1306.55 2175.44,1306.55 2177.48,1306.55 2179.51,1306.55 2181.55,1306.55 2183.59,1306.55 2185.63,1306.55 2187.67,1306.55 2189.71,1306.55 2191.74,1306.55 2193.78,1306.55 2195.82,1306.55 2197.86,1306.55 2199.9,1306.55 2201.93,1306.55 2203.97,1306.55 2206.01,1306.55 2208.05,1306.55 2210.09,1306.55 2212.12,1306.55 2214.16,1306.55 2216.2,1306.55 2218.24,1306.55 2220.28,1306.55 2222.32,1306.55 2224.35,1306.55 2226.39,1306.55 2228.43,1306.55 2230.47,1306.55 2232.51,1306.55 2234.54,1306.55 2236.58,1306.55 2238.62,1306.55 2240.66,1306.55 2242.7,1306.55 2244.74,1306.55 2246.77,1306.55 2248.81,1306.55 2250.85,1306.55 2252.89,1306.55 2254.93,1306.55 2256.96,1306.55 2259,1306.55 2261.04,1306.55 2263.08,1306.55 2265.12,1306.55 2267.15,1306.55 2269.19,1306.55 2271.23,1306.55 2273.27,1306.55 2275.31,1306.55 2277.35,1306.55 2279.38,1306.55 2281.42,1306.55 2283.46,1306.55 2285.5,1306.55 2287.54,1306.55 2289.57,1306.55 2291.61,1306.55 "/>
<polyline clip-path="url(#clip911)" style="stroke:#3da44d; stroke-linecap:round; stroke-linejoin:round; stroke-width:4; stroke-opacity:1; fill:none" points="253.483,1306.55 255.521,1306.55 257.559,1306.55 259.597,1306.55 261.635,1306.55 263.673,1306.55 265.711,1306.55 267.75,1306.55 269.788,1306.55 271.826,1306.55 273.864,1306.55 275.902,1306.55 277.94,1306.55 279.978,1306.55 282.016,1306.55 284.055,1306.55 286.093,1306.55 288.131,1306.55 290.169,1306.55 292.207,1306.55 294.245,1306.55 296.283,1306.55 298.322,1306.55 300.36,1306.55 302.398,1306.55 304.436,1306.55 306.474,1306.55 308.512,1306.55 310.55,1306.55 312.588,1306.55 314.627,1306.55 316.665,1306.55 318.703,1306.55 320.741,1306.55 322.779,1306.55 324.817,1306.55 326.855,1306.55 328.893,1306.55 330.932,1306.55 332.97,1306.55 335.008,1306.55 337.046,1306.55 339.084,1306.55 341.122,1306.55 343.16,1306.55 345.198,1306.55 347.237,1306.55 349.275,1306.55 351.313,1306.55 353.351,1306.55 355.389,1306.55 357.427,1306.55 359.465,1306.55 361.504,1306.55 363.542,1306.55 365.58,1306.55 367.618,1306.55 369.656,1306.55 371.694,1306.55 373.732,1306.55 375.77,1306.55 377.809,1306.55 379.847,1306.55 381.885,1306.55 383.923,1306.55 385.961,1306.55 387.999,1306.55 390.037,1306.55 392.075,1306.55 394.114,1306.55 396.152,1306.55 398.19,1306.55 400.228,1306.55 402.266,1306.55 404.304,1306.55 406.342,1306.55 408.38,1306.55 410.419,1306.55 412.457,1306.55 414.495,1306.55 416.533,1306.55 418.571,1306.55 420.609,1306.55 422.647,1306.55 424.686,1306.55 426.724,1306.55 428.762,1306.55 430.8,1306.55 432.838,1306.55 434.876,1306.55 436.914,1306.55 438.952,1306.55 440.991,1306.55 443.029,1306.55 445.067,1306.55 447.105,1306.55 449.143,1306.55 451.181,1306.55 453.219,1306.55 455.257,1306.55 457.296,1306.55 459.334,1306.55 461.372,1306.54 463.41,1306.54 465.448,1306.54 467.486,1306.54 469.524,1306.54 471.563,1306.55 473.601,1306.55 475.639,1306.55 477.677,1306.55 479.715,1306.55 481.753,1306.55 483.791,1306.55 485.829,1306.55 487.868,1306.55 489.906,1306.55 491.944,1306.55 493.982,1306.55 496.02,1306.55 498.058,1306.55 500.096,1306.55 502.134,1306.55 504.173,1306.54 506.211,1306.54 508.249,1306.53 510.287,1306.53 512.325,1306.52 514.363,1306.51 516.401,1306.5 518.439,1306.5 520.478,1306.49 522.516,1306.48 524.554,1306.47 526.592,1306.46 528.63,1306.45 530.668,1306.44 532.706,1306.43 534.745,1306.42 536.783,1306.42 538.821,1306.41 540.859,1306.41 542.897,1306.4 544.935,1306.4 546.973,1306.4 549.011,1306.4 551.05,1306.41 553.088,1306.41 555.126,1306.42 557.164,1306.43 559.202,1306.44 561.24,1306.45 563.278,1306.47 565.316,1306.48 567.355,1306.5 569.393,1306.51 571.431,1306.53 573.469,1306.54 575.507,1306.56 577.545,1306.57 579.583,1306.59 581.621,1306.6 583.66,1306.61 585.698,1306.62 587.736,1306.63 589.774,1306.63 591.812,1306.63 593.85,1306.63 595.888,1306.63 597.927,1306.62 599.965,1306.61 602.003,1306.59 604.041,1306.58 606.079,1306.56 608.117,1306.54 610.155,1306.52 612.193,1306.5 614.232,1306.48 616.27,1306.46 618.308,1306.44 620.346,1306.43 622.384,1306.42 624.422,1306.41 626.46,1306.41 628.498,1306.41 630.537,1306.41 632.575,1306.43 634.613,1306.45 636.651,1306.47 638.689,1306.51 640.727,1306.55 642.765,1306.6 644.804,1306.66 646.842,1306.73 648.88,1306.8 650.918,1306.87 652.956,1306.94 654.994,1307.02 657.032,1307.09 659.07,1307.16 661.109,1307.22 663.147,1307.28 665.185,1307.33 667.223,1307.37 669.261,1307.4 671.299,1307.42 673.337,1307.43 675.375,1307.41 677.414,1307.38 679.452,1307.33 681.49,1307.26 683.528,1307.17 685.566,1307.06 687.604,1306.92 689.642,1306.77 691.68,1306.59 693.719,1306.41 695.757,1306.22 697.795,1306.03 699.833,1305.83 701.871,1305.64 703.909,1305.46 705.947,1305.29 707.986,1305.13 710.024,1305 712.062,1304.88 714.1,1304.79 716.138,1304.74 718.176,1304.71 720.214,1304.73 722.252,1304.78 724.291,1304.89 726.329,1305.04 728.367,1305.24 730.405,1305.5 732.443,1305.81 734.481,1306.15 736.519,1306.54 738.557,1306.94 740.596,1307.37 742.634,1307.81 744.672,1308.25 746.71,1308.69 748.748,1309.12 750.786,1309.53 752.824,1309.91 754.862,1310.27 756.901,1310.58 758.939,1310.84 760.977,1311.05 763.015,1311.2 765.053,1311.28 767.091,1311.28 769.129,1311.19 771.168,1311.02 773.206,1310.74 775.244,1310.38 777.282,1309.94 779.32,1309.43 781.358,1308.87 783.396,1308.27 785.434,1307.65 787.473,1307.02 789.511,1306.4 791.549,1305.79 793.587,1305.21 795.625,1304.67 797.663,1304.19 799.701,1303.79 801.739,1303.46 803.778,1303.24 805.816,1303.12 807.854,1303.13 809.892,1303.28 811.93,1303.58 813.968,1304.05 816.006,1304.69 818.044,1305.51 820.083,1306.49 822.121,1307.58 824.159,1308.77 826.197,1310.02 828.235,1311.32 830.273,1312.62 832.311,1313.92 834.35,1315.16 836.388,1316.34 838.426,1317.42 840.464,1318.37 842.502,1319.17 844.54,1319.79 846.578,1320.2 848.616,1320.37 850.655,1320.28 852.693,1319.9 854.731,1319.19 856.769,1318.14 858.807,1316.72 860.845,1314.9 862.883,1312.74 864.921,1310.27 866.96,1307.56 868.998,1304.65 871.036,1301.6 873.074,1298.45 875.112,1295.26 877.15,1292.08 879.188,1288.96 881.227,1285.96 883.265,1283.12 885.303,1280.5 887.341,1278.15 889.379,1276.12 891.417,1274.45 893.455,1273.22 895.493,1272.46 897.532,1272.22 899.57,1272.56 901.608,1273.54 903.646,1275.19 905.684,1277.49 907.722,1280.37 909.76,1283.74 911.798,1287.54 913.837,1291.69 915.875,1296.1 917.913,1300.7 919.951,1305.42 921.989,1310.17 924.027,1314.88 926.065,1319.47 928.103,1323.87 930.142,1328 932.18,1331.78 934.218,1335.13 936.256,1337.98 938.294,1340.25 940.332,1341.87 942.37,1342.74 944.409,1342.81 946.447,1341.99 948.485,1340.21 950.523,1337.43 952.561,1333.58 954.599,1328.61 956.637,1322.48 958.675,1315.14 960.714,1306.52 962.752,1296.58 964.79,1285.28 966.828,1272.54 968.866,1258.34 970.904,1242.6 972.942,1225.29 974.98,1206.35 977.019,1185.72 979.057,1163.36 981.095,1139.22 983.133,1113.24 985.171,1085.37 987.209,1055.56 989.247,1023.76 991.285,989.949 993.324,954.343 995.362,917.219 997.4,878.857 999.438,839.539 1001.48,799.546 1003.51,759.159 1005.55,718.659 1007.59,678.327 1009.63,638.445 1011.67,599.293 1013.7,561.152 1015.74,524.304 1017.78,489.03 1019.82,455.61 1021.86,424.326 1023.9,395.459 1025.93,369.29 1027.97,346.1 1030.01,326.171 1032.05,309.783 1034.09,297.203 1036.12,288.423 1038.16,283.17 1040.2,281.161 1042.24,282.113 1044.28,285.743 1046.31,291.769 1048.35,299.908 1050.39,309.876 1052.43,321.392 1054.47,334.173 1056.51,347.935 1058.54,362.396 1060.58,377.274 1062.62,392.285 1064.66,407.146 1066.7,421.575 1068.73,435.289 1070.77,448.006 1072.81,459.442 1074.85,469.314 1076.89,477.341 1078.93,483.352 1080.96,487.461 1083,489.83 1085.04,490.616 1087.08,489.981 1089.12,488.084 1091.15,485.084 1093.19,481.141 1095.23,476.415 1097.27,471.066 1099.31,465.253 1101.34,459.136 1103.38,452.875 1105.42,446.63 1107.46,440.559 1109.5,434.824 1111.54,429.583 1113.57,424.996 1115.61,421.224 1117.65,418.425 1119.69,416.76 1121.73,416.365 1123.76,417.205 1125.8,419.163 1127.84,422.121 1129.88,425.961 1131.92,430.567 1133.95,435.821 1135.99,441.606 1138.03,447.804 1140.07,454.298 1142.11,460.97 1144.15,467.703 1146.18,474.379 1148.22,480.882 1150.26,487.094 1152.3,492.897 1154.34,498.175 1156.37,502.809 1158.41,506.682 1160.45,509.677 1162.49,511.676 1164.53,512.565 1166.56,512.319 1168.6,511.023 1170.64,508.769 1172.68,505.652 1174.72,501.762 1176.76,497.194 1178.79,492.039 1180.83,486.39 1182.87,480.341 1184.91,473.982 1186.95,467.408 1188.98,460.711 1191.02,453.983 1193.06,447.318 1195.1,440.807 1197.14,434.544 1199.17,428.621 1201.21,423.131 1203.25,418.166 1205.29,413.819 1207.33,410.183 1209.37,407.322 1211.4,405.203 1213.44,403.772 1215.48,402.974 1217.52,402.756 1219.56,403.064 1221.59,403.843 1223.63,405.04 1225.67,406.6 1227.71,408.469 1229.75,410.594 1231.78,412.92 1233.82,415.393 1235.86,417.96 1237.9,420.565 1239.94,423.156 1241.98,425.677 1244.01,428.075 1246.05,430.296 1248.09,432.286 1250.13,433.99 1252.17,435.36 1254.2,436.387 1256.24,437.092 1258.28,437.496 1260.32,437.619 1262.36,437.483 1264.39,437.106 1266.43,436.511 1268.47,435.717 1270.51,434.746 1272.55,433.617 1274.59,432.352 1276.62,430.97 1278.66,429.493 1280.7,427.941 1282.74,426.335 1284.78,424.694 1286.81,423.041 1288.85,421.394 1290.89,419.776 1292.93,418.206 1294.97,416.705 1297,415.29 1299.04,413.973 1301.08,412.764 1303.12,411.675 1305.16,410.717 1307.2,409.9 1309.23,409.237 1311.27,408.737 1313.31,408.413 1315.35,408.274 1317.39,408.332 1319.42,408.599 1321.46,409.084 1323.5,409.8 1325.54,410.757 1327.58,411.966 1329.61,413.439 1331.65,415.186 1333.69,417.218 1335.73,419.547 1337.77,422.184 1339.81,425.129 1341.84,428.34 1343.88,431.76 1345.92,435.334 1347.96,439.004 1350,442.714 1352.03,446.408 1354.07,450.03 1356.11,453.523 1358.15,456.831 1360.19,459.898 1362.23,462.667 1364.26,465.082 1366.3,467.086 1368.34,468.623 1370.38,469.638 1372.42,470.073 1374.45,469.872 1376.49,468.979 1378.53,467.337 1380.57,464.89 1382.61,461.588 1384.64,457.47 1386.68,452.647 1388.72,447.234 1390.76,441.344 1392.8,435.093 1394.84,428.594 1396.87,421.962 1398.91,415.309 1400.95,408.752 1402.99,402.403 1405.03,396.377 1407.06,390.787 1409.1,385.749 1411.14,381.376 1413.18,377.783 1415.22,375.083 1417.25,373.391 1419.29,372.82 1421.33,373.485 1423.37,375.5 1425.41,378.979 1427.45,383.945 1429.48,390.226 1431.52,397.626 1433.56,405.948 1435.6,414.996 1437.64,424.574 1439.67,434.485 1441.71,444.532 1443.75,454.52 1445.79,464.251 1447.83,473.528 1449.86,482.157 1451.9,489.939 1453.94,496.68 1455.98,502.181 1458.02,506.247 1460.06,508.681 1462.09,509.286 1464.13,507.867 1466.17,504.226 1468.21,498.168 1470.25,489.548 1472.28,478.557 1474.32,465.518 1476.36,450.754 1478.4,434.588 1480.44,417.342 1482.47,399.342 1484.51,380.908 1486.55,362.364 1488.59,344.034 1490.63,326.241 1492.67,309.306 1494.7,293.555 1496.74,279.308 1498.78,266.891 1500.82,256.625 1502.86,248.834 1504.89,243.841 1506.93,241.968 1508.97,243.54 1511.01,248.878 1513.05,258.296 1515.08,271.825 1517.12,289.201 1519.16,310.147 1521.2,334.383 1523.24,361.633 1525.28,391.618 1527.31,424.06 1529.35,458.681 1531.39,495.203 1533.43,533.348 1535.47,572.838 1537.5,613.394 1539.54,654.739 1541.58,696.594 1543.62,738.683 1545.66,780.725 1547.69,822.444 1549.73,863.562 1551.77,903.799 1553.81,942.879 1555.85,980.523 1557.89,1016.52 1559.92,1050.84 1561.96,1083.49 1564,1114.48 1566.04,1143.81 1568.08,1171.49 1570.11,1197.53 1572.15,1221.93 1574.19,1244.71 1576.23,1265.86 1578.27,1285.39 1580.3,1303.32 1582.34,1319.64 1584.38,1334.37 1586.42,1347.5 1588.46,1359.05 1590.5,1369.03 1592.53,1377.43 1594.57,1384.27 1596.61,1389.55 1598.65,1393.29 1600.69,1395.48 1602.72,1396.22 1604.76,1395.62 1606.8,1393.8 1608.84,1390.87 1610.88,1386.95 1612.91,1382.15 1614.95,1376.59 1616.99,1370.39 1619.03,1363.66 1621.07,1356.52 1623.11,1349.08 1625.14,1341.46 1627.18,1333.78 1629.22,1326.16 1631.26,1318.7 1633.3,1311.53 1635.33,1304.75 1637.37,1298.5 1639.41,1292.88 1641.45,1288 1643.49,1284 1645.53,1280.89 1647.56,1278.64 1649.6,1277.17 1651.64,1276.43 1653.68,1276.35 1655.72,1276.86 1657.75,1277.91 1659.79,1279.42 1661.83,1281.34 1663.87,1283.61 1665.91,1286.15 1667.94,1288.91 1669.98,1291.82 1672.02,1294.81 1674.06,1297.84 1676.1,1300.82 1678.14,1303.7 1680.17,1306.42 1682.21,1308.91 1684.25,1311.1 1686.29,1312.94 1688.33,1314.38 1690.36,1315.42 1692.4,1316.11 1694.44,1316.47 1696.48,1316.53 1698.52,1316.32 1700.55,1315.87 1702.59,1315.21 1704.63,1314.37 1706.67,1313.38 1708.71,1312.27 1710.75,1311.08 1712.78,1309.82 1714.82,1308.53 1716.86,1307.24 1718.9,1305.98 1720.94,1304.78 1722.97,1303.66 1725.01,1302.67 1727.05,1301.83 1729.09,1301.16 1731.13,1300.7 1733.16,1300.45 1735.2,1300.39 1737.24,1300.51 1739.28,1300.78 1741.32,1301.19 1743.36,1301.73 1745.39,1302.38 1747.43,1303.11 1749.47,1303.92 1751.51,1304.79 1753.55,1305.7 1755.58,1306.63 1757.62,1307.56 1759.66,1308.49 1761.7,1309.39 1763.74,1310.24 1765.77,1311.04 1767.81,1311.75 1769.85,1312.37 1771.89,1312.88 1773.93,1313.26 1775.97,1313.5 1778,1313.62 1780.04,1313.62 1782.08,1313.51 1784.12,1313.31 1786.16,1313.02 1788.19,1312.66 1790.23,1312.23 1792.27,1311.75 1794.31,1311.23 1796.35,1310.67 1798.38,1310.1 1800.42,1309.51 1802.46,1308.91 1804.5,1308.33 1806.54,1307.77 1808.58,1307.24 1810.61,1306.75 1812.65,1306.31 1814.69,1305.94 1816.73,1305.63 1818.77,1305.41 1820.8,1305.27 1822.84,1305.2 1824.88,1305.19 1826.92,1305.25 1828.96,1305.36 1830.99,1305.52 1833.03,1305.72 1835.07,1305.95 1837.11,1306.21 1839.15,1306.5 1841.19,1306.81 1843.22,1307.12 1845.26,1307.45 1847.3,1307.77 1849.34,1308.08 1851.38,1308.38 1853.41,1308.66 1855.45,1308.91 1857.49,1309.13 1859.53,1309.32 1861.57,1309.46 1863.6,1309.55 1865.64,1309.61 1867.68,1309.62 1869.72,1309.6 1871.76,1309.54 1873.8,1309.46 1875.83,1309.35 1877.87,1309.21 1879.91,1309.06 1881.95,1308.89 1883.99,1308.7 1886.02,1308.51 1888.06,1308.3 1890.1,1308.1 1892.14,1307.89 1894.18,1307.68 1896.21,1307.48 1898.25,1307.28 1900.29,1307.1 1902.33,1306.93 1904.37,1306.78 1906.41,1306.65 1908.44,1306.53 1910.48,1306.44 1912.52,1306.36 1914.56,1306.29 1916.6,1306.24 1918.63,1306.21 1920.67,1306.18 1922.71,1306.17 1924.75,1306.17 1926.79,1306.17 1928.82,1306.18 1930.86,1306.2 1932.9,1306.23 1934.94,1306.26 1936.98,1306.29 1939.02,1306.32 1941.05,1306.36 1943.09,1306.39 1945.13,1306.42 1947.17,1306.45 1949.21,1306.48 1951.24,1306.5 1953.28,1306.52 1955.32,1306.54 1957.36,1306.55 1959.4,1306.57 1961.44,1306.57 1963.47,1306.58 1965.51,1306.58 1967.55,1306.59 1969.59,1306.59 1971.63,1306.58 1973.66,1306.58 1975.7,1306.58 1977.74,1306.57 1979.78,1306.57 1981.82,1306.56 1983.85,1306.56 1985.89,1306.55 1987.93,1306.55 1989.97,1306.54 1992.01,1306.54 1994.05,1306.54 1996.08,1306.53 1998.12,1306.53 2000.16,1306.53 2002.2,1306.53 2004.24,1306.53 2006.27,1306.53 2008.31,1306.53 2010.35,1306.53 2012.39,1306.53 2014.43,1306.54 2016.46,1306.54 2018.5,1306.54 2020.54,1306.54 2022.58,1306.54 2024.62,1306.55 2026.66,1306.55 2028.69,1306.55 2030.73,1306.55 2032.77,1306.55 2034.81,1306.56 2036.85,1306.56 2038.88,1306.56 2040.92,1306.56 2042.96,1306.56 2045,1306.56 2047.04,1306.56 2049.07,1306.56 2051.11,1306.56 2053.15,1306.55 2055.19,1306.55 2057.23,1306.55 2059.27,1306.55 2061.3,1306.55 2063.34,1306.55 2065.38,1306.55 2067.42,1306.55 2069.46,1306.55 2071.49,1306.55 2073.53,1306.54 2075.57,1306.54 2077.61,1306.54 2079.65,1306.54 2081.68,1306.54 2083.72,1306.54 2085.76,1306.54 2087.8,1306.55 2089.84,1306.55 2091.88,1306.55 2093.91,1306.55 2095.95,1306.55 2097.99,1306.55 2100.03,1306.55 2102.07,1306.55 2104.1,1306.55 2106.14,1306.55 2108.18,1306.55 2110.22,1306.55 2112.26,1306.55 2114.29,1306.55 2116.33,1306.55 2118.37,1306.55 2120.41,1306.54 2122.45,1306.55 2124.49,1306.55 2126.52,1306.55 2128.56,1306.55 2130.6,1306.55 2132.64,1306.55 2134.68,1306.55 2136.71,1306.55 2138.75,1306.55 2140.79,1306.55 2142.83,1306.55 2144.87,1306.55 2146.9,1306.55 2148.94,1306.55 2150.98,1306.55 2153.02,1306.55 2155.06,1306.55 2157.1,1306.55 2159.13,1306.55 2161.17,1306.55 2163.21,1306.55 2165.25,1306.55 2167.29,1306.55 2169.32,1306.55 2171.36,1306.55 2173.4,1306.55 2175.44,1306.55 2177.48,1306.55 2179.51,1306.55 2181.55,1306.55 2183.59,1306.55 2185.63,1306.55 2187.67,1306.55 2189.71,1306.55 2191.74,1306.55 2193.78,1306.55 2195.82,1306.55 2197.86,1306.55 2199.9,1306.55 2201.93,1306.55 2203.97,1306.55 2206.01,1306.55 2208.05,1306.55 2210.09,1306.55 2212.12,1306.55 2214.16,1306.55 2216.2,1306.55 2218.24,1306.55 2220.28,1306.55 2222.32,1306.55 2224.35,1306.55 2226.39,1306.55 2228.43,1306.55 2230.47,1306.55 2232.51,1306.55 2234.54,1306.55 2236.58,1306.55 2238.62,1306.55 2240.66,1306.55 2242.7,1306.55 2244.74,1306.55 2246.77,1306.55 2248.81,1306.55 2250.85,1306.55 2252.89,1306.55 2254.93,1306.55 2256.96,1306.55 2259,1306.55 2261.04,1306.55 2263.08,1306.55 2265.12,1306.55 2267.15,1306.55 2269.19,1306.55 2271.23,1306.55 2273.27,1306.55 2275.31,1306.55 2277.35,1306.55 2279.38,1306.55 2281.42,1306.55 2283.46,1306.55 2285.5,1306.55 2287.54,1306.55 2289.57,1306.55 2291.61,1306.55 "/>
<path clip-path="url(#clip910)" d="M1337.41 302.578 L2280.74 302.578 L2280.74 95.2176 L1337.41 95.2176  Z" fill="#ffffff" fill-rule="evenodd" fill-opacity="1"/>
<polyline clip-path="url(#clip910)" style="stroke:#000000; stroke-linecap:round; stroke-linejoin:round; stroke-width:4; stroke-opacity:1; fill:none" points="1337.41,302.578 2280.74,302.578 2280.74,95.2176 1337.41,95.2176 1337.41,302.578 "/>
<circle clip-path="url(#clip910)" cx="1433.43" cy="147.058" r="20.48" fill="#000000" fill-rule="evenodd" fill-opacity="1" stroke="none"/>
<path clip-path="url(#clip910)" d="M1548.36 142.347 L1548.36 128.319 L1552.62 128.319 L1552.62 164.338 L1548.36 164.338 L1548.36 160.449 Q1547.02 162.763 1544.96 163.898 Q1542.92 165.009 1540.05 165.009 Q1535.35 165.009 1532.39 161.259 Q1529.45 157.509 1529.45 151.398 Q1529.45 145.287 1532.39 141.537 Q1535.35 137.787 1540.05 137.787 Q1542.92 137.787 1544.96 138.921 Q1547.02 140.032 1548.36 142.347 M1533.85 151.398 Q1533.85 156.097 1535.77 158.782 Q1537.71 161.444 1541.09 161.444 Q1544.47 161.444 1546.42 158.782 Q1548.36 156.097 1548.36 151.398 Q1548.36 146.699 1546.42 144.037 Q1544.47 141.352 1541.09 141.352 Q1537.71 141.352 1535.77 144.037 Q1533.85 146.699 1533.85 151.398 Z" fill="#000000" fill-rule="nonzero" fill-opacity="1" /><path clip-path="url(#clip910)" d="M1573.18 151.305 Q1568.01 151.305 1566.02 152.486 Q1564.03 153.666 1564.03 156.514 Q1564.03 158.782 1565.51 160.125 Q1567.02 161.444 1569.59 161.444 Q1573.13 161.444 1575.26 158.944 Q1577.41 156.421 1577.41 152.254 L1577.41 151.305 L1573.18 151.305 M1581.67 149.546 L1581.67 164.338 L1577.41 164.338 L1577.41 160.402 Q1575.95 162.763 1573.78 163.898 Q1571.6 165.009 1568.45 165.009 Q1564.47 165.009 1562.11 162.787 Q1559.77 160.541 1559.77 156.791 Q1559.77 152.416 1562.69 150.194 Q1565.63 147.972 1571.44 147.972 L1577.41 147.972 L1577.41 147.555 Q1577.41 144.615 1575.47 143.018 Q1573.55 141.398 1570.05 141.398 Q1567.83 141.398 1565.72 141.93 Q1563.62 142.463 1561.67 143.527 L1561.67 139.592 Q1564.01 138.69 1566.21 138.25 Q1568.41 137.787 1570.49 137.787 Q1576.12 137.787 1578.89 140.703 Q1581.67 143.62 1581.67 149.546 Z" fill="#000000" fill-rule="nonzero" fill-opacity="1" /><path clip-path="url(#clip910)" d="M1594.66 131.051 L1594.66 138.412 L1603.43 138.412 L1603.43 141.722 L1594.66 141.722 L1594.66 155.796 Q1594.66 158.967 1595.51 159.87 Q1596.39 160.773 1599.06 160.773 L1603.43 160.773 L1603.43 164.338 L1599.06 164.338 Q1594.13 164.338 1592.25 162.509 Q1590.38 160.657 1590.38 155.796 L1590.38 141.722 L1587.25 141.722 L1587.25 138.412 L1590.38 138.412 L1590.38 131.051 L1594.66 131.051 Z" fill="#000000" fill-rule="nonzero" fill-opacity="1" /><path clip-path="url(#clip910)" d="M1620.81 151.305 Q1615.65 151.305 1613.66 152.486 Q1611.67 153.666 1611.67 156.514 Q1611.67 158.782 1613.15 160.125 Q1614.66 161.444 1617.23 161.444 Q1620.77 161.444 1622.9 158.944 Q1625.05 156.421 1625.05 152.254 L1625.05 151.305 L1620.81 151.305 M1629.31 149.546 L1629.31 164.338 L1625.05 164.338 L1625.05 160.402 Q1623.59 162.763 1621.42 163.898 Q1619.24 165.009 1616.09 165.009 Q1612.11 165.009 1609.75 162.787 Q1607.41 160.541 1607.41 156.791 Q1607.41 152.416 1610.33 150.194 Q1613.27 147.972 1619.08 147.972 L1625.05 147.972 L1625.05 147.555 Q1625.05 144.615 1623.11 143.018 Q1621.19 141.398 1617.69 141.398 Q1615.47 141.398 1613.36 141.93 Q1611.25 142.463 1609.31 143.527 L1609.31 139.592 Q1611.65 138.69 1613.85 138.25 Q1616.05 137.787 1618.13 137.787 Q1623.75 137.787 1626.53 140.703 Q1629.31 143.62 1629.31 149.546 Z" fill="#000000" fill-rule="nonzero" fill-opacity="1" /><polyline clip-path="url(#clip910)" style="stroke:#e26f46; stroke-linecap:round; stroke-linejoin:round; stroke-width:4; stroke-opacity:1; fill:none" points="1361.42,198.898 1505.44,198.898 "/>
<path clip-path="url(#clip910)" d="M1536.86 182.891 L1536.86 190.252 L1545.63 190.252 L1545.63 193.562 L1536.86 193.562 L1536.86 207.636 Q1536.86 210.807 1537.71 211.71 Q1538.59 212.613 1541.26 212.613 L1545.63 212.613 L1545.63 216.178 L1541.26 216.178 Q1536.32 216.178 1534.45 214.349 Q1532.57 212.497 1532.57 207.636 L1532.57 193.562 L1529.45 193.562 L1529.45 190.252 L1532.57 190.252 L1532.57 182.891 L1536.86 182.891 Z" fill="#000000" fill-rule="nonzero" fill-opacity="1" /><path clip-path="url(#clip910)" d="M1566.25 194.233 Q1565.54 193.817 1564.68 193.631 Q1563.85 193.423 1562.83 193.423 Q1559.22 193.423 1557.27 195.784 Q1555.35 198.122 1555.35 202.52 L1555.35 216.178 L1551.07 216.178 L1551.07 190.252 L1555.35 190.252 L1555.35 194.28 Q1556.69 191.918 1558.85 190.784 Q1561 189.627 1564.08 189.627 Q1564.52 189.627 1565.05 189.696 Q1565.58 189.743 1566.23 189.858 L1566.25 194.233 Z" fill="#000000" fill-rule="nonzero" fill-opacity="1" /><path clip-path="url(#clip910)" d="M1570.28 205.946 L1570.28 190.252 L1574.54 190.252 L1574.54 205.784 Q1574.54 209.465 1575.98 211.316 Q1577.41 213.145 1580.28 213.145 Q1583.73 213.145 1585.72 210.946 Q1587.74 208.747 1587.74 204.951 L1587.74 190.252 L1592 190.252 L1592 216.178 L1587.74 216.178 L1587.74 212.196 Q1586.19 214.557 1584.13 215.715 Q1582.09 216.849 1579.38 216.849 Q1574.91 216.849 1572.6 214.071 Q1570.28 211.293 1570.28 205.946 M1581 189.627 L1581 189.627 Z" fill="#000000" fill-rule="nonzero" fill-opacity="1" /><path clip-path="url(#clip910)" d="M1622.94 202.15 L1622.94 204.233 L1603.36 204.233 Q1603.64 208.631 1606 210.946 Q1608.38 213.238 1612.62 213.238 Q1615.07 213.238 1617.37 212.636 Q1619.68 212.034 1621.95 210.83 L1621.95 214.858 Q1619.66 215.83 1617.25 216.34 Q1614.84 216.849 1612.37 216.849 Q1606.16 216.849 1602.53 213.238 Q1598.92 209.627 1598.92 203.469 Q1598.92 197.104 1602.34 193.377 Q1605.79 189.627 1611.63 189.627 Q1616.86 189.627 1619.89 193.006 Q1622.94 196.363 1622.94 202.15 M1618.69 200.9 Q1618.64 197.405 1616.72 195.321 Q1614.82 193.238 1611.67 193.238 Q1608.11 193.238 1605.95 195.252 Q1603.82 197.266 1603.5 200.923 L1618.69 200.9 Z" fill="#000000" fill-rule="nonzero" fill-opacity="1" /><polyline clip-path="url(#clip910)" style="stroke:#3da44d; stroke-linecap:round; stroke-linejoin:round; stroke-width:4; stroke-opacity:1; fill:none" points="1361.42,250.738 1505.44,250.738 "/>
<path clip-path="url(#clip910)" d="M1548.22 255.078 Q1548.22 250.379 1546.28 247.717 Q1544.36 245.032 1540.98 245.032 Q1537.6 245.032 1535.65 247.717 Q1533.73 250.379 1533.73 255.078 Q1533.73 259.777 1535.65 262.462 Q1537.6 265.124 1540.98 265.124 Q1544.36 265.124 1546.28 262.462 Q1548.22 259.777 1548.22 255.078 M1533.73 246.027 Q1535.07 243.712 1537.11 242.601 Q1539.17 241.467 1542.02 241.467 Q1546.74 241.467 1549.68 245.217 Q1552.64 248.967 1552.64 255.078 Q1552.64 261.189 1549.68 264.939 Q1546.74 268.689 1542.02 268.689 Q1539.17 268.689 1537.11 267.578 Q1535.07 266.443 1533.73 264.129 L1533.73 268.018 L1529.45 268.018 L1529.45 231.999 L1533.73 231.999 L1533.73 246.027 Z" fill="#000000" fill-rule="nonzero" fill-opacity="1" /><path clip-path="url(#clip910)" d="M1576.23 242.856 L1576.23 246.883 Q1574.43 245.957 1572.48 245.495 Q1570.54 245.032 1568.45 245.032 Q1565.28 245.032 1563.69 246.004 Q1562.11 246.976 1562.11 248.92 Q1562.11 250.402 1563.25 251.258 Q1564.38 252.092 1567.81 252.856 L1569.26 253.18 Q1573.8 254.152 1575.7 255.934 Q1577.62 257.694 1577.62 260.865 Q1577.62 264.476 1574.75 266.582 Q1571.9 268.689 1566.9 268.689 Q1564.82 268.689 1562.55 268.272 Q1560.31 267.879 1557.81 267.068 L1557.81 262.67 Q1560.17 263.897 1562.46 264.522 Q1564.75 265.124 1567 265.124 Q1570 265.124 1571.63 264.106 Q1573.25 263.064 1573.25 261.189 Q1573.25 259.453 1572.07 258.527 Q1570.91 257.601 1566.95 256.744 L1565.47 256.397 Q1561.51 255.564 1559.75 253.851 Q1557.99 252.115 1557.99 249.106 Q1557.99 245.448 1560.58 243.458 Q1563.18 241.467 1567.94 241.467 Q1570.31 241.467 1572.39 241.814 Q1574.47 242.161 1576.23 242.856 Z" fill="#000000" fill-rule="nonzero" fill-opacity="1" /><path clip-path="url(#clip910)" d="M1588.52 264.129 L1588.52 277.879 L1584.24 277.879 L1584.24 242.092 L1588.52 242.092 L1588.52 246.027 Q1589.87 243.712 1591.9 242.601 Q1593.96 241.467 1596.81 241.467 Q1601.53 241.467 1604.47 245.217 Q1607.44 248.967 1607.44 255.078 Q1607.44 261.189 1604.47 264.939 Q1601.53 268.689 1596.81 268.689 Q1593.96 268.689 1591.9 267.578 Q1589.87 266.443 1588.52 264.129 M1603.01 255.078 Q1603.01 250.379 1601.07 247.717 Q1599.15 245.032 1595.77 245.032 Q1592.39 245.032 1590.44 247.717 Q1588.52 250.379 1588.52 255.078 Q1588.52 259.777 1590.44 262.462 Q1592.39 265.124 1595.77 265.124 Q1599.15 265.124 1601.07 262.462 Q1603.01 259.777 1603.01 255.078 Z" fill="#000000" fill-rule="nonzero" fill-opacity="1" /><path clip-path="url(#clip910)" d="M1614.5 231.999 L1618.75 231.999 L1618.75 268.018 L1614.5 268.018 L1614.5 231.999 Z" fill="#000000" fill-rule="nonzero" fill-opacity="1" /><path clip-path="url(#clip910)" d="M1627.67 242.092 L1631.93 242.092 L1631.93 268.018 L1627.67 268.018 L1627.67 242.092 M1627.67 231.999 L1631.93 231.999 L1631.93 237.393 L1627.67 237.393 L1627.67 231.999 Z" fill="#000000" fill-rule="nonzero" fill-opacity="1" /><path clip-path="url(#clip910)" d="M1662.39 252.369 L1662.39 268.018 L1658.13 268.018 L1658.13 252.508 Q1658.13 248.828 1656.69 246.999 Q1655.26 245.17 1652.39 245.17 Q1648.94 245.17 1646.95 247.37 Q1644.96 249.569 1644.96 253.365 L1644.96 268.018 L1640.68 268.018 L1640.68 242.092 L1644.96 242.092 L1644.96 246.12 Q1646.49 243.782 1648.55 242.624 Q1650.63 241.467 1653.34 241.467 Q1657.81 241.467 1660.1 244.245 Q1662.39 246.999 1662.39 252.369 Z" fill="#000000" fill-rule="nonzero" fill-opacity="1" /><path clip-path="url(#clip910)" d="M1693.06 253.99 L1693.06 256.073 L1673.48 256.073 Q1673.75 260.471 1676.12 262.786 Q1678.5 265.078 1682.74 265.078 Q1685.19 265.078 1687.48 264.476 Q1689.8 263.874 1692.06 262.67 L1692.06 266.698 Q1689.77 267.67 1687.37 268.18 Q1684.96 268.689 1682.48 268.689 Q1676.28 268.689 1672.64 265.078 Q1669.03 261.467 1669.03 255.309 Q1669.03 248.944 1672.46 245.217 Q1675.91 241.467 1681.74 241.467 Q1686.97 241.467 1690 244.846 Q1693.06 248.203 1693.06 253.99 M1688.8 252.74 Q1688.75 249.245 1686.83 247.161 Q1684.93 245.078 1681.79 245.078 Q1678.22 245.078 1676.07 247.092 Q1673.94 249.106 1673.62 252.763 L1688.8 252.74 Z" fill="#000000" fill-rule="nonzero" fill-opacity="1" /><path clip-path="url(#clip910)" d="M1719.38 266.42 L1719.38 277.879 L1715.1 277.879 L1715.1 242.254 Q1715.1 231.698 1724.96 231.698 Q1735 231.698 1735 240.61 Q1735 246.953 1731.02 249.268 Q1737.5 251.351 1737.5 257.531 Q1737.5 268.504 1726.35 268.504 Q1721.44 268.504 1719.38 266.42 M1719.38 260.865 Q1721.95 264.869 1726.51 264.869 Q1733.18 264.869 1733.18 257.601 Q1733.18 251.073 1722.43 251.582 L1722.43 247.647 Q1730.84 247.647 1730.84 240.24 Q1730.84 235.171 1725.42 235.171 Q1719.38 235.171 1719.38 242.393 L1719.38 260.865 Z" fill="#000000" fill-rule="nonzero" fill-opacity="1" /><path clip-path="url(#clip910)" d="M1745.93 246.49 L1775.61 246.49 L1775.61 250.379 L1745.93 250.379 L1745.93 246.49 M1745.93 255.934 L1775.61 255.934 L1775.61 259.869 L1745.93 259.869 L1745.93 255.934 Z" fill="#000000" fill-rule="nonzero" fill-opacity="1" /><path clip-path="url(#clip910)" d="M1795.7 236.536 Q1792.09 236.536 1790.26 240.101 Q1788.45 243.643 1788.45 250.772 Q1788.45 257.879 1790.26 261.444 Q1792.09 264.985 1795.7 264.985 Q1799.33 264.985 1801.14 261.444 Q1802.97 257.879 1802.97 250.772 Q1802.97 243.643 1801.14 240.101 Q1799.33 236.536 1795.7 236.536 M1795.7 232.833 Q1801.51 232.833 1804.56 237.439 Q1807.64 242.022 1807.64 250.772 Q1807.64 259.499 1804.56 264.106 Q1801.51 268.689 1795.7 268.689 Q1789.89 268.689 1786.81 264.106 Q1783.75 259.499 1783.75 250.772 Q1783.75 242.022 1786.81 237.439 Q1789.89 232.833 1795.7 232.833 Z" fill="#000000" fill-rule="nonzero" fill-opacity="1" /><path clip-path="url(#clip910)" d="M1815.86 262.138 L1820.74 262.138 L1820.74 268.018 L1815.86 268.018 L1815.86 262.138 Z" fill="#000000" fill-rule="nonzero" fill-opacity="1" /><path clip-path="url(#clip910)" d="M1840.93 236.536 Q1837.32 236.536 1835.49 240.101 Q1833.68 243.643 1833.68 250.772 Q1833.68 257.879 1835.49 261.444 Q1837.32 264.985 1840.93 264.985 Q1844.56 264.985 1846.37 261.444 Q1848.2 257.879 1848.2 250.772 Q1848.2 243.643 1846.37 240.101 Q1844.56 236.536 1840.93 236.536 M1840.93 232.833 Q1846.74 232.833 1849.8 237.439 Q1852.87 242.022 1852.87 250.772 Q1852.87 259.499 1849.8 264.106 Q1846.74 268.689 1840.93 268.689 Q1835.12 268.689 1832.04 264.106 Q1828.99 259.499 1828.99 250.772 Q1828.99 242.022 1832.04 237.439 Q1835.12 232.833 1840.93 232.833 Z" fill="#000000" fill-rule="nonzero" fill-opacity="1" /><path clip-path="url(#clip910)" d="M1873.94 237.532 L1862.13 255.981 L1873.94 255.981 L1873.94 237.532 M1872.71 233.458 L1878.59 233.458 L1878.59 255.981 L1883.52 255.981 L1883.52 259.869 L1878.59 259.869 L1878.59 268.018 L1873.94 268.018 L1873.94 259.869 L1858.34 259.869 L1858.34 255.356 L1872.71 233.458 Z" fill="#000000" fill-rule="nonzero" fill-opacity="1" /><path clip-path="url(#clip910)" d="M1891.74 262.138 L1896.62 262.138 L1896.62 266.119 L1892.83 273.527 L1889.84 273.527 L1891.74 266.119 L1891.74 262.138 Z" fill="#000000" fill-rule="nonzero" fill-opacity="1" /><path clip-path="url(#clip910)" d="M1920.98 233.458 L1927.27 233.458 L1942.6 262.369 L1942.6 233.458 L1947.13 233.458 L1947.13 268.018 L1940.84 268.018 L1925.51 239.106 L1925.51 268.018 L1920.98 268.018 L1920.98 233.458 Z" fill="#000000" fill-rule="nonzero" fill-opacity="1" /><path clip-path="url(#clip910)" d="M1972.83 251.814 Q1974.33 252.323 1975.74 253.99 Q1977.18 255.657 1978.61 258.573 L1983.36 268.018 L1978.34 268.018 L1973.91 259.152 Q1972.2 255.68 1970.58 254.545 Q1968.98 253.411 1966.21 253.411 L1961.11 253.411 L1961.11 268.018 L1956.44 268.018 L1956.44 233.458 L1966.99 233.458 Q1972.92 233.458 1975.84 235.934 Q1978.75 238.411 1978.75 243.411 Q1978.75 246.675 1977.22 248.828 Q1975.72 250.981 1972.83 251.814 M1961.11 237.3 L1961.11 249.569 L1966.99 249.569 Q1970.37 249.569 1972.09 248.018 Q1973.82 246.444 1973.82 243.411 Q1973.82 240.379 1972.09 238.851 Q1970.37 237.3 1966.99 237.3 L1961.11 237.3 Z" fill="#000000" fill-rule="nonzero" fill-opacity="1" /><path clip-path="url(#clip910)" d="M1989.38 233.458 L1996.35 233.458 L2005.16 256.976 L2014.03 233.458 L2021 233.458 L2021 268.018 L2016.44 268.018 L2016.44 237.67 L2007.53 261.374 L2002.83 261.374 L1993.91 237.67 L1993.91 268.018 L1989.38 268.018 L1989.38 233.458 Z" fill="#000000" fill-rule="nonzero" fill-opacity="1" /><path clip-path="url(#clip910)" d="M2051 234.592 L2051 239.152 Q2048.34 237.879 2045.97 237.254 Q2043.61 236.629 2041.41 236.629 Q2037.6 236.629 2035.51 238.11 Q2033.45 239.592 2033.45 242.323 Q2033.45 244.615 2034.82 245.795 Q2036.21 246.953 2040.05 247.67 L2042.87 248.249 Q2048.1 249.245 2050.58 251.768 Q2053.08 254.268 2053.08 258.481 Q2053.08 263.504 2049.7 266.096 Q2046.34 268.689 2039.84 268.689 Q2037.39 268.689 2034.61 268.133 Q2031.85 267.578 2028.89 266.49 L2028.89 261.675 Q2031.74 263.272 2034.47 264.082 Q2037.2 264.893 2039.84 264.893 Q2043.84 264.893 2046.02 263.319 Q2048.2 261.744 2048.2 258.828 Q2048.2 256.282 2046.62 254.846 Q2045.07 253.411 2041.51 252.694 L2038.66 252.138 Q2033.43 251.096 2031.09 248.874 Q2028.75 246.652 2028.75 242.694 Q2028.75 238.11 2031.97 235.471 Q2035.21 232.833 2040.88 232.833 Q2043.31 232.833 2045.84 233.272 Q2048.36 233.712 2051 234.592 Z" fill="#000000" fill-rule="nonzero" fill-opacity="1" /><path clip-path="url(#clip910)" d="M2060.37 233.458 L2082.22 233.458 L2082.22 237.393 L2065.05 237.393 L2065.05 247.624 L2081.51 247.624 L2081.51 251.559 L2065.05 251.559 L2065.05 264.082 L2082.64 264.082 L2082.64 268.018 L2060.37 268.018 L2060.37 233.458 Z" fill="#000000" fill-rule="nonzero" fill-opacity="1" /><path clip-path="url(#clip910)" d="M2090.7 246.49 L2120.37 246.49 L2120.37 250.379 L2090.7 250.379 L2090.7 246.49 M2090.7 255.934 L2120.37 255.934 L2120.37 259.869 L2090.7 259.869 L2090.7 255.934 Z" fill="#000000" fill-rule="nonzero" fill-opacity="1" /><path clip-path="url(#clip910)" d="M2140.46 236.536 Q2136.85 236.536 2135.03 240.101 Q2133.22 243.643 2133.22 250.772 Q2133.22 257.879 2135.03 261.444 Q2136.85 264.985 2140.46 264.985 Q2144.1 264.985 2145.9 261.444 Q2147.73 257.879 2147.73 250.772 Q2147.73 243.643 2145.9 240.101 Q2144.1 236.536 2140.46 236.536 M2140.46 232.833 Q2146.27 232.833 2149.33 237.439 Q2152.41 242.022 2152.41 250.772 Q2152.41 259.499 2149.33 264.106 Q2146.27 268.689 2140.46 268.689 Q2134.65 268.689 2131.58 264.106 Q2128.52 259.499 2128.52 250.772 Q2128.52 242.022 2131.58 237.439 Q2134.65 232.833 2140.46 232.833 Z" fill="#000000" fill-rule="nonzero" fill-opacity="1" /><path clip-path="url(#clip910)" d="M2160.63 262.138 L2165.51 262.138 L2165.51 268.018 L2160.63 268.018 L2160.63 262.138 Z" fill="#000000" fill-rule="nonzero" fill-opacity="1" /><path clip-path="url(#clip910)" d="M2176.51 264.082 L2184.15 264.082 L2184.15 237.717 L2175.84 239.383 L2175.84 235.124 L2184.1 233.458 L2188.77 233.458 L2188.77 264.082 L2196.41 264.082 L2196.41 268.018 L2176.51 268.018 L2176.51 264.082 Z" fill="#000000" fill-rule="nonzero" fill-opacity="1" /><path clip-path="url(#clip910)" d="M2205.9 233.458 L2224.26 233.458 L2224.26 237.393 L2210.19 237.393 L2210.19 245.865 Q2211.21 245.518 2212.22 245.356 Q2213.24 245.17 2214.26 245.17 Q2220.05 245.17 2223.43 248.342 Q2226.81 251.513 2226.81 256.93 Q2226.81 262.508 2223.33 265.61 Q2219.86 268.689 2213.54 268.689 Q2211.37 268.689 2209.1 268.318 Q2206.85 267.948 2204.45 267.207 L2204.45 262.508 Q2206.53 263.643 2208.75 264.198 Q2210.97 264.754 2213.45 264.754 Q2217.46 264.754 2219.79 262.647 Q2222.13 260.541 2222.13 256.93 Q2222.13 253.319 2219.79 251.212 Q2217.46 249.106 2213.45 249.106 Q2211.58 249.106 2209.7 249.522 Q2207.85 249.939 2205.9 250.819 L2205.9 233.458 Z" fill="#000000" fill-rule="nonzero" fill-opacity="1" /><path clip-path="url(#clip910)" d="M2236.83 264.082 L2244.47 264.082 L2244.47 237.717 L2236.16 239.383 L2236.16 235.124 L2244.42 233.458 L2249.1 233.458 L2249.1 264.082 L2256.74 264.082 L2256.74 268.018 L2236.83 268.018 L2236.83 264.082 Z" fill="#000000" fill-rule="nonzero" fill-opacity="1" /></svg>
