<?xml version="1.0" encoding="utf-8"?>
<svg xmlns="http://www.w3.org/2000/svg" xmlns:xlink="http://www.w3.org/1999/xlink" width="600" height="400" viewBox="0 0 2400 1600">
<defs>
  <clipPath id="clip880">
    <rect x="0" y="0" width="2400" height="1600"/>
  </clipPath>
</defs>
<path clip-path="url(#clip880)" d="M0 1600 L2400 1600 L2400 0 L0 0  Z" fill="#ffffff" fill-rule="evenodd" fill-opacity="1"/>
<defs>
  <clipPath id="clip881">
    <rect x="203" y="123" width="2150" height="1301"/>
  </clipPath>
</defs>
<path clip-path="url(#clip880)" d="M203.964 1423.18 L2352.76 1423.18 L2352.76 123.472 L203.964 123.472  Z" fill="#ffffff" fill-rule="evenodd" fill-opacity="1"/>
<polyline clip-path="url(#clip881)" style="stroke:#000000; stroke-linecap:round; stroke-linejoin:round; stroke-width:2; stroke-opacity:0.1; fill:none" points="264.778,1423.18 264.778,123.472 "/>
<polyline clip-path="url(#clip881)" style="stroke:#000000; stroke-linecap:round; stroke-linejoin:round; stroke-width:2; stroke-opacity:0.1; fill:none" points="602.639,1423.18 602.639,123.472 "/>
<polyline clip-path="url(#clip881)" style="stroke:#000000; stroke-linecap:round; stroke-linejoin:round; stroke-width:2; stroke-opacity:0.1; fill:none" points="940.499,1423.18 940.499,123.472 "/>
<polyline clip-path="url(#clip881)" style="stroke:#000000; stroke-linecap:round; stroke-linejoin:round; stroke-width:2; stroke-opacity:0.1; fill:none" points="1278.36,1423.18 1278.36,123.472 "/>
<polyline clip-path="url(#clip881)" style="stroke:#000000; stroke-linecap:round; stroke-linejoin:round; stroke-width:2; stroke-opacity:0.1; fill:none" points="1616.22,1423.18 1616.22,123.472 "/>
<polyline clip-path="url(#clip881)" style="stroke:#000000; stroke-linecap:round; stroke-linejoin:round; stroke-width:2; stroke-opacity:0.1; fill:none" points="1954.08,1423.18 1954.08,123.472 "/>
<polyline clip-path="url(#clip881)" style="stroke:#000000; stroke-linecap:round; stroke-linejoin:round; stroke-width:2; stroke-opacity:0.1; fill:none" points="2291.94,1423.18 2291.94,123.472 "/>
<polyline clip-path="url(#clip881)" style="stroke:#000000; stroke-linecap:round; stroke-linejoin:round; stroke-width:2; stroke-opacity:0.1; fill:none" points="203.964,1423.18 2352.76,1423.18 "/>
<polyline clip-path="url(#clip881)" style="stroke:#000000; stroke-linecap:round; stroke-linejoin:round; stroke-width:2; stroke-opacity:0.1; fill:none" points="203.964,1098.25 2352.76,1098.25 "/>
<polyline clip-path="url(#clip881)" style="stroke:#000000; stroke-linecap:round; stroke-linejoin:round; stroke-width:2; stroke-opacity:0.1; fill:none" points="203.964,773.326 2352.76,773.326 "/>
<polyline clip-path="url(#clip881)" style="stroke:#000000; stroke-linecap:round; stroke-linejoin:round; stroke-width:2; stroke-opacity:0.1; fill:none" points="203.964,448.399 2352.76,448.399 "/>
<polyline clip-path="url(#clip881)" style="stroke:#000000; stroke-linecap:round; stroke-linejoin:round; stroke-width:2; stroke-opacity:0.1; fill:none" points="203.964,123.472 2352.76,123.472 "/>
<polyline clip-path="url(#clip880)" style="stroke:#000000; stroke-linecap:round; stroke-linejoin:round; stroke-width:4; stroke-opacity:1; fill:none" points="203.964,1423.18 2352.76,1423.18 "/>
<polyline clip-path="url(#clip880)" style="stroke:#000000; stroke-linecap:round; stroke-linejoin:round; stroke-width:4; stroke-opacity:1; fill:none" points="264.778,1423.18 264.778,1404.28 "/>
<polyline clip-path="url(#clip880)" style="stroke:#000000; stroke-linecap:round; stroke-linejoin:round; stroke-width:4; stroke-opacity:1; fill:none" points="602.639,1423.18 602.639,1404.28 "/>
<polyline clip-path="url(#clip880)" style="stroke:#000000; stroke-linecap:round; stroke-linejoin:round; stroke-width:4; stroke-opacity:1; fill:none" points="940.499,1423.18 940.499,1404.28 "/>
<polyline clip-path="url(#clip880)" style="stroke:#000000; stroke-linecap:round; stroke-linejoin:round; stroke-width:4; stroke-opacity:1; fill:none" points="1278.36,1423.18 1278.36,1404.28 "/>
<polyline clip-path="url(#clip880)" style="stroke:#000000; stroke-linecap:round; stroke-linejoin:round; stroke-width:4; stroke-opacity:1; fill:none" points="1616.22,1423.18 1616.22,1404.28 "/>
<polyline clip-path="url(#clip880)" style="stroke:#000000; stroke-linecap:round; stroke-linejoin:round; stroke-width:4; stroke-opacity:1; fill:none" points="1954.08,1423.18 1954.08,1404.28 "/>
<polyline clip-path="url(#clip880)" style="stroke:#000000; stroke-linecap:round; stroke-linejoin:round; stroke-width:4; stroke-opacity:1; fill:none" points="2291.94,1423.18 2291.94,1404.28 "/>
<path clip-path="url(#clip880)" d="M234.42 1468.75 L264.096 1468.75 L264.096 1472.69 L234.42 1472.69 L234.42 1468.75 Z" fill="#000000" fill-rule="nonzero" fill-opacity="1" /><path clip-path="url(#clip880)" d="M274.234 1451.02 L292.591 1451.02 L292.591 1454.96 L278.517 1454.96 L278.517 1463.43 Q279.535 1463.08 280.554 1462.92 Q281.572 1462.73 282.591 1462.73 Q288.378 1462.73 291.757 1465.9 Q295.137 1469.08 295.137 1474.49 Q295.137 1480.07 291.665 1483.17 Q288.193 1486.25 281.873 1486.25 Q279.697 1486.25 277.429 1485.88 Q275.183 1485.51 272.776 1484.77 L272.776 1480.07 Q274.859 1481.2 277.082 1481.76 Q279.304 1482.32 281.781 1482.32 Q285.785 1482.32 288.123 1480.21 Q290.461 1478.1 290.461 1474.49 Q290.461 1470.88 288.123 1468.77 Q285.785 1466.67 281.781 1466.67 Q279.906 1466.67 278.031 1467.08 Q276.179 1467.5 274.234 1468.38 L274.234 1451.02 Z" fill="#000000" fill-rule="nonzero" fill-opacity="1" /><path clip-path="url(#clip880)" d="M571.54 1468.75 L601.215 1468.75 L601.215 1472.69 L571.54 1472.69 L571.54 1468.75 Z" fill="#000000" fill-rule="nonzero" fill-opacity="1" /><path clip-path="url(#clip880)" d="M624.155 1455.09 L612.349 1473.54 L624.155 1473.54 L624.155 1455.09 M622.928 1451.02 L628.808 1451.02 L628.808 1473.54 L633.738 1473.54 L633.738 1477.43 L628.808 1477.43 L628.808 1485.58 L624.155 1485.58 L624.155 1477.43 L608.553 1477.43 L608.553 1472.92 L622.928 1451.02 Z" fill="#000000" fill-rule="nonzero" fill-opacity="1" /><path clip-path="url(#clip880)" d="M909.967 1468.75 L939.643 1468.75 L939.643 1472.69 L909.967 1472.69 L909.967 1468.75 Z" fill="#000000" fill-rule="nonzero" fill-opacity="1" /><path clip-path="url(#clip880)" d="M963.902 1466.95 Q967.258 1467.66 969.133 1469.93 Q971.032 1472.2 971.032 1475.53 Q971.032 1480.65 967.513 1483.45 Q963.995 1486.25 957.513 1486.25 Q955.337 1486.25 953.022 1485.81 Q950.731 1485.39 948.277 1484.54 L948.277 1480.02 Q950.221 1481.16 952.536 1481.74 Q954.851 1482.32 957.374 1482.32 Q961.772 1482.32 964.064 1480.58 Q966.379 1478.84 966.379 1475.53 Q966.379 1472.48 964.226 1470.77 Q962.096 1469.03 958.277 1469.03 L954.249 1469.03 L954.249 1465.19 L958.462 1465.19 Q961.911 1465.19 963.74 1463.82 Q965.569 1462.43 965.569 1459.84 Q965.569 1457.18 963.67 1455.77 Q961.795 1454.33 958.277 1454.33 Q956.356 1454.33 954.157 1454.75 Q951.958 1455.16 949.319 1456.04 L949.319 1451.88 Q951.981 1451.14 954.296 1450.77 Q956.633 1450.39 958.694 1450.39 Q964.018 1450.39 967.12 1452.83 Q970.221 1455.23 970.221 1459.35 Q970.221 1462.22 968.578 1464.21 Q966.934 1466.18 963.902 1466.95 Z" fill="#000000" fill-rule="nonzero" fill-opacity="1" /><path clip-path="url(#clip880)" d="M1248.3 1468.75 L1277.98 1468.75 L1277.98 1472.69 L1248.3 1472.69 L1248.3 1468.75 Z" fill="#000000" fill-rule="nonzero" fill-opacity="1" /><path clip-path="url(#clip880)" d="M1292.1 1481.64 L1308.42 1481.64 L1308.42 1485.58 L1286.47 1485.58 L1286.47 1481.64 Q1289.14 1478.89 1293.72 1474.26 Q1298.32 1469.61 1299.51 1468.27 Q1301.75 1465.74 1302.63 1464.01 Q1303.53 1462.25 1303.53 1460.56 Q1303.53 1457.8 1301.59 1456.07 Q1299.67 1454.33 1296.57 1454.33 Q1294.37 1454.33 1291.91 1455.09 Q1289.48 1455.86 1286.7 1457.41 L1286.7 1452.69 Q1289.53 1451.55 1291.98 1450.97 Q1294.44 1450.39 1296.47 1450.39 Q1301.84 1450.39 1305.04 1453.08 Q1308.23 1455.77 1308.23 1460.26 Q1308.23 1462.39 1307.42 1464.31 Q1306.64 1466.2 1304.53 1468.8 Q1303.95 1469.47 1300.85 1472.69 Q1297.75 1475.88 1292.1 1481.64 Z" fill="#000000" fill-rule="nonzero" fill-opacity="1" /><path clip-path="url(#clip880)" d="M1585.98 1468.75 L1615.65 1468.75 L1615.65 1472.69 L1585.98 1472.69 L1585.98 1468.75 Z" fill="#000000" fill-rule="nonzero" fill-opacity="1" /><path clip-path="url(#clip880)" d="M1626.56 1481.64 L1634.19 1481.64 L1634.19 1455.28 L1625.88 1456.95 L1625.88 1452.69 L1634.15 1451.02 L1638.82 1451.02 L1638.82 1481.64 L1646.46 1481.64 L1646.46 1485.58 L1626.56 1485.58 L1626.56 1481.64 Z" fill="#000000" fill-rule="nonzero" fill-opacity="1" /><path clip-path="url(#clip880)" d="M1954.08 1454.1 Q1950.47 1454.1 1948.64 1457.66 Q1946.84 1461.2 1946.84 1468.33 Q1946.84 1475.44 1948.64 1479.01 Q1950.47 1482.55 1954.08 1482.55 Q1957.71 1482.55 1959.52 1479.01 Q1961.35 1475.44 1961.35 1468.33 Q1961.35 1461.2 1959.52 1457.66 Q1957.71 1454.1 1954.08 1454.1 M1954.08 1450.39 Q1959.89 1450.39 1962.95 1455 Q1966.02 1459.58 1966.02 1468.33 Q1966.02 1477.06 1962.95 1481.67 Q1959.89 1486.25 1954.08 1486.25 Q1948.27 1486.25 1945.19 1481.67 Q1942.14 1477.06 1942.14 1468.33 Q1942.14 1459.58 1945.19 1455 Q1948.27 1450.39 1954.08 1450.39 Z" fill="#000000" fill-rule="nonzero" fill-opacity="1" /><path clip-path="url(#clip880)" d="M2282.32 1481.64 L2289.96 1481.64 L2289.96 1455.28 L2281.65 1456.95 L2281.65 1452.69 L2289.92 1451.02 L2294.59 1451.02 L2294.59 1481.64 L2302.23 1481.64 L2302.23 1485.58 L2282.32 1485.58 L2282.32 1481.64 Z" fill="#000000" fill-rule="nonzero" fill-opacity="1" /><path clip-path="url(#clip880)" d="M1146.84 1518.52 L1152.7 1518.52 L1152.7 1568.04 L1146.84 1568.04 L1146.84 1518.52 Z" fill="#000000" fill-rule="nonzero" fill-opacity="1" /><path clip-path="url(#clip880)" d="M1178.77 1536.5 Q1174.06 1536.5 1171.32 1540.19 Q1168.58 1543.85 1168.58 1550.25 Q1168.58 1556.65 1171.29 1560.34 Q1174.03 1564 1178.77 1564 Q1183.45 1564 1186.18 1560.31 Q1188.92 1556.62 1188.92 1550.25 Q1188.92 1543.92 1186.18 1540.23 Q1183.45 1536.5 1178.77 1536.5 M1178.77 1531.54 Q1186.41 1531.54 1190.77 1536.5 Q1195.13 1541.47 1195.13 1550.25 Q1195.13 1559 1190.77 1564 Q1186.41 1568.97 1178.77 1568.97 Q1171.1 1568.97 1166.74 1564 Q1162.41 1559 1162.41 1550.25 Q1162.41 1541.47 1166.74 1536.5 Q1171.1 1531.54 1178.77 1531.54 Z" fill="#000000" fill-rule="nonzero" fill-opacity="1" /><path clip-path="url(#clip880)" d="M1228.29 1549.81 Q1228.29 1543.44 1225.65 1539.94 Q1223.04 1536.44 1218.3 1536.44 Q1213.59 1536.44 1210.95 1539.94 Q1208.34 1543.44 1208.34 1549.81 Q1208.34 1556.14 1210.95 1559.64 Q1213.59 1563.14 1218.3 1563.14 Q1223.04 1563.14 1225.65 1559.64 Q1228.29 1556.14 1228.29 1549.81 M1234.15 1563.62 Q1234.15 1572.72 1230.11 1577.15 Q1226.07 1581.6 1217.73 1581.6 Q1214.64 1581.6 1211.9 1581.13 Q1209.16 1580.68 1206.59 1579.72 L1206.59 1574.03 Q1209.16 1575.43 1211.68 1576.1 Q1214.19 1576.76 1216.8 1576.76 Q1222.56 1576.76 1225.43 1573.74 Q1228.29 1570.75 1228.29 1564.67 L1228.29 1561.77 Q1226.48 1564.92 1223.65 1566.48 Q1220.81 1568.04 1216.87 1568.04 Q1210.31 1568.04 1206.3 1563.05 Q1202.29 1558.05 1202.29 1549.81 Q1202.29 1541.53 1206.3 1536.53 Q1210.31 1531.54 1216.87 1531.54 Q1220.81 1531.54 1223.65 1533.1 Q1226.48 1534.66 1228.29 1537.81 L1228.29 1532.4 L1234.15 1532.4 L1234.15 1563.62 Z" fill="#000000" fill-rule="nonzero" fill-opacity="1" /><path clip-path="url(#clip880)" d="M1248.15 1562.63 L1258.66 1562.63 L1258.66 1526.38 L1247.23 1528.67 L1247.23 1522.82 L1258.59 1520.52 L1265.02 1520.52 L1265.02 1562.63 L1275.53 1562.63 L1275.53 1568.04 L1248.15 1568.04 L1248.15 1562.63 Z" fill="#000000" fill-rule="nonzero" fill-opacity="1" /><path clip-path="url(#clip880)" d="M1302.26 1524.76 Q1297.3 1524.76 1294.78 1529.66 Q1292.3 1534.53 1292.3 1544.33 Q1292.3 1554.1 1294.78 1559 Q1297.3 1563.87 1302.26 1563.87 Q1307.26 1563.87 1309.74 1559 Q1312.26 1554.1 1312.26 1544.33 Q1312.26 1534.53 1309.74 1529.66 Q1307.26 1524.76 1302.26 1524.76 M1302.26 1519.66 Q1310.25 1519.66 1314.45 1526 Q1318.69 1532.3 1318.69 1544.33 Q1318.69 1556.33 1314.45 1562.66 Q1310.25 1568.97 1302.26 1568.97 Q1294.27 1568.97 1290.04 1562.66 Q1285.84 1556.33 1285.84 1544.33 Q1285.84 1532.3 1290.04 1526 Q1294.27 1519.66 1302.26 1519.66 Z" fill="#000000" fill-rule="nonzero" fill-opacity="1" /><path clip-path="url(#clip880)" d="M1343.23 1518.58 Q1338.96 1525.9 1336.89 1533.06 Q1334.82 1540.23 1334.82 1547.58 Q1334.82 1554.93 1336.89 1562.16 Q1338.99 1569.35 1343.23 1576.64 L1338.13 1576.64 Q1333.36 1569.16 1330.97 1561.93 Q1328.62 1554.71 1328.62 1547.58 Q1328.62 1540.48 1330.97 1533.29 Q1333.33 1526.09 1338.13 1518.58 L1343.23 1518.58 Z" fill="#000000" fill-rule="nonzero" fill-opacity="1" /><path clip-path="url(#clip880)" d="M1360.45 1565.85 L1360.45 1581.6 L1354.56 1581.6 L1354.56 1532.62 Q1354.56 1518.1 1368.12 1518.1 Q1381.93 1518.1 1381.93 1530.36 Q1381.93 1539.08 1376.46 1542.26 Q1385.37 1545.13 1385.37 1553.63 Q1385.37 1568.71 1370.03 1568.71 Q1363.28 1568.71 1360.45 1565.85 M1360.45 1558.21 Q1363.98 1563.72 1370.25 1563.72 Q1379.42 1563.72 1379.42 1553.72 Q1379.42 1544.75 1364.65 1545.45 L1364.65 1540.03 Q1376.2 1540.03 1376.2 1529.85 Q1376.2 1522.88 1368.75 1522.88 Q1360.45 1522.88 1360.45 1532.81 L1360.45 1558.21 Z" fill="#000000" fill-rule="nonzero" fill-opacity="1" /><path clip-path="url(#clip880)" d="M1395.27 1518.58 L1400.36 1518.58 Q1405.13 1526.09 1407.49 1533.29 Q1409.88 1540.48 1409.88 1547.58 Q1409.88 1554.71 1407.49 1561.93 Q1405.13 1569.16 1400.36 1576.64 L1395.27 1576.64 Q1399.5 1569.35 1401.57 1562.16 Q1403.67 1554.93 1403.67 1547.58 Q1403.67 1540.23 1401.57 1533.06 Q1399.5 1525.9 1395.27 1518.58 Z" fill="#000000" fill-rule="nonzero" fill-opacity="1" /><polyline clip-path="url(#clip880)" style="stroke:#000000; stroke-linecap:round; stroke-linejoin:round; stroke-width:4; stroke-opacity:1; fill:none" points="203.964,1423.18 203.964,123.472 "/>
<polyline clip-path="url(#clip880)" style="stroke:#000000; stroke-linecap:round; stroke-linejoin:round; stroke-width:4; stroke-opacity:1; fill:none" points="203.964,1423.18 222.861,1423.18 "/>
<polyline clip-path="url(#clip880)" style="stroke:#000000; stroke-linecap:round; stroke-linejoin:round; stroke-width:4; stroke-opacity:1; fill:none" points="203.964,1098.25 222.861,1098.25 "/>
<polyline clip-path="url(#clip880)" style="stroke:#000000; stroke-linecap:round; stroke-linejoin:round; stroke-width:4; stroke-opacity:1; fill:none" points="203.964,773.326 222.861,773.326 "/>
<polyline clip-path="url(#clip880)" style="stroke:#000000; stroke-linecap:round; stroke-linejoin:round; stroke-width:4; stroke-opacity:1; fill:none" points="203.964,448.399 222.861,448.399 "/>
<polyline clip-path="url(#clip880)" style="stroke:#000000; stroke-linecap:round; stroke-linejoin:round; stroke-width:4; stroke-opacity:1; fill:none" points="203.964,123.472 222.861,123.472 "/>
<path clip-path="url(#clip880)" d="M116.668 1436.52 L124.306 1436.52 L124.306 1410.16 L115.996 1411.83 L115.996 1407.57 L124.26 1405.9 L128.936 1405.9 L128.936 1436.52 L136.575 1436.52 L136.575 1440.46 L116.668 1440.46 L116.668 1436.52 Z" fill="#000000" fill-rule="nonzero" fill-opacity="1" /><path clip-path="url(#clip880)" d="M156.019 1408.98 Q152.408 1408.98 150.579 1412.54 Q148.774 1416.08 148.774 1423.21 Q148.774 1430.32 150.579 1433.89 Q152.408 1437.43 156.019 1437.43 Q159.653 1437.43 161.459 1433.89 Q163.288 1430.32 163.288 1423.21 Q163.288 1416.08 161.459 1412.54 Q159.653 1408.98 156.019 1408.98 M156.019 1405.27 Q161.829 1405.27 164.885 1409.88 Q167.964 1414.46 167.964 1423.21 Q167.964 1431.94 164.885 1436.55 Q161.829 1441.13 156.019 1441.13 Q150.209 1441.13 147.13 1436.55 Q144.075 1431.94 144.075 1423.21 Q144.075 1414.46 147.13 1409.88 Q150.209 1405.27 156.019 1405.27 Z" fill="#000000" fill-rule="nonzero" fill-opacity="1" /><path clip-path="url(#clip880)" d="M117.663 1111.6 L125.302 1111.6 L125.302 1085.23 L116.992 1086.9 L116.992 1082.64 L125.255 1080.97 L129.931 1080.97 L129.931 1111.6 L137.57 1111.6 L137.57 1115.53 L117.663 1115.53 L117.663 1111.6 Z" fill="#000000" fill-rule="nonzero" fill-opacity="1" /><path clip-path="url(#clip880)" d="M147.061 1080.97 L165.417 1080.97 L165.417 1084.91 L151.343 1084.91 L151.343 1093.38 Q152.362 1093.03 153.38 1092.87 Q154.399 1092.69 155.417 1092.69 Q161.204 1092.69 164.584 1095.86 Q167.964 1099.03 167.964 1104.45 Q167.964 1110.02 164.491 1113.13 Q161.019 1116.2 154.7 1116.2 Q152.524 1116.2 150.255 1115.83 Q148.01 1115.46 145.603 1114.72 L145.603 1110.02 Q147.686 1111.16 149.908 1111.71 Q152.13 1112.27 154.607 1112.27 Q158.612 1112.27 160.95 1110.16 Q163.288 1108.06 163.288 1104.45 Q163.288 1100.83 160.95 1098.73 Q158.612 1096.62 154.607 1096.62 Q152.732 1096.62 150.857 1097.04 Q149.005 1097.45 147.061 1098.33 L147.061 1080.97 Z" fill="#000000" fill-rule="nonzero" fill-opacity="1" /><path clip-path="url(#clip880)" d="M119.885 786.671 L136.204 786.671 L136.204 790.606 L114.26 790.606 L114.26 786.671 Q116.922 783.916 121.505 779.287 Q126.112 774.634 127.292 773.291 Q129.538 770.768 130.417 769.032 Q131.32 767.273 131.32 765.583 Q131.32 762.828 129.376 761.092 Q127.455 759.356 124.353 759.356 Q122.154 759.356 119.7 760.12 Q117.269 760.884 114.492 762.435 L114.492 757.713 Q117.316 756.578 119.769 756 Q122.223 755.421 124.26 755.421 Q129.63 755.421 132.825 758.106 Q136.019 760.791 136.019 765.282 Q136.019 767.412 135.209 769.333 Q134.422 771.231 132.316 773.824 Q131.737 774.495 128.635 777.713 Q125.533 780.907 119.885 786.671 Z" fill="#000000" fill-rule="nonzero" fill-opacity="1" /><path clip-path="url(#clip880)" d="M156.019 759.125 Q152.408 759.125 150.579 762.689 Q148.774 766.231 148.774 773.361 Q148.774 780.467 150.579 784.032 Q152.408 787.574 156.019 787.574 Q159.653 787.574 161.459 784.032 Q163.288 780.467 163.288 773.361 Q163.288 766.231 161.459 762.689 Q159.653 759.125 156.019 759.125 M156.019 755.421 Q161.829 755.421 164.885 760.027 Q167.964 764.611 167.964 773.361 Q167.964 782.088 164.885 786.694 Q161.829 791.277 156.019 791.277 Q150.209 791.277 147.13 786.694 Q144.075 782.088 144.075 773.361 Q144.075 764.611 147.13 760.027 Q150.209 755.421 156.019 755.421 Z" fill="#000000" fill-rule="nonzero" fill-opacity="1" /><path clip-path="url(#clip880)" d="M120.88 461.744 L137.2 461.744 L137.2 465.679 L115.256 465.679 L115.256 461.744 Q117.918 458.989 122.501 454.36 Q127.107 449.707 128.288 448.364 Q130.533 445.841 131.413 444.105 Q132.316 442.346 132.316 440.656 Q132.316 437.901 130.371 436.165 Q128.45 434.429 125.348 434.429 Q123.149 434.429 120.695 435.193 Q118.265 435.957 115.487 437.508 L115.487 432.786 Q118.311 431.651 120.765 431.073 Q123.218 430.494 125.255 430.494 Q130.626 430.494 133.82 433.179 Q137.015 435.864 137.015 440.355 Q137.015 442.485 136.204 444.406 Q135.417 446.304 133.311 448.897 Q132.732 449.568 129.63 452.786 Q126.529 455.98 120.88 461.744 Z" fill="#000000" fill-rule="nonzero" fill-opacity="1" /><path clip-path="url(#clip880)" d="M147.061 431.119 L165.417 431.119 L165.417 435.054 L151.343 435.054 L151.343 443.526 Q152.362 443.179 153.38 443.017 Q154.399 442.832 155.417 442.832 Q161.204 442.832 164.584 446.003 Q167.964 449.175 167.964 454.591 Q167.964 460.17 164.491 463.272 Q161.019 466.35 154.7 466.35 Q152.524 466.35 150.255 465.98 Q148.01 465.61 145.603 464.869 L145.603 460.17 Q147.686 461.304 149.908 461.86 Q152.13 462.415 154.607 462.415 Q158.612 462.415 160.95 460.309 Q163.288 458.202 163.288 454.591 Q163.288 450.98 160.95 448.874 Q158.612 446.767 154.607 446.767 Q152.732 446.767 150.857 447.184 Q149.005 447.6 147.061 448.48 L147.061 431.119 Z" fill="#000000" fill-rule="nonzero" fill-opacity="1" /><path clip-path="url(#clip880)" d="M130.024 122.118 Q133.38 122.836 135.255 125.104 Q137.154 127.373 137.154 130.706 Q137.154 135.822 133.635 138.623 Q130.117 141.423 123.635 141.423 Q121.459 141.423 119.144 140.984 Q116.853 140.567 114.399 139.71 L114.399 135.197 Q116.343 136.331 118.658 136.91 Q120.973 137.488 123.496 137.488 Q127.894 137.488 130.186 135.752 Q132.501 134.016 132.501 130.706 Q132.501 127.65 130.348 125.937 Q128.218 124.201 124.399 124.201 L120.371 124.201 L120.371 120.359 L124.584 120.359 Q128.033 120.359 129.862 118.993 Q131.691 117.604 131.691 115.012 Q131.691 112.35 129.792 110.937 Q127.917 109.502 124.399 109.502 Q122.478 109.502 120.279 109.919 Q118.08 110.336 115.441 111.215 L115.441 107.049 Q118.103 106.308 120.418 105.937 Q122.755 105.567 124.816 105.567 Q130.14 105.567 133.242 107.998 Q136.343 110.405 136.343 114.525 Q136.343 117.396 134.7 119.386 Q133.056 121.354 130.024 122.118 Z" fill="#000000" fill-rule="nonzero" fill-opacity="1" /><path clip-path="url(#clip880)" d="M156.019 109.271 Q152.408 109.271 150.579 112.836 Q148.774 116.377 148.774 123.507 Q148.774 130.613 150.579 134.178 Q152.408 137.72 156.019 137.72 Q159.653 137.72 161.459 134.178 Q163.288 130.613 163.288 123.507 Q163.288 116.377 161.459 112.836 Q159.653 109.271 156.019 109.271 M156.019 105.567 Q161.829 105.567 164.885 110.174 Q167.964 114.757 167.964 123.507 Q167.964 132.234 164.885 136.84 Q161.829 141.423 156.019 141.423 Q150.209 141.423 147.13 136.84 Q144.075 132.234 144.075 123.507 Q144.075 114.757 147.13 110.174 Q150.209 105.567 156.019 105.567 Z" fill="#000000" fill-rule="nonzero" fill-opacity="1" /><path clip-path="url(#clip880)" d="M16.4842 950.515 L16.4842 941.858 L56.238 920.788 L16.4842 920.788 L16.4842 914.549 L64.0042 914.549 L64.0042 923.207 L24.2503 944.277 L64.0042 944.277 L64.0042 950.515 L16.4842 950.515 Z" fill="#000000" fill-rule="nonzero" fill-opacity="1" /><path clip-path="url(#clip880)" d="M41.7242 879.22 Q42.4244 877.151 44.7161 875.209 Q47.0077 873.236 51.0181 871.262 L64.0042 864.738 L64.0042 871.644 L51.8138 877.724 Q47.0395 880.079 45.48 882.307 Q43.9204 884.503 43.9204 888.322 L43.9204 895.325 L64.0042 895.325 L64.0042 901.754 L16.4842 901.754 L16.4842 887.24 Q16.4842 879.092 19.8898 875.082 Q23.2955 871.071 30.1704 871.071 Q34.6582 871.071 37.6183 873.172 Q40.5784 875.241 41.7242 879.22 M21.7677 895.325 L38.6368 895.325 L38.6368 887.24 Q38.6368 882.593 36.5043 880.238 Q34.34 877.851 30.1704 877.851 Q26.0009 877.851 23.9002 880.238 Q21.7677 882.593 21.7677 887.24 L21.7677 895.325 Z" fill="#000000" fill-rule="nonzero" fill-opacity="1" /><path clip-path="url(#clip880)" d="M16.4842 856.462 L16.4842 846.882 L48.8219 834.755 L16.4842 822.565 L16.4842 812.984 L64.0042 812.984 L64.0042 819.255 L22.277 819.255 L54.8694 831.509 L54.8694 837.97 L22.277 850.224 L64.0042 850.224 L64.0042 856.462 L16.4842 856.462 Z" fill="#000000" fill-rule="nonzero" fill-opacity="1" /><path clip-path="url(#clip880)" d="M18.0438 771.735 L24.314 771.735 Q22.5634 775.395 21.704 778.641 Q20.8447 781.888 20.8447 784.912 Q20.8447 790.163 22.8817 793.028 Q24.9187 795.861 28.6745 795.861 Q31.8255 795.861 33.4488 793.983 Q35.0402 792.073 36.0269 786.789 L36.8226 782.906 Q38.1912 775.713 41.6605 772.307 Q45.098 768.87 50.8908 768.87 Q57.7976 768.87 61.3624 773.517 Q64.9272 778.132 64.9272 787.076 Q64.9272 790.45 64.1633 794.269 Q63.3994 798.057 61.9035 802.131 L55.2831 802.131 Q57.4793 798.216 58.5933 794.46 Q59.7073 790.704 59.7073 787.076 Q59.7073 781.57 57.543 778.578 Q55.3786 775.586 51.3682 775.586 Q47.8671 775.586 45.8937 777.75 Q43.9204 779.883 42.9337 784.784 L42.1698 788.699 Q40.7375 795.892 37.682 799.107 Q34.6264 802.322 29.1837 802.322 Q22.8817 802.322 19.2532 797.898 Q15.6248 793.442 15.6248 785.644 Q15.6248 782.302 16.2295 778.832 Q16.8343 775.363 18.0438 771.735 Z" fill="#000000" fill-rule="nonzero" fill-opacity="1" /><path clip-path="url(#clip880)" d="M16.4842 758.844 L16.4842 728.798 L21.895 728.798 L21.895 752.415 L35.9632 752.415 L35.9632 729.785 L41.3741 729.785 L41.3741 752.415 L58.5933 752.415 L58.5933 728.225 L64.0042 728.225 L64.0042 758.844 L16.4842 758.844 Z" fill="#000000" fill-rule="nonzero" fill-opacity="1" /><path clip-path="url(#clip880)" d="M14.5426 683.124 Q21.8632 687.389 29.0246 689.458 Q36.186 691.527 43.5384 691.527 Q50.8908 691.527 58.1159 689.458 Q65.3091 687.357 72.5979 683.124 L72.5979 688.216 Q65.1182 692.991 57.8931 695.378 Q50.668 697.733 43.5384 697.733 Q36.4406 697.733 29.2474 695.378 Q22.0542 693.023 14.5426 688.216 L14.5426 683.124 Z" fill="#000000" fill-rule="nonzero" fill-opacity="1" /><path clip-path="url(#clip880)" d="M43.0928 630.511 Q43.0928 633.28 45.4481 634.872 Q47.8034 636.431 52.0048 636.431 Q56.1425 636.431 58.5296 634.872 Q60.885 633.28 60.885 630.511 Q60.885 627.806 58.5296 626.246 Q56.1425 624.655 52.0048 624.655 Q47.8353 624.655 45.48 626.246 Q43.0928 627.806 43.0928 630.511 M39.0506 630.511 Q39.0506 625.482 42.5517 622.522 Q46.0529 619.562 52.0048 619.562 Q57.9567 619.562 61.4579 622.554 Q64.9272 625.514 64.9272 630.511 Q64.9272 635.604 61.4579 638.564 Q57.9567 641.524 52.0048 641.524 Q46.021 641.524 42.5517 638.564 Q39.0506 635.572 39.0506 630.511 M19.667 663.358 Q19.667 666.096 22.0542 667.687 Q24.4095 669.247 28.5472 669.247 Q32.7485 669.247 35.1038 667.687 Q37.4592 666.127 37.4592 663.358 Q37.4592 660.589 35.1038 659.03 Q32.7485 657.438 28.5472 657.438 Q24.4413 657.438 22.0542 659.03 Q19.667 660.621 19.667 663.358 M15.6248 634.617 L15.6248 629.525 L64.9272 659.253 L64.9272 664.345 L15.6248 634.617 M15.6248 663.358 Q15.6248 658.329 19.1259 655.338 Q22.5952 652.346 28.5472 652.346 Q34.5628 652.346 38.0321 655.338 Q41.5014 658.298 41.5014 663.358 Q41.5014 668.419 38.0321 671.379 Q34.5309 674.307 28.5472 674.307 Q22.6271 674.307 19.1259 671.347 Q15.6248 668.387 15.6248 663.358 Z" fill="#000000" fill-rule="nonzero" fill-opacity="1" /><path clip-path="url(#clip880)" d="M14.5426 610.746 L14.5426 605.653 Q22.0542 600.879 29.2474 598.524 Q36.4406 596.137 43.5384 596.137 Q50.668 596.137 57.8931 598.524 Q65.1182 600.879 72.5979 605.653 L72.5979 610.746 Q65.3091 606.513 58.1159 604.444 Q50.8908 602.343 43.5384 602.343 Q36.186 602.343 29.0246 604.444 Q21.8632 606.513 14.5426 610.746 Z" fill="#000000" fill-rule="nonzero" fill-opacity="1" /><path clip-path="url(#clip880)" d="M1052.85 12.096 L1063.86 12.096 L1090.68 62.6918 L1090.68 12.096 L1098.62 12.096 L1098.62 72.576 L1087.6 72.576 L1060.79 21.9802 L1060.79 72.576 L1052.85 72.576 L1052.85 12.096 Z" fill="#000000" fill-rule="nonzero" fill-opacity="1" /><path clip-path="url(#clip880)" d="M1143.59 44.2197 Q1146.22 45.1109 1148.69 48.0275 Q1151.2 50.9442 1153.71 56.0483 L1162.02 72.576 L1153.23 72.576 L1145.49 57.061 Q1142.49 50.9847 1139.66 48.9997 Q1136.86 47.0148 1132 47.0148 L1123.09 47.0148 L1123.09 72.576 L1114.91 72.576 L1114.91 12.096 L1133.38 12.096 Q1143.75 12.096 1148.85 16.4305 Q1153.96 20.7649 1153.96 29.5149 Q1153.96 35.2267 1151.28 38.994 Q1148.65 42.7613 1143.59 44.2197 M1123.09 18.8205 L1123.09 40.2903 L1133.38 40.2903 Q1139.29 40.2903 1142.29 37.5762 Q1145.33 34.8216 1145.33 29.5149 Q1145.33 24.2082 1142.29 21.5346 Q1139.29 18.8205 1133.38 18.8205 L1123.09 18.8205 Z" fill="#000000" fill-rule="nonzero" fill-opacity="1" /><path clip-path="url(#clip880)" d="M1172.55 12.096 L1184.74 12.096 L1200.18 53.2532 L1215.69 12.096 L1227.89 12.096 L1227.89 72.576 L1219.91 72.576 L1219.91 19.4686 L1204.31 60.9499 L1196.09 60.9499 L1180.49 19.4686 L1180.49 72.576 L1172.55 72.576 L1172.55 12.096 Z" fill="#000000" fill-rule="nonzero" fill-opacity="1" /><path clip-path="url(#clip880)" d="M1280.39 14.0809 L1280.39 22.0612 Q1275.73 19.8332 1271.59 18.7395 Q1267.46 17.6457 1263.61 17.6457 Q1256.93 17.6457 1253.28 20.2383 Q1249.68 22.8309 1249.68 27.611 Q1249.68 31.6214 1252.07 33.6873 Q1254.5 35.7128 1261.22 36.9686 L1266.17 37.9813 Q1275.32 39.7232 1279.66 44.1387 Q1284.03 48.5136 1284.03 55.8863 Q1284.03 64.6767 1278.12 69.2137 Q1272.24 73.7508 1260.86 73.7508 Q1256.57 73.7508 1251.7 72.7785 Q1246.88 71.8063 1241.7 69.9024 L1241.7 61.4765 Q1246.68 64.2716 1251.46 65.6895 Q1256.24 67.1073 1260.86 67.1073 Q1267.87 67.1073 1271.68 64.3527 Q1275.48 61.598 1275.48 56.4939 Q1275.48 52.0379 1272.73 49.5264 Q1270.01 47.0148 1263.78 45.759 L1258.79 44.7868 Q1249.64 42.9639 1245.55 39.075 Q1241.46 35.1862 1241.46 28.2591 Q1241.46 20.2383 1247.09 15.6203 Q1252.76 11.0023 1262.68 11.0023 Q1266.94 11.0023 1271.35 11.7719 Q1275.77 12.5416 1280.39 14.0809 Z" fill="#000000" fill-rule="nonzero" fill-opacity="1" /><path clip-path="url(#clip880)" d="M1296.79 12.096 L1335.03 12.096 L1335.03 18.9825 L1304.97 18.9825 L1304.97 36.8875 L1333.78 36.8875 L1333.78 43.7741 L1304.97 43.7741 L1304.97 65.6895 L1335.76 65.6895 L1335.76 72.576 L1296.79 72.576 L1296.79 12.096 Z" fill="#000000" fill-rule="nonzero" fill-opacity="1" /><path clip-path="url(#clip880)" d="M1393.16 9.62495 Q1387.73 18.942 1385.1 28.0566 Q1382.47 37.1711 1382.47 46.5287 Q1382.47 55.8863 1385.1 65.0818 Q1387.77 74.2369 1393.16 83.5134 L1386.68 83.5134 Q1380.6 73.9938 1377.57 64.7983 Q1374.57 55.6027 1374.57 46.5287 Q1374.57 37.4952 1377.57 28.3401 Q1380.56 19.1851 1386.68 9.62495 L1393.16 9.62495 Z" fill="#000000" fill-rule="nonzero" fill-opacity="1" /><path clip-path="url(#clip880)" d="M1460.12 45.9616 Q1456.6 45.9616 1454.57 48.9592 Q1452.59 51.9569 1452.59 57.3041 Q1452.59 62.5703 1454.57 65.6084 Q1456.6 68.6061 1460.12 68.6061 Q1463.57 68.6061 1465.55 65.6084 Q1467.58 62.5703 1467.58 57.3041 Q1467.58 51.9974 1465.55 48.9997 Q1463.57 45.9616 1460.12 45.9616 M1460.12 40.8169 Q1466.52 40.8169 1470.29 45.2729 Q1474.06 49.7289 1474.06 57.3041 Q1474.06 64.8793 1470.25 69.3353 Q1466.48 73.7508 1460.12 73.7508 Q1453.64 73.7508 1449.88 69.3353 Q1446.11 64.8793 1446.11 57.3041 Q1446.11 49.6884 1449.88 45.2729 Q1453.68 40.8169 1460.12 40.8169 M1418.32 16.1469 Q1414.83 16.1469 1412.81 19.1851 Q1410.82 22.1828 1410.82 27.4489 Q1410.82 32.7961 1412.81 35.7938 Q1414.79 38.7915 1418.32 38.7915 Q1421.84 38.7915 1423.83 35.7938 Q1425.85 32.7961 1425.85 27.4489 Q1425.85 22.2233 1423.83 19.1851 Q1421.8 16.1469 1418.32 16.1469 M1454.9 11.0023 L1461.38 11.0023 L1423.54 73.7508 L1417.06 73.7508 L1454.9 11.0023 M1418.32 11.0023 Q1424.72 11.0023 1428.53 15.4583 Q1432.33 19.8737 1432.33 27.4489 Q1432.33 35.1051 1428.53 39.5206 Q1424.76 43.9361 1418.32 43.9361 Q1411.88 43.9361 1408.11 39.5206 Q1404.38 35.0646 1404.38 27.4489 Q1404.38 19.9142 1408.15 15.4583 Q1411.92 11.0023 1418.32 11.0023 Z" fill="#000000" fill-rule="nonzero" fill-opacity="1" /><path clip-path="url(#clip880)" d="M1485.28 9.62495 L1491.76 9.62495 Q1497.84 19.1851 1500.84 28.3401 Q1503.87 37.4952 1503.87 46.5287 Q1503.87 55.6027 1500.84 64.7983 Q1497.84 73.9938 1491.76 83.5134 L1485.28 83.5134 Q1490.67 74.2369 1493.3 65.0818 Q1495.97 55.8863 1495.97 46.5287 Q1495.97 37.1711 1493.3 28.0566 Q1490.67 18.942 1485.28 9.62495 Z" fill="#000000" fill-rule="nonzero" fill-opacity="1" /><polyline clip-path="url(#clip881)" style="stroke:#009af9; stroke-linecap:round; stroke-linejoin:round; stroke-width:4; stroke-opacity:1; fill:none" points="264.778,1064.24 332.351,1064.25 399.923,1064.27 467.495,1064.3 535.067,1064.34 602.639,1064.41 670.211,1064.51 737.783,1064.68 805.355,1064.95 872.927,1065.37 940.499,1066.02 1008.07,1067.02 1075.64,1068.54 1143.22,1070.79 1210.79,1074.01 1278.36,1078.3 1345.93,1083.45 1413.5,1088.36 1481.08,1090.16 1548.65,1082.64 1616.22,1053.96 1683.79,984.166 1751.36,845.245 1818.94,606.526 1886.51,244.554 1954.08,-246.764 2021.65,-847.849 2089.22,-1510.96 2156.8,-2170.37 2224.37,-2763.75 2291.94,-3251.82 "/>
<polyline clip-path="url(#clip881)" style="stroke:#ff0000; stroke-linecap:round; stroke-linejoin:round; stroke-width:4; stroke-opacity:1; fill:none" points="1481.08,1423.18 1481.08,-526.382 "/>
</svg>
