<?xml version="1.0" encoding="utf-8"?>
<svg xmlns="http://www.w3.org/2000/svg" xmlns:xlink="http://www.w3.org/1999/xlink" width="600" height="400" viewBox="0 0 2400 1600">
<defs>
  <clipPath id="clip400">
    <rect x="0" y="0" width="2400" height="1600"/>
  </clipPath>
</defs>
<path clip-path="url(#clip400)" d="M0 1600 L2400 1600 L2400 0 L0 0  Z" fill="#ffffff" fill-rule="evenodd" fill-opacity="1"/>
<defs>
  <clipPath id="clip401">
    <rect x="192" y="47" width="2161" height="1440"/>
  </clipPath>
</defs>
<path clip-path="url(#clip400)" d="M192.339 1486.45 L2352.76 1486.45 L2352.76 47.2441 L192.339 47.2441  Z" fill="#ffffff" fill-rule="evenodd" fill-opacity="1"/>
<polyline clip-path="url(#clip401)" style="stroke:#000000; stroke-linecap:round; stroke-linejoin:round; stroke-width:2; stroke-opacity:0.1; fill:none" points="423.327,1486.45 423.327,47.2441 "/>
<polyline clip-path="url(#clip401)" style="stroke:#000000; stroke-linecap:round; stroke-linejoin:round; stroke-width:2; stroke-opacity:0.1; fill:none" points="989.474,1486.45 989.474,47.2441 "/>
<polyline clip-path="url(#clip401)" style="stroke:#000000; stroke-linecap:round; stroke-linejoin:round; stroke-width:2; stroke-opacity:0.1; fill:none" points="1555.62,1486.45 1555.62,47.2441 "/>
<polyline clip-path="url(#clip401)" style="stroke:#000000; stroke-linecap:round; stroke-linejoin:round; stroke-width:2; stroke-opacity:0.1; fill:none" points="2121.77,1486.45 2121.77,47.2441 "/>
<polyline clip-path="url(#clip401)" style="stroke:#000000; stroke-linecap:round; stroke-linejoin:round; stroke-width:2; stroke-opacity:0.1; fill:none" points="192.339,1486.45 2352.76,1486.45 "/>
<polyline clip-path="url(#clip401)" style="stroke:#000000; stroke-linecap:round; stroke-linejoin:round; stroke-width:2; stroke-opacity:0.1; fill:none" points="192.339,1306.55 2352.76,1306.55 "/>
<polyline clip-path="url(#clip401)" style="stroke:#000000; stroke-linecap:round; stroke-linejoin:round; stroke-width:2; stroke-opacity:0.1; fill:none" points="192.339,1126.65 2352.76,1126.65 "/>
<polyline clip-path="url(#clip401)" style="stroke:#000000; stroke-linecap:round; stroke-linejoin:round; stroke-width:2; stroke-opacity:0.1; fill:none" points="192.339,946.746 2352.76,946.746 "/>
<polyline clip-path="url(#clip401)" style="stroke:#000000; stroke-linecap:round; stroke-linejoin:round; stroke-width:2; stroke-opacity:0.1; fill:none" points="192.339,766.846 2352.76,766.846 "/>
<polyline clip-path="url(#clip401)" style="stroke:#000000; stroke-linecap:round; stroke-linejoin:round; stroke-width:2; stroke-opacity:0.1; fill:none" points="192.339,586.946 2352.76,586.946 "/>
<polyline clip-path="url(#clip401)" style="stroke:#000000; stroke-linecap:round; stroke-linejoin:round; stroke-width:2; stroke-opacity:0.1; fill:none" points="192.339,407.045 2352.76,407.045 "/>
<polyline clip-path="url(#clip401)" style="stroke:#000000; stroke-linecap:round; stroke-linejoin:round; stroke-width:2; stroke-opacity:0.1; fill:none" points="192.339,227.145 2352.76,227.145 "/>
<polyline clip-path="url(#clip401)" style="stroke:#000000; stroke-linecap:round; stroke-linejoin:round; stroke-width:2; stroke-opacity:0.1; fill:none" points="192.339,47.2441 2352.76,47.2441 "/>
<polyline clip-path="url(#clip400)" style="stroke:#000000; stroke-linecap:round; stroke-linejoin:round; stroke-width:4; stroke-opacity:1; fill:none" points="192.339,1486.45 2352.76,1486.45 "/>
<polyline clip-path="url(#clip400)" style="stroke:#000000; stroke-linecap:round; stroke-linejoin:round; stroke-width:4; stroke-opacity:1; fill:none" points="423.327,1486.45 423.327,1467.55 "/>
<polyline clip-path="url(#clip400)" style="stroke:#000000; stroke-linecap:round; stroke-linejoin:round; stroke-width:4; stroke-opacity:1; fill:none" points="989.474,1486.45 989.474,1467.55 "/>
<polyline clip-path="url(#clip400)" style="stroke:#000000; stroke-linecap:round; stroke-linejoin:round; stroke-width:4; stroke-opacity:1; fill:none" points="1555.62,1486.45 1555.62,1467.55 "/>
<polyline clip-path="url(#clip400)" style="stroke:#000000; stroke-linecap:round; stroke-linejoin:round; stroke-width:4; stroke-opacity:1; fill:none" points="2121.77,1486.45 2121.77,1467.55 "/>
<path clip-path="url(#clip400)" d="M423.327 1517.37 Q419.716 1517.37 417.887 1520.93 Q416.081 1524.47 416.081 1531.6 Q416.081 1538.71 417.887 1542.27 Q419.716 1545.82 423.327 1545.82 Q426.961 1545.82 428.767 1542.27 Q430.595 1538.71 430.595 1531.6 Q430.595 1524.47 428.767 1520.93 Q426.961 1517.37 423.327 1517.37 M423.327 1513.66 Q429.137 1513.66 432.192 1518.27 Q435.271 1522.85 435.271 1531.6 Q435.271 1540.33 432.192 1544.94 Q429.137 1549.52 423.327 1549.52 Q417.517 1549.52 414.438 1544.94 Q411.382 1540.33 411.382 1531.6 Q411.382 1522.85 414.438 1518.27 Q417.517 1513.66 423.327 1513.66 Z" fill="#000000" fill-rule="nonzero" fill-opacity="1" /><path clip-path="url(#clip400)" d="M979.856 1544.91 L987.495 1544.91 L987.495 1518.55 L979.185 1520.21 L979.185 1515.95 L987.448 1514.29 L992.124 1514.29 L992.124 1544.91 L999.763 1544.91 L999.763 1548.85 L979.856 1548.85 L979.856 1544.91 Z" fill="#000000" fill-rule="nonzero" fill-opacity="1" /><path clip-path="url(#clip400)" d="M1550.27 1544.91 L1566.59 1544.91 L1566.59 1548.85 L1544.65 1548.85 L1544.65 1544.91 Q1547.31 1542.16 1551.89 1537.53 Q1556.5 1532.88 1557.68 1531.53 Q1559.93 1529.01 1560.81 1527.27 Q1561.71 1525.51 1561.71 1523.82 Q1561.71 1521.07 1559.76 1519.33 Q1557.84 1517.6 1554.74 1517.6 Q1552.54 1517.6 1550.09 1518.36 Q1547.66 1519.13 1544.88 1520.68 L1544.88 1515.95 Q1547.7 1514.82 1550.16 1514.24 Q1552.61 1513.66 1554.65 1513.66 Q1560.02 1513.66 1563.21 1516.35 Q1566.41 1519.03 1566.41 1523.52 Q1566.41 1525.65 1565.6 1527.57 Q1564.81 1529.47 1562.7 1532.07 Q1562.13 1532.74 1559.02 1535.95 Q1555.92 1539.15 1550.27 1544.91 Z" fill="#000000" fill-rule="nonzero" fill-opacity="1" /><path clip-path="url(#clip400)" d="M2126.02 1530.21 Q2129.37 1530.93 2131.25 1533.2 Q2133.15 1535.47 2133.15 1538.8 Q2133.15 1543.92 2129.63 1546.72 Q2126.11 1549.52 2119.63 1549.52 Q2117.45 1549.52 2115.14 1549.08 Q2112.84 1548.66 2110.39 1547.81 L2110.39 1543.29 Q2112.34 1544.43 2114.65 1545.01 Q2116.96 1545.58 2119.49 1545.58 Q2123.89 1545.58 2126.18 1543.85 Q2128.49 1542.11 2128.49 1538.8 Q2128.49 1535.75 2126.34 1534.03 Q2124.21 1532.3 2120.39 1532.3 L2116.36 1532.3 L2116.36 1528.45 L2120.58 1528.45 Q2124.02 1528.45 2125.85 1527.09 Q2127.68 1525.7 2127.68 1523.11 Q2127.68 1520.45 2125.78 1519.03 Q2123.91 1517.6 2120.39 1517.6 Q2118.47 1517.6 2116.27 1518.01 Q2114.07 1518.43 2111.43 1519.31 L2111.43 1515.14 Q2114.09 1514.4 2116.41 1514.03 Q2118.75 1513.66 2120.81 1513.66 Q2126.13 1513.66 2129.23 1516.09 Q2132.33 1518.5 2132.33 1522.62 Q2132.33 1525.49 2130.69 1527.48 Q2129.05 1529.45 2126.02 1530.21 Z" fill="#000000" fill-rule="nonzero" fill-opacity="1" /><polyline clip-path="url(#clip400)" style="stroke:#000000; stroke-linecap:round; stroke-linejoin:round; stroke-width:4; stroke-opacity:1; fill:none" points="192.339,1486.45 192.339,47.2441 "/>
<polyline clip-path="url(#clip400)" style="stroke:#000000; stroke-linecap:round; stroke-linejoin:round; stroke-width:4; stroke-opacity:1; fill:none" points="192.339,1486.45 211.236,1486.45 "/>
<polyline clip-path="url(#clip400)" style="stroke:#000000; stroke-linecap:round; stroke-linejoin:round; stroke-width:4; stroke-opacity:1; fill:none" points="192.339,1306.55 211.236,1306.55 "/>
<polyline clip-path="url(#clip400)" style="stroke:#000000; stroke-linecap:round; stroke-linejoin:round; stroke-width:4; stroke-opacity:1; fill:none" points="192.339,1126.65 211.236,1126.65 "/>
<polyline clip-path="url(#clip400)" style="stroke:#000000; stroke-linecap:round; stroke-linejoin:round; stroke-width:4; stroke-opacity:1; fill:none" points="192.339,946.746 211.236,946.746 "/>
<polyline clip-path="url(#clip400)" style="stroke:#000000; stroke-linecap:round; stroke-linejoin:round; stroke-width:4; stroke-opacity:1; fill:none" points="192.339,766.846 211.236,766.846 "/>
<polyline clip-path="url(#clip400)" style="stroke:#000000; stroke-linecap:round; stroke-linejoin:round; stroke-width:4; stroke-opacity:1; fill:none" points="192.339,586.946 211.236,586.946 "/>
<polyline clip-path="url(#clip400)" style="stroke:#000000; stroke-linecap:round; stroke-linejoin:round; stroke-width:4; stroke-opacity:1; fill:none" points="192.339,407.045 211.236,407.045 "/>
<polyline clip-path="url(#clip400)" style="stroke:#000000; stroke-linecap:round; stroke-linejoin:round; stroke-width:4; stroke-opacity:1; fill:none" points="192.339,227.145 211.236,227.145 "/>
<polyline clip-path="url(#clip400)" style="stroke:#000000; stroke-linecap:round; stroke-linejoin:round; stroke-width:4; stroke-opacity:1; fill:none" points="192.339,47.2441 211.236,47.2441 "/>
<path clip-path="url(#clip400)" d="M50.9921 1486.9 L80.6679 1486.9 L80.6679 1490.83 L50.9921 1490.83 L50.9921 1486.9 Z" fill="#000000" fill-rule="nonzero" fill-opacity="1" /><path clip-path="url(#clip400)" d="M100.76 1472.25 Q97.1493 1472.25 95.3206 1475.81 Q93.515 1479.35 93.515 1486.48 Q93.515 1493.59 95.3206 1497.15 Q97.1493 1500.7 100.76 1500.7 Q104.395 1500.7 106.2 1497.15 Q108.029 1493.59 108.029 1486.48 Q108.029 1479.35 106.2 1475.81 Q104.395 1472.25 100.76 1472.25 M100.76 1468.54 Q106.571 1468.54 109.626 1473.15 Q112.705 1477.73 112.705 1486.48 Q112.705 1495.21 109.626 1499.82 Q106.571 1504.4 100.76 1504.4 Q94.9502 1504.4 91.8715 1499.82 Q88.816 1495.21 88.816 1486.48 Q88.816 1477.73 91.8715 1473.15 Q94.9502 1468.54 100.76 1468.54 Z" fill="#000000" fill-rule="nonzero" fill-opacity="1" /><path clip-path="url(#clip400)" d="M120.922 1497.85 L125.807 1497.85 L125.807 1503.73 L120.922 1503.73 L120.922 1497.85 Z" fill="#000000" fill-rule="nonzero" fill-opacity="1" /><path clip-path="url(#clip400)" d="M140.019 1499.79 L156.339 1499.79 L156.339 1503.73 L134.394 1503.73 L134.394 1499.79 Q137.056 1497.04 141.64 1492.41 Q146.246 1487.76 147.427 1486.41 Q149.672 1483.89 150.552 1482.15 Q151.455 1480.39 151.455 1478.7 Q151.455 1475.95 149.51 1474.21 Q147.589 1472.48 144.487 1472.48 Q142.288 1472.48 139.834 1473.24 Q137.404 1474.01 134.626 1475.56 L134.626 1470.83 Q137.45 1469.7 139.904 1469.12 Q142.357 1468.54 144.394 1468.54 Q149.765 1468.54 152.959 1471.23 Q156.154 1473.91 156.154 1478.4 Q156.154 1480.53 155.343 1482.45 Q154.556 1484.35 152.45 1486.95 Q151.871 1487.62 148.769 1490.83 Q145.668 1494.03 140.019 1499.79 Z" fill="#000000" fill-rule="nonzero" fill-opacity="1" /><path clip-path="url(#clip400)" d="M99.1632 1292.35 Q95.5521 1292.35 93.7234 1295.91 Q91.9178 1299.45 91.9178 1306.58 Q91.9178 1313.69 93.7234 1317.25 Q95.5521 1320.8 99.1632 1320.8 Q102.797 1320.8 104.603 1317.25 Q106.432 1313.69 106.432 1306.58 Q106.432 1299.45 104.603 1295.91 Q102.797 1292.35 99.1632 1292.35 M99.1632 1288.64 Q104.973 1288.64 108.029 1293.25 Q111.108 1297.83 111.108 1306.58 Q111.108 1315.31 108.029 1319.92 Q104.973 1324.5 99.1632 1324.5 Q93.353 1324.5 90.2743 1319.92 Q87.2188 1315.31 87.2188 1306.58 Q87.2188 1297.83 90.2743 1293.25 Q93.353 1288.64 99.1632 1288.64 Z" fill="#000000" fill-rule="nonzero" fill-opacity="1" /><path clip-path="url(#clip400)" d="M119.325 1317.95 L124.209 1317.95 L124.209 1323.83 L119.325 1323.83 L119.325 1317.95 Z" fill="#000000" fill-rule="nonzero" fill-opacity="1" /><path clip-path="url(#clip400)" d="M144.394 1292.35 Q140.783 1292.35 138.955 1295.91 Q137.149 1299.45 137.149 1306.58 Q137.149 1313.69 138.955 1317.25 Q140.783 1320.8 144.394 1320.8 Q148.029 1320.8 149.834 1317.25 Q151.663 1313.69 151.663 1306.58 Q151.663 1299.45 149.834 1295.91 Q148.029 1292.35 144.394 1292.35 M144.394 1288.64 Q150.205 1288.64 153.26 1293.25 Q156.339 1297.83 156.339 1306.58 Q156.339 1315.31 153.26 1319.92 Q150.205 1324.5 144.394 1324.5 Q138.584 1324.5 135.506 1319.92 Q132.45 1315.31 132.45 1306.58 Q132.45 1297.83 135.506 1293.25 Q138.584 1288.64 144.394 1288.64 Z" fill="#000000" fill-rule="nonzero" fill-opacity="1" /><path clip-path="url(#clip400)" d="M100.76 1112.45 Q97.1493 1112.45 95.3206 1116.01 Q93.515 1119.55 93.515 1126.68 Q93.515 1133.79 95.3206 1137.35 Q97.1493 1140.89 100.76 1140.89 Q104.395 1140.89 106.2 1137.35 Q108.029 1133.79 108.029 1126.68 Q108.029 1119.55 106.2 1116.01 Q104.395 1112.45 100.76 1112.45 M100.76 1108.74 Q106.571 1108.74 109.626 1113.35 Q112.705 1117.93 112.705 1126.68 Q112.705 1135.41 109.626 1140.01 Q106.571 1144.6 100.76 1144.6 Q94.9502 1144.6 91.8715 1140.01 Q88.816 1135.41 88.816 1126.68 Q88.816 1117.93 91.8715 1113.35 Q94.9502 1108.74 100.76 1108.74 Z" fill="#000000" fill-rule="nonzero" fill-opacity="1" /><path clip-path="url(#clip400)" d="M120.922 1138.05 L125.807 1138.05 L125.807 1143.93 L120.922 1143.93 L120.922 1138.05 Z" fill="#000000" fill-rule="nonzero" fill-opacity="1" /><path clip-path="url(#clip400)" d="M140.019 1139.99 L156.339 1139.99 L156.339 1143.93 L134.394 1143.93 L134.394 1139.99 Q137.056 1137.24 141.64 1132.61 Q146.246 1127.95 147.427 1126.61 Q149.672 1124.09 150.552 1122.35 Q151.455 1120.59 151.455 1118.9 Q151.455 1116.15 149.51 1114.41 Q147.589 1112.68 144.487 1112.68 Q142.288 1112.68 139.834 1113.44 Q137.404 1114.2 134.626 1115.76 L134.626 1111.03 Q137.45 1109.9 139.904 1109.32 Q142.357 1108.74 144.394 1108.74 Q149.765 1108.74 152.959 1111.43 Q156.154 1114.11 156.154 1118.6 Q156.154 1120.73 155.343 1122.65 Q154.556 1124.55 152.45 1127.14 Q151.871 1127.82 148.769 1131.03 Q145.668 1134.23 140.019 1139.99 Z" fill="#000000" fill-rule="nonzero" fill-opacity="1" /><path clip-path="url(#clip400)" d="M98.6771 932.545 Q95.066 932.545 93.2373 936.11 Q91.4317 939.652 91.4317 946.781 Q91.4317 953.888 93.2373 957.452 Q95.066 960.994 98.6771 960.994 Q102.311 960.994 104.117 957.452 Q105.946 953.888 105.946 946.781 Q105.946 939.652 104.117 936.11 Q102.311 932.545 98.6771 932.545 M98.6771 928.841 Q104.487 928.841 107.543 933.448 Q110.621 938.031 110.621 946.781 Q110.621 955.508 107.543 960.114 Q104.487 964.698 98.6771 964.698 Q92.8669 964.698 89.7882 960.114 Q86.7327 955.508 86.7327 946.781 Q86.7327 938.031 89.7882 933.448 Q92.8669 928.841 98.6771 928.841 Z" fill="#000000" fill-rule="nonzero" fill-opacity="1" /><path clip-path="url(#clip400)" d="M118.839 958.147 L123.723 958.147 L123.723 964.026 L118.839 964.026 L118.839 958.147 Z" fill="#000000" fill-rule="nonzero" fill-opacity="1" /><path clip-path="url(#clip400)" d="M146.756 933.541 L134.95 951.989 L146.756 951.989 L146.756 933.541 M145.529 929.466 L151.408 929.466 L151.408 951.989 L156.339 951.989 L156.339 955.878 L151.408 955.878 L151.408 964.026 L146.756 964.026 L146.756 955.878 L131.154 955.878 L131.154 951.364 L145.529 929.466 Z" fill="#000000" fill-rule="nonzero" fill-opacity="1" /><path clip-path="url(#clip400)" d="M99.0011 752.645 Q95.39 752.645 93.5613 756.209 Q91.7558 759.751 91.7558 766.881 Q91.7558 773.987 93.5613 777.552 Q95.39 781.094 99.0011 781.094 Q102.635 781.094 104.441 777.552 Q106.27 773.987 106.27 766.881 Q106.27 759.751 104.441 756.209 Q102.635 752.645 99.0011 752.645 M99.0011 748.941 Q104.811 748.941 107.867 753.547 Q110.946 758.131 110.946 766.881 Q110.946 775.608 107.867 780.214 Q104.811 784.797 99.0011 784.797 Q93.191 784.797 90.1123 780.214 Q87.0567 775.608 87.0567 766.881 Q87.0567 758.131 90.1123 753.547 Q93.191 748.941 99.0011 748.941 Z" fill="#000000" fill-rule="nonzero" fill-opacity="1" /><path clip-path="url(#clip400)" d="M119.163 778.246 L124.047 778.246 L124.047 784.126 L119.163 784.126 L119.163 778.246 Z" fill="#000000" fill-rule="nonzero" fill-opacity="1" /><path clip-path="url(#clip400)" d="M144.811 764.983 Q141.663 764.983 139.811 767.135 Q137.982 769.288 137.982 773.038 Q137.982 776.765 139.811 778.941 Q141.663 781.094 144.811 781.094 Q147.959 781.094 149.788 778.941 Q151.64 776.765 151.64 773.038 Q151.64 769.288 149.788 767.135 Q147.959 764.983 144.811 764.983 M154.093 750.33 L154.093 754.589 Q152.334 753.756 150.529 753.316 Q148.746 752.876 146.987 752.876 Q142.357 752.876 139.904 756.001 Q137.473 759.126 137.126 765.446 Q138.492 763.432 140.552 762.367 Q142.612 761.279 145.089 761.279 Q150.297 761.279 153.306 764.45 Q156.339 767.598 156.339 773.038 Q156.339 778.362 153.191 781.58 Q150.043 784.797 144.811 784.797 Q138.816 784.797 135.644 780.214 Q132.473 775.608 132.473 766.881 Q132.473 758.686 136.362 753.825 Q140.251 748.941 146.802 748.941 Q148.561 748.941 150.343 749.288 Q152.149 749.635 154.093 750.33 Z" fill="#000000" fill-rule="nonzero" fill-opacity="1" /><path clip-path="url(#clip400)" d="M99.2558 572.744 Q95.6447 572.744 93.816 576.309 Q92.0104 579.851 92.0104 586.98 Q92.0104 594.087 93.816 597.651 Q95.6447 601.193 99.2558 601.193 Q102.89 601.193 104.696 597.651 Q106.524 594.087 106.524 586.98 Q106.524 579.851 104.696 576.309 Q102.89 572.744 99.2558 572.744 M99.2558 569.041 Q105.066 569.041 108.121 573.647 Q111.2 578.23 111.2 586.98 Q111.2 595.707 108.121 600.313 Q105.066 604.897 99.2558 604.897 Q93.4456 604.897 90.3669 600.313 Q87.3114 595.707 87.3114 586.98 Q87.3114 578.23 90.3669 573.647 Q93.4456 569.041 99.2558 569.041 Z" fill="#000000" fill-rule="nonzero" fill-opacity="1" /><path clip-path="url(#clip400)" d="M119.418 598.346 L124.302 598.346 L124.302 604.226 L119.418 604.226 L119.418 598.346 Z" fill="#000000" fill-rule="nonzero" fill-opacity="1" /><path clip-path="url(#clip400)" d="M144.487 587.814 Q141.154 587.814 139.232 589.596 Q137.334 591.378 137.334 594.503 Q137.334 597.628 139.232 599.411 Q141.154 601.193 144.487 601.193 Q147.82 601.193 149.742 599.411 Q151.663 597.605 151.663 594.503 Q151.663 591.378 149.742 589.596 Q147.843 587.814 144.487 587.814 M139.811 585.823 Q136.802 585.082 135.112 583.022 Q133.445 580.962 133.445 577.999 Q133.445 573.855 136.385 571.448 Q139.348 569.041 144.487 569.041 Q149.649 569.041 152.589 571.448 Q155.529 573.855 155.529 577.999 Q155.529 580.962 153.839 583.022 Q152.172 585.082 149.186 585.823 Q152.566 586.61 154.441 588.902 Q156.339 591.193 156.339 594.503 Q156.339 599.526 153.26 602.212 Q150.205 604.897 144.487 604.897 Q138.769 604.897 135.691 602.212 Q132.635 599.526 132.635 594.503 Q132.635 591.193 134.533 588.902 Q136.431 586.61 139.811 585.823 M138.098 578.439 Q138.098 581.124 139.765 582.628 Q141.455 584.133 144.487 584.133 Q147.496 584.133 149.186 582.628 Q150.899 581.124 150.899 578.439 Q150.899 575.753 149.186 574.249 Q147.496 572.744 144.487 572.744 Q141.455 572.744 139.765 574.249 Q138.098 575.753 138.098 578.439 Z" fill="#000000" fill-rule="nonzero" fill-opacity="1" /><path clip-path="url(#clip400)" d="M89.9734 420.39 L97.6122 420.39 L97.6122 394.024 L89.3021 395.691 L89.3021 391.432 L97.566 389.765 L102.242 389.765 L102.242 420.39 L109.881 420.39 L109.881 424.325 L89.9734 424.325 L89.9734 420.39 Z" fill="#000000" fill-rule="nonzero" fill-opacity="1" /><path clip-path="url(#clip400)" d="M119.325 418.445 L124.209 418.445 L124.209 424.325 L119.325 424.325 L119.325 418.445 Z" fill="#000000" fill-rule="nonzero" fill-opacity="1" /><path clip-path="url(#clip400)" d="M144.394 392.844 Q140.783 392.844 138.955 396.409 Q137.149 399.95 137.149 407.08 Q137.149 414.186 138.955 417.751 Q140.783 421.293 144.394 421.293 Q148.029 421.293 149.834 417.751 Q151.663 414.186 151.663 407.08 Q151.663 399.95 149.834 396.409 Q148.029 392.844 144.394 392.844 M144.394 389.14 Q150.205 389.14 153.26 393.746 Q156.339 398.33 156.339 407.08 Q156.339 415.807 153.26 420.413 Q150.205 424.996 144.394 424.996 Q138.584 424.996 135.506 420.413 Q132.45 415.807 132.45 407.08 Q132.45 398.33 135.506 393.746 Q138.584 389.14 144.394 389.14 Z" fill="#000000" fill-rule="nonzero" fill-opacity="1" /><path clip-path="url(#clip400)" d="M91.5706 240.489 L99.2095 240.489 L99.2095 214.124 L90.8993 215.79 L90.8993 211.531 L99.1632 209.865 L103.839 209.865 L103.839 240.489 L111.478 240.489 L111.478 244.425 L91.5706 244.425 L91.5706 240.489 Z" fill="#000000" fill-rule="nonzero" fill-opacity="1" /><path clip-path="url(#clip400)" d="M120.922 238.545 L125.807 238.545 L125.807 244.425 L120.922 244.425 L120.922 238.545 Z" fill="#000000" fill-rule="nonzero" fill-opacity="1" /><path clip-path="url(#clip400)" d="M140.019 240.489 L156.339 240.489 L156.339 244.425 L134.394 244.425 L134.394 240.489 Q137.056 237.735 141.64 233.105 Q146.246 228.452 147.427 227.11 Q149.672 224.587 150.552 222.851 Q151.455 221.091 151.455 219.402 Q151.455 216.647 149.51 214.911 Q147.589 213.175 144.487 213.175 Q142.288 213.175 139.834 213.939 Q137.404 214.703 134.626 216.253 L134.626 211.531 Q137.45 210.397 139.904 209.818 Q142.357 209.24 144.394 209.24 Q149.765 209.24 152.959 211.925 Q156.154 214.61 156.154 219.101 Q156.154 221.23 155.343 223.152 Q154.556 225.05 152.45 227.642 Q151.871 228.314 148.769 231.531 Q145.668 234.726 140.019 240.489 Z" fill="#000000" fill-rule="nonzero" fill-opacity="1" /><path clip-path="url(#clip400)" d="M89.4873 60.5889 L97.1261 60.5889 L97.1261 34.2233 L88.816 35.89 L88.816 31.6308 L97.0798 29.9641 L101.756 29.9641 L101.756 60.5889 L109.395 60.5889 L109.395 64.5241 L89.4873 64.5241 L89.4873 60.5889 Z" fill="#000000" fill-rule="nonzero" fill-opacity="1" /><path clip-path="url(#clip400)" d="M118.839 58.6445 L123.723 58.6445 L123.723 64.5241 L118.839 64.5241 L118.839 58.6445 Z" fill="#000000" fill-rule="nonzero" fill-opacity="1" /><path clip-path="url(#clip400)" d="M146.756 34.0381 L134.95 52.4871 L146.756 52.4871 L146.756 34.0381 M145.529 29.9641 L151.408 29.9641 L151.408 52.4871 L156.339 52.4871 L156.339 56.376 L151.408 56.376 L151.408 64.5241 L146.756 64.5241 L146.756 56.376 L131.154 56.376 L131.154 51.8621 L145.529 29.9641 Z" fill="#000000" fill-rule="nonzero" fill-opacity="1" /><circle clip-path="url(#clip401)" cx="466.877" cy="1306.55" r="14.4" fill="#000000" fill-rule="evenodd" fill-opacity="1" stroke="none"/>
<circle clip-path="url(#clip401)" cx="473.682" cy="1306.55" r="14.4" fill="#000000" fill-rule="evenodd" fill-opacity="1" stroke="none"/>
<circle clip-path="url(#clip401)" cx="491.525" cy="1306.55" r="14.4" fill="#000000" fill-rule="evenodd" fill-opacity="1" stroke="none"/>
<circle clip-path="url(#clip401)" cx="497.964" cy="1306.55" r="14.4" fill="#000000" fill-rule="evenodd" fill-opacity="1" stroke="none"/>
<circle clip-path="url(#clip401)" cx="564.578" cy="1306.55" r="14.4" fill="#000000" fill-rule="evenodd" fill-opacity="1" stroke="none"/>
<circle clip-path="url(#clip401)" cx="571.001" cy="1306.55" r="14.4" fill="#000000" fill-rule="evenodd" fill-opacity="1" stroke="none"/>
<circle clip-path="url(#clip401)" cx="587.485" cy="1306.55" r="14.4" fill="#000000" fill-rule="evenodd" fill-opacity="1" stroke="none"/>
<circle clip-path="url(#clip401)" cx="592.726" cy="1306.55" r="14.4" fill="#000000" fill-rule="evenodd" fill-opacity="1" stroke="none"/>
<circle clip-path="url(#clip401)" cx="594.441" cy="1306.55" r="14.4" fill="#000000" fill-rule="evenodd" fill-opacity="1" stroke="none"/>
<circle clip-path="url(#clip401)" cx="595.108" cy="1306.55" r="14.4" fill="#000000" fill-rule="evenodd" fill-opacity="1" stroke="none"/>
<circle clip-path="url(#clip401)" cx="608.992" cy="1306.55" r="14.4" fill="#000000" fill-rule="evenodd" fill-opacity="1" stroke="none"/>
<circle clip-path="url(#clip401)" cx="618.417" cy="1306.55" r="14.4" fill="#000000" fill-rule="evenodd" fill-opacity="1" stroke="none"/>
<circle clip-path="url(#clip401)" cx="622.026" cy="1306.55" r="14.4" fill="#000000" fill-rule="evenodd" fill-opacity="1" stroke="none"/>
<circle clip-path="url(#clip401)" cx="622.609" cy="1306.55" r="14.4" fill="#000000" fill-rule="evenodd" fill-opacity="1" stroke="none"/>
<circle clip-path="url(#clip401)" cx="632.37" cy="1306.55" r="14.4" fill="#000000" fill-rule="evenodd" fill-opacity="1" stroke="none"/>
<circle clip-path="url(#clip401)" cx="644.042" cy="1306.55" r="14.4" fill="#000000" fill-rule="evenodd" fill-opacity="1" stroke="none"/>
<circle clip-path="url(#clip401)" cx="676.816" cy="1306.55" r="14.4" fill="#000000" fill-rule="evenodd" fill-opacity="1" stroke="none"/>
<circle clip-path="url(#clip401)" cx="699.711" cy="1306.55" r="14.4" fill="#000000" fill-rule="evenodd" fill-opacity="1" stroke="none"/>
<circle clip-path="url(#clip401)" cx="726.291" cy="1306.55" r="14.4" fill="#000000" fill-rule="evenodd" fill-opacity="1" stroke="none"/>
<circle clip-path="url(#clip401)" cx="751.62" cy="1306.55" r="14.4" fill="#000000" fill-rule="evenodd" fill-opacity="1" stroke="none"/>
<circle clip-path="url(#clip401)" cx="787.353" cy="1306.55" r="14.4" fill="#000000" fill-rule="evenodd" fill-opacity="1" stroke="none"/>
<circle clip-path="url(#clip401)" cx="799.343" cy="1306.55" r="14.4" fill="#000000" fill-rule="evenodd" fill-opacity="1" stroke="none"/>
<circle clip-path="url(#clip401)" cx="803.392" cy="1306.55" r="14.4" fill="#000000" fill-rule="evenodd" fill-opacity="1" stroke="none"/>
<circle clip-path="url(#clip401)" cx="814.204" cy="1306.55" r="14.4" fill="#000000" fill-rule="evenodd" fill-opacity="1" stroke="none"/>
<circle clip-path="url(#clip401)" cx="820.13" cy="1306.55" r="14.4" fill="#000000" fill-rule="evenodd" fill-opacity="1" stroke="none"/>
<circle clip-path="url(#clip401)" cx="823.685" cy="1306.55" r="14.4" fill="#000000" fill-rule="evenodd" fill-opacity="1" stroke="none"/>
<circle clip-path="url(#clip401)" cx="830.832" cy="1306.55" r="14.4" fill="#000000" fill-rule="evenodd" fill-opacity="1" stroke="none"/>
<circle clip-path="url(#clip401)" cx="861.41" cy="1306.55" r="14.4" fill="#000000" fill-rule="evenodd" fill-opacity="1" stroke="none"/>
<circle clip-path="url(#clip401)" cx="879.897" cy="1306.55" r="14.4" fill="#000000" fill-rule="evenodd" fill-opacity="1" stroke="none"/>
<circle clip-path="url(#clip401)" cx="940.441" cy="1306.55" r="14.4" fill="#000000" fill-rule="evenodd" fill-opacity="1" stroke="none"/>
<circle clip-path="url(#clip401)" cx="953.55" cy="1306.55" r="14.4" fill="#000000" fill-rule="evenodd" fill-opacity="1" stroke="none"/>
<circle clip-path="url(#clip401)" cx="982.684" cy="1306.55" r="14.4" fill="#000000" fill-rule="evenodd" fill-opacity="1" stroke="none"/>
<circle clip-path="url(#clip401)" cx="1010.82" cy="407.045" r="14.4" fill="#000000" fill-rule="evenodd" fill-opacity="1" stroke="none"/>
<circle clip-path="url(#clip401)" cx="1020.17" cy="407.045" r="14.4" fill="#000000" fill-rule="evenodd" fill-opacity="1" stroke="none"/>
<circle clip-path="url(#clip401)" cx="1020.31" cy="407.045" r="14.4" fill="#000000" fill-rule="evenodd" fill-opacity="1" stroke="none"/>
<circle clip-path="url(#clip401)" cx="1037.97" cy="407.045" r="14.4" fill="#000000" fill-rule="evenodd" fill-opacity="1" stroke="none"/>
<circle clip-path="url(#clip401)" cx="1060.92" cy="407.045" r="14.4" fill="#000000" fill-rule="evenodd" fill-opacity="1" stroke="none"/>
<circle clip-path="url(#clip401)" cx="1065.87" cy="407.045" r="14.4" fill="#000000" fill-rule="evenodd" fill-opacity="1" stroke="none"/>
<circle clip-path="url(#clip401)" cx="1077.99" cy="407.045" r="14.4" fill="#000000" fill-rule="evenodd" fill-opacity="1" stroke="none"/>
<circle clip-path="url(#clip401)" cx="1116.45" cy="407.045" r="14.4" fill="#000000" fill-rule="evenodd" fill-opacity="1" stroke="none"/>
<circle clip-path="url(#clip401)" cx="1116.52" cy="407.045" r="14.4" fill="#000000" fill-rule="evenodd" fill-opacity="1" stroke="none"/>
<circle clip-path="url(#clip401)" cx="1127.53" cy="407.045" r="14.4" fill="#000000" fill-rule="evenodd" fill-opacity="1" stroke="none"/>
<circle clip-path="url(#clip401)" cx="1194.56" cy="407.045" r="14.4" fill="#000000" fill-rule="evenodd" fill-opacity="1" stroke="none"/>
<circle clip-path="url(#clip401)" cx="1196.52" cy="407.045" r="14.4" fill="#000000" fill-rule="evenodd" fill-opacity="1" stroke="none"/>
<circle clip-path="url(#clip401)" cx="1219.18" cy="407.045" r="14.4" fill="#000000" fill-rule="evenodd" fill-opacity="1" stroke="none"/>
<circle clip-path="url(#clip401)" cx="1222.03" cy="407.045" r="14.4" fill="#000000" fill-rule="evenodd" fill-opacity="1" stroke="none"/>
<circle clip-path="url(#clip401)" cx="1258.63" cy="407.045" r="14.4" fill="#000000" fill-rule="evenodd" fill-opacity="1" stroke="none"/>
<circle clip-path="url(#clip401)" cx="1275.36" cy="407.045" r="14.4" fill="#000000" fill-rule="evenodd" fill-opacity="1" stroke="none"/>
<circle clip-path="url(#clip401)" cx="1298.34" cy="407.045" r="14.4" fill="#000000" fill-rule="evenodd" fill-opacity="1" stroke="none"/>
<circle clip-path="url(#clip401)" cx="1300.79" cy="407.045" r="14.4" fill="#000000" fill-rule="evenodd" fill-opacity="1" stroke="none"/>
<circle clip-path="url(#clip401)" cx="1312.85" cy="407.045" r="14.4" fill="#000000" fill-rule="evenodd" fill-opacity="1" stroke="none"/>
<circle clip-path="url(#clip401)" cx="1318.39" cy="407.045" r="14.4" fill="#000000" fill-rule="evenodd" fill-opacity="1" stroke="none"/>
<circle clip-path="url(#clip401)" cx="1325.66" cy="407.045" r="14.4" fill="#000000" fill-rule="evenodd" fill-opacity="1" stroke="none"/>
<circle clip-path="url(#clip401)" cx="1327.23" cy="407.045" r="14.4" fill="#000000" fill-rule="evenodd" fill-opacity="1" stroke="none"/>
<circle clip-path="url(#clip401)" cx="1353.47" cy="407.045" r="14.4" fill="#000000" fill-rule="evenodd" fill-opacity="1" stroke="none"/>
<circle clip-path="url(#clip401)" cx="1391.74" cy="407.045" r="14.4" fill="#000000" fill-rule="evenodd" fill-opacity="1" stroke="none"/>
<circle clip-path="url(#clip401)" cx="1421.51" cy="407.045" r="14.4" fill="#000000" fill-rule="evenodd" fill-opacity="1" stroke="none"/>
<circle clip-path="url(#clip401)" cx="1443.88" cy="407.045" r="14.4" fill="#000000" fill-rule="evenodd" fill-opacity="1" stroke="none"/>
<circle clip-path="url(#clip401)" cx="1457.85" cy="407.045" r="14.4" fill="#000000" fill-rule="evenodd" fill-opacity="1" stroke="none"/>
<circle clip-path="url(#clip401)" cx="1483.77" cy="407.045" r="14.4" fill="#000000" fill-rule="evenodd" fill-opacity="1" stroke="none"/>
<circle clip-path="url(#clip401)" cx="1495.48" cy="407.045" r="14.4" fill="#000000" fill-rule="evenodd" fill-opacity="1" stroke="none"/>
<circle clip-path="url(#clip401)" cx="1533.68" cy="407.045" r="14.4" fill="#000000" fill-rule="evenodd" fill-opacity="1" stroke="none"/>
<circle clip-path="url(#clip401)" cx="1535.05" cy="407.045" r="14.4" fill="#000000" fill-rule="evenodd" fill-opacity="1" stroke="none"/>
<circle clip-path="url(#clip401)" cx="1564.68" cy="1306.55" r="14.4" fill="#000000" fill-rule="evenodd" fill-opacity="1" stroke="none"/>
<circle clip-path="url(#clip401)" cx="1576.19" cy="1306.55" r="14.4" fill="#000000" fill-rule="evenodd" fill-opacity="1" stroke="none"/>
<circle clip-path="url(#clip401)" cx="1608.86" cy="1306.55" r="14.4" fill="#000000" fill-rule="evenodd" fill-opacity="1" stroke="none"/>
<circle clip-path="url(#clip401)" cx="1627.6" cy="1306.55" r="14.4" fill="#000000" fill-rule="evenodd" fill-opacity="1" stroke="none"/>
<circle clip-path="url(#clip401)" cx="1633.9" cy="1306.55" r="14.4" fill="#000000" fill-rule="evenodd" fill-opacity="1" stroke="none"/>
<circle clip-path="url(#clip401)" cx="1634.75" cy="1306.55" r="14.4" fill="#000000" fill-rule="evenodd" fill-opacity="1" stroke="none"/>
<circle clip-path="url(#clip401)" cx="1640.42" cy="1306.55" r="14.4" fill="#000000" fill-rule="evenodd" fill-opacity="1" stroke="none"/>
<circle clip-path="url(#clip401)" cx="1650.22" cy="1306.55" r="14.4" fill="#000000" fill-rule="evenodd" fill-opacity="1" stroke="none"/>
<circle clip-path="url(#clip401)" cx="1664.48" cy="1306.55" r="14.4" fill="#000000" fill-rule="evenodd" fill-opacity="1" stroke="none"/>
<circle clip-path="url(#clip401)" cx="1681.51" cy="1306.55" r="14.4" fill="#000000" fill-rule="evenodd" fill-opacity="1" stroke="none"/>
<circle clip-path="url(#clip401)" cx="1686.48" cy="1306.55" r="14.4" fill="#000000" fill-rule="evenodd" fill-opacity="1" stroke="none"/>
<circle clip-path="url(#clip401)" cx="1691.72" cy="1306.55" r="14.4" fill="#000000" fill-rule="evenodd" fill-opacity="1" stroke="none"/>
<circle clip-path="url(#clip401)" cx="1691.97" cy="1306.55" r="14.4" fill="#000000" fill-rule="evenodd" fill-opacity="1" stroke="none"/>
<circle clip-path="url(#clip401)" cx="1712.15" cy="1306.55" r="14.4" fill="#000000" fill-rule="evenodd" fill-opacity="1" stroke="none"/>
<circle clip-path="url(#clip401)" cx="1725.62" cy="1306.55" r="14.4" fill="#000000" fill-rule="evenodd" fill-opacity="1" stroke="none"/>
<circle clip-path="url(#clip401)" cx="1736.82" cy="1306.55" r="14.4" fill="#000000" fill-rule="evenodd" fill-opacity="1" stroke="none"/>
<circle clip-path="url(#clip401)" cx="1756.81" cy="1306.55" r="14.4" fill="#000000" fill-rule="evenodd" fill-opacity="1" stroke="none"/>
<circle clip-path="url(#clip401)" cx="1800.97" cy="1306.55" r="14.4" fill="#000000" fill-rule="evenodd" fill-opacity="1" stroke="none"/>
<circle clip-path="url(#clip401)" cx="1823.29" cy="1306.55" r="14.4" fill="#000000" fill-rule="evenodd" fill-opacity="1" stroke="none"/>
<circle clip-path="url(#clip401)" cx="1829.81" cy="1306.55" r="14.4" fill="#000000" fill-rule="evenodd" fill-opacity="1" stroke="none"/>
<circle clip-path="url(#clip401)" cx="1843.57" cy="1306.55" r="14.4" fill="#000000" fill-rule="evenodd" fill-opacity="1" stroke="none"/>
<circle clip-path="url(#clip401)" cx="1906.92" cy="1306.55" r="14.4" fill="#000000" fill-rule="evenodd" fill-opacity="1" stroke="none"/>
<circle clip-path="url(#clip401)" cx="1947.36" cy="1306.55" r="14.4" fill="#000000" fill-rule="evenodd" fill-opacity="1" stroke="none"/>
<circle clip-path="url(#clip401)" cx="1956.59" cy="1306.55" r="14.4" fill="#000000" fill-rule="evenodd" fill-opacity="1" stroke="none"/>
<circle clip-path="url(#clip401)" cx="1966.19" cy="1306.55" r="14.4" fill="#000000" fill-rule="evenodd" fill-opacity="1" stroke="none"/>
<circle clip-path="url(#clip401)" cx="1966.22" cy="1306.55" r="14.4" fill="#000000" fill-rule="evenodd" fill-opacity="1" stroke="none"/>
<circle clip-path="url(#clip401)" cx="1990.7" cy="1306.55" r="14.4" fill="#000000" fill-rule="evenodd" fill-opacity="1" stroke="none"/>
<circle clip-path="url(#clip401)" cx="2007.54" cy="1306.55" r="14.4" fill="#000000" fill-rule="evenodd" fill-opacity="1" stroke="none"/>
<circle clip-path="url(#clip401)" cx="2019.71" cy="1306.55" r="14.4" fill="#000000" fill-rule="evenodd" fill-opacity="1" stroke="none"/>
<circle clip-path="url(#clip401)" cx="2020.85" cy="1306.55" r="14.4" fill="#000000" fill-rule="evenodd" fill-opacity="1" stroke="none"/>
<circle clip-path="url(#clip401)" cx="2037.76" cy="1306.55" r="14.4" fill="#000000" fill-rule="evenodd" fill-opacity="1" stroke="none"/>
<circle clip-path="url(#clip401)" cx="2040.69" cy="1306.55" r="14.4" fill="#000000" fill-rule="evenodd" fill-opacity="1" stroke="none"/>
<circle clip-path="url(#clip401)" cx="2071.42" cy="1306.55" r="14.4" fill="#000000" fill-rule="evenodd" fill-opacity="1" stroke="none"/>
<circle clip-path="url(#clip401)" cx="2082.14" cy="1306.55" r="14.4" fill="#000000" fill-rule="evenodd" fill-opacity="1" stroke="none"/>
<circle clip-path="url(#clip401)" cx="2095.97" cy="1306.55" r="14.4" fill="#000000" fill-rule="evenodd" fill-opacity="1" stroke="none"/>
<circle clip-path="url(#clip401)" cx="2112.24" cy="1306.55" r="14.4" fill="#000000" fill-rule="evenodd" fill-opacity="1" stroke="none"/>
<circle clip-path="url(#clip401)" cx="2117.14" cy="1306.55" r="14.4" fill="#000000" fill-rule="evenodd" fill-opacity="1" stroke="none"/>
<polyline clip-path="url(#clip401)" style="stroke:#e26f46; stroke-linecap:round; stroke-linejoin:round; stroke-width:4; stroke-opacity:1; fill:none" points="253.483,1306.55 255.521,1306.55 257.559,1306.55 259.597,1306.55 261.635,1306.55 263.673,1306.55 265.711,1306.55 267.75,1306.55 269.788,1306.55 271.826,1306.55 273.864,1306.55 275.902,1306.55 277.94,1306.55 279.978,1306.55 282.016,1306.55 284.055,1306.55 286.093,1306.55 288.131,1306.55 290.169,1306.55 292.207,1306.55 294.245,1306.55 296.283,1306.55 298.322,1306.55 300.36,1306.55 302.398,1306.55 304.436,1306.55 306.474,1306.55 308.512,1306.55 310.55,1306.55 312.588,1306.55 314.627,1306.55 316.665,1306.55 318.703,1306.55 320.741,1306.55 322.779,1306.55 324.817,1306.55 326.855,1306.55 328.893,1306.55 330.932,1306.55 332.97,1306.55 335.008,1306.55 337.046,1306.55 339.084,1306.55 341.122,1306.55 343.16,1306.55 345.198,1306.55 347.237,1306.55 349.275,1306.55 351.313,1306.55 353.351,1306.55 355.389,1306.55 357.427,1306.55 359.465,1306.55 361.504,1306.55 363.542,1306.55 365.58,1306.55 367.618,1306.55 369.656,1306.55 371.694,1306.55 373.732,1306.55 375.77,1306.55 377.809,1306.55 379.847,1306.55 381.885,1306.55 383.923,1306.55 385.961,1306.55 387.999,1306.55 390.037,1306.55 392.075,1306.55 394.114,1306.55 396.152,1306.55 398.19,1306.55 400.228,1306.55 402.266,1306.55 404.304,1306.55 406.342,1306.55 408.38,1306.55 410.419,1306.55 412.457,1306.55 414.495,1306.55 416.533,1306.55 418.571,1306.55 420.609,1306.55 422.647,1306.55 424.686,1306.55 426.724,1306.55 428.762,1306.55 430.8,1306.55 432.838,1306.55 434.876,1306.55 436.914,1306.55 438.952,1306.55 440.991,1306.55 443.029,1306.55 445.067,1306.55 447.105,1306.55 449.143,1306.55 451.181,1306.55 453.219,1306.55 455.257,1306.55 457.296,1306.55 459.334,1306.55 461.372,1306.55 463.41,1306.55 465.448,1306.55 467.486,1306.55 469.524,1306.55 471.563,1306.55 473.601,1306.55 475.639,1306.55 477.677,1306.55 479.715,1306.55 481.753,1306.55 483.791,1306.55 485.829,1306.55 487.868,1306.55 489.906,1306.55 491.944,1306.55 493.982,1306.55 496.02,1306.55 498.058,1306.55 500.096,1306.55 502.134,1306.55 504.173,1306.55 506.211,1306.55 508.249,1306.55 510.287,1306.55 512.325,1306.55 514.363,1306.55 516.401,1306.55 518.439,1306.55 520.478,1306.55 522.516,1306.55 524.554,1306.55 526.592,1306.55 528.63,1306.55 530.668,1306.55 532.706,1306.55 534.745,1306.55 536.783,1306.55 538.821,1306.55 540.859,1306.55 542.897,1306.55 544.935,1306.55 546.973,1306.55 549.011,1306.55 551.05,1306.55 553.088,1306.55 555.126,1306.55 557.164,1306.55 559.202,1306.55 561.24,1306.55 563.278,1306.55 565.316,1306.55 567.355,1306.55 569.393,1306.55 571.431,1306.55 573.469,1306.55 575.507,1306.55 577.545,1306.55 579.583,1306.55 581.621,1306.55 583.66,1306.55 585.698,1306.55 587.736,1306.55 589.774,1306.55 591.812,1306.55 593.85,1306.55 595.888,1306.55 597.927,1306.55 599.965,1306.55 602.003,1306.55 604.041,1306.55 606.079,1306.55 608.117,1306.55 610.155,1306.55 612.193,1306.55 614.232,1306.55 616.27,1306.55 618.308,1306.55 620.346,1306.55 622.384,1306.55 624.422,1306.55 626.46,1306.55 628.498,1306.55 630.537,1306.55 632.575,1306.55 634.613,1306.55 636.651,1306.55 638.689,1306.55 640.727,1306.55 642.765,1306.55 644.804,1306.55 646.842,1306.55 648.88,1306.55 650.918,1306.55 652.956,1306.55 654.994,1306.55 657.032,1306.55 659.07,1306.55 661.109,1306.55 663.147,1306.55 665.185,1306.55 667.223,1306.55 669.261,1306.55 671.299,1306.55 673.337,1306.55 675.375,1306.55 677.414,1306.55 679.452,1306.55 681.49,1306.55 683.528,1306.55 685.566,1306.55 687.604,1306.55 689.642,1306.55 691.68,1306.55 693.719,1306.55 695.757,1306.55 697.795,1306.55 699.833,1306.55 701.871,1306.55 703.909,1306.55 705.947,1306.55 707.986,1306.55 710.024,1306.55 712.062,1306.55 714.1,1306.55 716.138,1306.55 718.176,1306.55 720.214,1306.55 722.252,1306.55 724.291,1306.55 726.329,1306.55 728.367,1306.55 730.405,1306.55 732.443,1306.55 734.481,1306.55 736.519,1306.55 738.557,1306.55 740.596,1306.55 742.634,1306.55 744.672,1306.55 746.71,1306.55 748.748,1306.55 750.786,1306.55 752.824,1306.55 754.862,1306.55 756.901,1306.55 758.939,1306.55 760.977,1306.55 763.015,1306.55 765.053,1306.55 767.091,1306.55 769.129,1306.55 771.168,1306.55 773.206,1306.55 775.244,1306.55 777.282,1306.55 779.32,1306.55 781.358,1306.55 783.396,1306.55 785.434,1306.55 787.473,1306.55 789.511,1306.55 791.549,1306.55 793.587,1306.55 795.625,1306.55 797.663,1306.55 799.701,1306.55 801.739,1306.55 803.778,1306.55 805.816,1306.55 807.854,1306.55 809.892,1306.55 811.93,1306.55 813.968,1306.55 816.006,1306.55 818.044,1306.55 820.083,1306.55 822.121,1306.55 824.159,1306.55 826.197,1306.55 828.235,1306.55 830.273,1306.55 832.311,1306.55 834.35,1306.55 836.388,1306.55 838.426,1306.55 840.464,1306.55 842.502,1306.55 844.54,1306.55 846.578,1306.55 848.616,1306.55 850.655,1306.55 852.693,1306.55 854.731,1306.55 856.769,1306.55 858.807,1306.55 860.845,1306.55 862.883,1306.55 864.921,1306.55 866.96,1306.55 868.998,1306.55 871.036,1306.55 873.074,1306.55 875.112,1306.55 877.15,1306.55 879.188,1306.55 881.227,1306.55 883.265,1306.55 885.303,1306.55 887.341,1306.55 889.379,1306.55 891.417,1306.55 893.455,1306.55 895.493,1306.55 897.532,1306.55 899.57,1306.55 901.608,1306.55 903.646,1306.55 905.684,1306.55 907.722,1306.55 909.76,1306.55 911.798,1306.55 913.837,1306.55 915.875,1306.55 917.913,1306.55 919.951,1306.55 921.989,1306.55 924.027,1306.55 926.065,1306.55 928.103,1306.55 930.142,1306.55 932.18,1306.55 934.218,1306.55 936.256,1306.55 938.294,1306.55 940.332,1306.55 942.37,1306.55 944.409,1306.55 946.447,1306.55 948.485,1306.55 950.523,1306.55 952.561,1306.55 954.599,1306.55 956.637,1306.55 958.675,1306.55 960.714,1306.55 962.752,1306.55 964.79,1306.55 966.828,1306.55 968.866,1306.55 970.904,1306.55 972.942,1306.55 974.98,1306.55 977.019,1306.55 979.057,1306.55 981.095,1306.55 983.133,1306.55 985.171,1306.55 987.209,1306.55 989.247,1306.55 991.285,407.045 993.324,407.045 995.362,407.045 997.4,407.045 999.438,407.045 1001.48,407.045 1003.51,407.045 1005.55,407.045 1007.59,407.045 1009.63,407.045 1011.67,407.045 1013.7,407.045 1015.74,407.045 1017.78,407.045 1019.82,407.045 1021.86,407.045 1023.9,407.045 1025.93,407.045 1027.97,407.045 1030.01,407.045 1032.05,407.045 1034.09,407.045 1036.12,407.045 1038.16,407.045 1040.2,407.045 1042.24,407.045 1044.28,407.045 1046.31,407.045 1048.35,407.045 1050.39,407.045 1052.43,407.045 1054.47,407.045 1056.51,407.045 1058.54,407.045 1060.58,407.045 1062.62,407.045 1064.66,407.045 1066.7,407.045 1068.73,407.045 1070.77,407.045 1072.81,407.045 1074.85,407.045 1076.89,407.045 1078.93,407.045 1080.96,407.045 1083,407.045 1085.04,407.045 1087.08,407.045 1089.12,407.045 1091.15,407.045 1093.19,407.045 1095.23,407.045 1097.27,407.045 1099.31,407.045 1101.34,407.045 1103.38,407.045 1105.42,407.045 1107.46,407.045 1109.5,407.045 1111.54,407.045 1113.57,407.045 1115.61,407.045 1117.65,407.045 1119.69,407.045 1121.73,407.045 1123.76,407.045 1125.8,407.045 1127.84,407.045 1129.88,407.045 1131.92,407.045 1133.95,407.045 1135.99,407.045 1138.03,407.045 1140.07,407.045 1142.11,407.045 1144.15,407.045 1146.18,407.045 1148.22,407.045 1150.26,407.045 1152.3,407.045 1154.34,407.045 1156.37,407.045 1158.41,407.045 1160.45,407.045 1162.49,407.045 1164.53,407.045 1166.56,407.045 1168.6,407.045 1170.64,407.045 1172.68,407.045 1174.72,407.045 1176.76,407.045 1178.79,407.045 1180.83,407.045 1182.87,407.045 1184.91,407.045 1186.95,407.045 1188.98,407.045 1191.02,407.045 1193.06,407.045 1195.1,407.045 1197.14,407.045 1199.17,407.045 1201.21,407.045 1203.25,407.045 1205.29,407.045 1207.33,407.045 1209.37,407.045 1211.4,407.045 1213.44,407.045 1215.48,407.045 1217.52,407.045 1219.56,407.045 1221.59,407.045 1223.63,407.045 1225.67,407.045 1227.71,407.045 1229.75,407.045 1231.78,407.045 1233.82,407.045 1235.86,407.045 1237.9,407.045 1239.94,407.045 1241.98,407.045 1244.01,407.045 1246.05,407.045 1248.09,407.045 1250.13,407.045 1252.17,407.045 1254.2,407.045 1256.24,407.045 1258.28,407.045 1260.32,407.045 1262.36,407.045 1264.39,407.045 1266.43,407.045 1268.47,407.045 1270.51,407.045 1272.55,407.045 1274.59,407.045 1276.62,407.045 1278.66,407.045 1280.7,407.045 1282.74,407.045 1284.78,407.045 1286.81,407.045 1288.85,407.045 1290.89,407.045 1292.93,407.045 1294.97,407.045 1297,407.045 1299.04,407.045 1301.08,407.045 1303.12,407.045 1305.16,407.045 1307.2,407.045 1309.23,407.045 1311.27,407.045 1313.31,407.045 1315.35,407.045 1317.39,407.045 1319.42,407.045 1321.46,407.045 1323.5,407.045 1325.54,407.045 1327.58,407.045 1329.61,407.045 1331.65,407.045 1333.69,407.045 1335.73,407.045 1337.77,407.045 1339.81,407.045 1341.84,407.045 1343.88,407.045 1345.92,407.045 1347.96,407.045 1350,407.045 1352.03,407.045 1354.07,407.045 1356.11,407.045 1358.15,407.045 1360.19,407.045 1362.23,407.045 1364.26,407.045 1366.3,407.045 1368.34,407.045 1370.38,407.045 1372.42,407.045 1374.45,407.045 1376.49,407.045 1378.53,407.045 1380.57,407.045 1382.61,407.045 1384.64,407.045 1386.68,407.045 1388.72,407.045 1390.76,407.045 1392.8,407.045 1394.84,407.045 1396.87,407.045 1398.91,407.045 1400.95,407.045 1402.99,407.045 1405.03,407.045 1407.06,407.045 1409.1,407.045 1411.14,407.045 1413.18,407.045 1415.22,407.045 1417.25,407.045 1419.29,407.045 1421.33,407.045 1423.37,407.045 1425.41,407.045 1427.45,407.045 1429.48,407.045 1431.52,407.045 1433.56,407.045 1435.6,407.045 1437.64,407.045 1439.67,407.045 1441.71,407.045 1443.75,407.045 1445.79,407.045 1447.83,407.045 1449.86,407.045 1451.9,407.045 1453.94,407.045 1455.98,407.045 1458.02,407.045 1460.06,407.045 1462.09,407.045 1464.13,407.045 1466.17,407.045 1468.21,407.045 1470.25,407.045 1472.28,407.045 1474.32,407.045 1476.36,407.045 1478.4,407.045 1480.44,407.045 1482.47,407.045 1484.51,407.045 1486.55,407.045 1488.59,407.045 1490.63,407.045 1492.67,407.045 1494.7,407.045 1496.74,407.045 1498.78,407.045 1500.82,407.045 1502.86,407.045 1504.89,407.045 1506.93,407.045 1508.97,407.045 1511.01,407.045 1513.05,407.045 1515.08,407.045 1517.12,407.045 1519.16,407.045 1521.2,407.045 1523.24,407.045 1525.28,407.045 1527.31,407.045 1529.35,407.045 1531.39,407.045 1533.43,407.045 1535.47,407.045 1537.5,407.045 1539.54,407.045 1541.58,407.045 1543.62,407.045 1545.66,407.045 1547.69,407.045 1549.73,407.045 1551.77,407.045 1553.81,407.045 1555.85,1306.55 1557.89,1306.55 1559.92,1306.55 1561.96,1306.55 1564,1306.55 1566.04,1306.55 1568.08,1306.55 1570.11,1306.55 1572.15,1306.55 1574.19,1306.55 1576.23,1306.55 1578.27,1306.55 1580.3,1306.55 1582.34,1306.55 1584.38,1306.55 1586.42,1306.55 1588.46,1306.55 1590.5,1306.55 1592.53,1306.55 1594.57,1306.55 1596.61,1306.55 1598.65,1306.55 1600.69,1306.55 1602.72,1306.55 1604.76,1306.55 1606.8,1306.55 1608.84,1306.55 1610.88,1306.55 1612.91,1306.55 1614.95,1306.55 1616.99,1306.55 1619.03,1306.55 1621.07,1306.55 1623.11,1306.55 1625.14,1306.55 1627.18,1306.55 1629.22,1306.55 1631.26,1306.55 1633.3,1306.55 1635.33,1306.55 1637.37,1306.55 1639.41,1306.55 1641.45,1306.55 1643.49,1306.55 1645.53,1306.55 1647.56,1306.55 1649.6,1306.55 1651.64,1306.55 1653.68,1306.55 1655.72,1306.55 1657.75,1306.55 1659.79,1306.55 1661.83,1306.55 1663.87,1306.55 1665.91,1306.55 1667.94,1306.55 1669.98,1306.55 1672.02,1306.55 1674.06,1306.55 1676.1,1306.55 1678.14,1306.55 1680.17,1306.55 1682.21,1306.55 1684.25,1306.55 1686.29,1306.55 1688.33,1306.55 1690.36,1306.55 1692.4,1306.55 1694.44,1306.55 1696.48,1306.55 1698.52,1306.55 1700.55,1306.55 1702.59,1306.55 1704.63,1306.55 1706.67,1306.55 1708.71,1306.55 1710.75,1306.55 1712.78,1306.55 1714.82,1306.55 1716.86,1306.55 1718.9,1306.55 1720.94,1306.55 1722.97,1306.55 1725.01,1306.55 1727.05,1306.55 1729.09,1306.55 1731.13,1306.55 1733.16,1306.55 1735.2,1306.55 1737.24,1306.55 1739.28,1306.55 1741.32,1306.55 1743.36,1306.55 1745.39,1306.55 1747.43,1306.55 1749.47,1306.55 1751.51,1306.55 1753.55,1306.55 1755.58,1306.55 1757.62,1306.55 1759.66,1306.55 1761.7,1306.55 1763.74,1306.55 1765.77,1306.55 1767.81,1306.55 1769.85,1306.55 1771.89,1306.55 1773.93,1306.55 1775.97,1306.55 1778,1306.55 1780.04,1306.55 1782.08,1306.55 1784.12,1306.55 1786.16,1306.55 1788.19,1306.55 1790.23,1306.55 1792.27,1306.55 1794.31,1306.55 1796.35,1306.55 1798.38,1306.55 1800.42,1306.55 1802.46,1306.55 1804.5,1306.55 1806.54,1306.55 1808.58,1306.55 1810.61,1306.55 1812.65,1306.55 1814.69,1306.55 1816.73,1306.55 1818.77,1306.55 1820.8,1306.55 1822.84,1306.55 1824.88,1306.55 1826.92,1306.55 1828.96,1306.55 1830.99,1306.55 1833.03,1306.55 1835.07,1306.55 1837.11,1306.55 1839.15,1306.55 1841.19,1306.55 1843.22,1306.55 1845.26,1306.55 1847.3,1306.55 1849.34,1306.55 1851.38,1306.55 1853.41,1306.55 1855.45,1306.55 1857.49,1306.55 1859.53,1306.55 1861.57,1306.55 1863.6,1306.55 1865.64,1306.55 1867.68,1306.55 1869.72,1306.55 1871.76,1306.55 1873.8,1306.55 1875.83,1306.55 1877.87,1306.55 1879.91,1306.55 1881.95,1306.55 1883.99,1306.55 1886.02,1306.55 1888.06,1306.55 1890.1,1306.55 1892.14,1306.55 1894.18,1306.55 1896.21,1306.55 1898.25,1306.55 1900.29,1306.55 1902.33,1306.55 1904.37,1306.55 1906.41,1306.55 1908.44,1306.55 1910.48,1306.55 1912.52,1306.55 1914.56,1306.55 1916.6,1306.55 1918.63,1306.55 1920.67,1306.55 1922.71,1306.55 1924.75,1306.55 1926.79,1306.55 1928.82,1306.55 1930.86,1306.55 1932.9,1306.55 1934.94,1306.55 1936.98,1306.55 1939.02,1306.55 1941.05,1306.55 1943.09,1306.55 1945.13,1306.55 1947.17,1306.55 1949.21,1306.55 1951.24,1306.55 1953.28,1306.55 1955.32,1306.55 1957.36,1306.55 1959.4,1306.55 1961.44,1306.55 1963.47,1306.55 1965.51,1306.55 1967.55,1306.55 1969.59,1306.55 1971.63,1306.55 1973.66,1306.55 1975.7,1306.55 1977.74,1306.55 1979.78,1306.55 1981.82,1306.55 1983.85,1306.55 1985.89,1306.55 1987.93,1306.55 1989.97,1306.55 1992.01,1306.55 1994.05,1306.55 1996.08,1306.55 1998.12,1306.55 2000.16,1306.55 2002.2,1306.55 2004.24,1306.55 2006.27,1306.55 2008.31,1306.55 2010.35,1306.55 2012.39,1306.55 2014.43,1306.55 2016.46,1306.55 2018.5,1306.55 2020.54,1306.55 2022.58,1306.55 2024.62,1306.55 2026.66,1306.55 2028.69,1306.55 2030.73,1306.55 2032.77,1306.55 2034.81,1306.55 2036.85,1306.55 2038.88,1306.55 2040.92,1306.55 2042.96,1306.55 2045,1306.55 2047.04,1306.55 2049.07,1306.55 2051.11,1306.55 2053.15,1306.55 2055.19,1306.55 2057.23,1306.55 2059.27,1306.55 2061.3,1306.55 2063.34,1306.55 2065.38,1306.55 2067.42,1306.55 2069.46,1306.55 2071.49,1306.55 2073.53,1306.55 2075.57,1306.55 2077.61,1306.55 2079.65,1306.55 2081.68,1306.55 2083.72,1306.55 2085.76,1306.55 2087.8,1306.55 2089.84,1306.55 2091.88,1306.55 2093.91,1306.55 2095.95,1306.55 2097.99,1306.55 2100.03,1306.55 2102.07,1306.55 2104.1,1306.55 2106.14,1306.55 2108.18,1306.55 2110.22,1306.55 2112.26,1306.55 2114.29,1306.55 2116.33,1306.55 2118.37,1306.55 2120.41,1306.55 2122.45,1306.55 2124.49,1306.55 2126.52,1306.55 2128.56,1306.55 2130.6,1306.55 2132.64,1306.55 2134.68,1306.55 2136.71,1306.55 2138.75,1306.55 2140.79,1306.55 2142.83,1306.55 2144.87,1306.55 2146.9,1306.55 2148.94,1306.55 2150.98,1306.55 2153.02,1306.55 2155.06,1306.55 2157.1,1306.55 2159.13,1306.55 2161.17,1306.55 2163.21,1306.55 2165.25,1306.55 2167.29,1306.55 2169.32,1306.55 2171.36,1306.55 2173.4,1306.55 2175.44,1306.55 2177.48,1306.55 2179.51,1306.55 2181.55,1306.55 2183.59,1306.55 2185.63,1306.55 2187.67,1306.55 2189.71,1306.55 2191.74,1306.55 2193.78,1306.55 2195.82,1306.55 2197.86,1306.55 2199.9,1306.55 2201.93,1306.55 2203.97,1306.55 2206.01,1306.55 2208.05,1306.55 2210.09,1306.55 2212.12,1306.55 2214.16,1306.55 2216.2,1306.55 2218.24,1306.55 2220.28,1306.55 2222.32,1306.55 2224.35,1306.55 2226.39,1306.55 2228.43,1306.55 2230.47,1306.55 2232.51,1306.55 2234.54,1306.55 2236.58,1306.55 2238.62,1306.55 2240.66,1306.55 2242.7,1306.55 2244.74,1306.55 2246.77,1306.55 2248.81,1306.55 2250.85,1306.55 2252.89,1306.55 2254.93,1306.55 2256.96,1306.55 2259,1306.55 2261.04,1306.55 2263.08,1306.55 2265.12,1306.55 2267.15,1306.55 2269.19,1306.55 2271.23,1306.55 2273.27,1306.55 2275.31,1306.55 2277.35,1306.55 2279.38,1306.55 2281.42,1306.55 2283.46,1306.55 2285.5,1306.55 2287.54,1306.55 2289.57,1306.55 2291.61,1306.55 "/>
<polyline clip-path="url(#clip401)" style="stroke:#3da44d; stroke-linecap:round; stroke-linejoin:round; stroke-width:4; stroke-opacity:1; fill:none" points="253.483,1306.55 255.521,1306.55 257.559,1306.55 259.597,1306.55 261.635,1306.55 263.673,1306.55 265.711,1306.55 267.75,1306.55 269.788,1306.55 271.826,1306.55 273.864,1306.55 275.902,1306.55 277.94,1306.55 279.978,1306.55 282.016,1306.55 284.055,1306.55 286.093,1306.55 288.131,1306.55 290.169,1306.55 292.207,1306.55 294.245,1306.55 296.283,1306.55 298.322,1306.55 300.36,1306.55 302.398,1306.55 304.436,1306.55 306.474,1306.55 308.512,1306.55 310.55,1306.55 312.588,1306.55 314.627,1306.55 316.665,1306.55 318.703,1306.55 320.741,1306.55 322.779,1306.55 324.817,1306.55 326.855,1306.55 328.893,1306.55 330.932,1306.55 332.97,1306.55 335.008,1306.55 337.046,1306.55 339.084,1306.55 341.122,1306.55 343.16,1306.55 345.198,1306.55 347.237,1306.55 349.275,1306.55 351.313,1306.55 353.351,1306.55 355.389,1306.55 357.427,1306.55 359.465,1306.55 361.504,1306.55 363.542,1306.55 365.58,1306.55 367.618,1306.55 369.656,1306.55 371.694,1306.55 373.732,1306.55 375.77,1306.55 377.809,1306.55 379.847,1306.55 381.885,1306.55 383.923,1306.55 385.961,1306.55 387.999,1306.55 390.037,1306.55 392.075,1306.55 394.114,1306.55 396.152,1306.55 398.19,1306.55 400.228,1306.55 402.266,1306.55 404.304,1306.55 406.342,1306.55 408.38,1306.55 410.419,1306.55 412.457,1306.55 414.495,1306.55 416.533,1306.55 418.571,1306.55 420.609,1306.55 422.647,1306.55 424.686,1306.55 426.724,1306.55 428.762,1306.55 430.8,1306.55 432.838,1306.55 434.876,1306.55 436.914,1306.55 438.952,1306.55 440.991,1306.55 443.029,1306.55 445.067,1306.55 447.105,1306.55 449.143,1306.55 451.181,1306.55 453.219,1306.55 455.257,1306.55 457.296,1306.55 459.334,1306.55 461.372,1306.55 463.41,1306.55 465.448,1306.55 467.486,1306.55 469.524,1306.55 471.563,1306.55 473.601,1306.55 475.639,1306.55 477.677,1306.55 479.715,1306.55 481.753,1306.55 483.791,1306.55 485.829,1306.55 487.868,1306.55 489.906,1306.55 491.944,1306.55 493.982,1306.55 496.02,1306.55 498.058,1306.55 500.096,1306.55 502.134,1306.55 504.173,1306.55 506.211,1306.55 508.249,1306.55 510.287,1306.55 512.325,1306.55 514.363,1306.55 516.401,1306.55 518.439,1306.55 520.478,1306.55 522.516,1306.54 524.554,1306.54 526.592,1306.54 528.63,1306.54 530.668,1306.54 532.706,1306.54 534.745,1306.54 536.783,1306.54 538.821,1306.54 540.859,1306.54 542.897,1306.54 544.935,1306.54 546.973,1306.54 549.011,1306.54 551.05,1306.54 553.088,1306.54 555.126,1306.54 557.164,1306.54 559.202,1306.54 561.24,1306.55 563.278,1306.55 565.316,1306.55 567.355,1306.55 569.393,1306.55 571.431,1306.55 573.469,1306.55 575.507,1306.55 577.545,1306.55 579.583,1306.55 581.621,1306.55 583.66,1306.55 585.698,1306.55 587.736,1306.55 589.774,1306.55 591.812,1306.55 593.85,1306.55 595.888,1306.55 597.927,1306.55 599.965,1306.55 602.003,1306.55 604.041,1306.55 606.079,1306.55 608.117,1306.54 610.155,1306.54 612.193,1306.54 614.232,1306.54 616.27,1306.54 618.308,1306.54 620.346,1306.54 622.384,1306.54 624.422,1306.54 626.46,1306.54 628.498,1306.54 630.537,1306.54 632.575,1306.54 634.613,1306.55 636.651,1306.55 638.689,1306.55 640.727,1306.56 642.765,1306.56 644.804,1306.56 646.842,1306.57 648.88,1306.57 650.918,1306.58 652.956,1306.59 654.994,1306.59 657.032,1306.6 659.07,1306.6 661.109,1306.6 663.147,1306.61 665.185,1306.61 667.223,1306.61 669.261,1306.61 671.299,1306.61 673.337,1306.61 675.375,1306.6 677.414,1306.6 679.452,1306.59 681.49,1306.58 683.528,1306.57 685.566,1306.56 687.604,1306.54 689.642,1306.53 691.68,1306.51 693.719,1306.49 695.757,1306.47 697.795,1306.45 699.833,1306.44 701.871,1306.42 703.909,1306.4 705.947,1306.39 707.986,1306.38 710.024,1306.37 712.062,1306.36 714.1,1306.36 716.138,1306.36 718.176,1306.37 720.214,1306.38 722.252,1306.4 724.291,1306.42 726.329,1306.45 728.367,1306.48 730.405,1306.53 732.443,1306.57 734.481,1306.62 736.519,1306.68 738.557,1306.74 740.596,1306.8 742.634,1306.86 744.672,1306.91 746.71,1306.97 748.748,1307.02 750.786,1307.07 752.824,1307.11 754.862,1307.15 756.901,1307.18 758.939,1307.2 760.977,1307.21 763.015,1307.2 765.053,1307.19 767.091,1307.16 769.129,1307.12 771.168,1307.06 773.206,1306.99 775.244,1306.9 777.282,1306.8 779.32,1306.69 781.358,1306.57 783.396,1306.45 785.434,1306.33 787.473,1306.22 789.511,1306.1 791.549,1306 793.587,1305.9 795.625,1305.82 797.663,1305.76 799.701,1305.72 801.739,1305.69 803.778,1305.7 805.816,1305.73 807.854,1305.79 809.892,1305.89 811.93,1306.02 813.968,1306.2 816.006,1306.41 818.044,1306.67 820.083,1306.96 822.121,1307.28 824.159,1307.61 826.197,1307.95 828.235,1308.29 830.273,1308.63 832.311,1308.95 834.35,1309.25 836.388,1309.52 838.426,1309.75 840.464,1309.93 842.502,1310.05 844.54,1310.11 846.578,1310.1 848.616,1310.01 850.655,1309.84 852.693,1309.57 854.731,1309.19 856.769,1308.7 858.807,1308.09 860.845,1307.36 862.883,1306.53 864.921,1305.62 866.96,1304.65 868.998,1303.66 871.036,1302.66 873.074,1301.69 875.112,1300.77 877.15,1299.91 879.188,1299.16 881.227,1298.53 883.265,1298.05 885.303,1297.74 887.341,1297.62 889.379,1297.74 891.417,1298.1 893.455,1298.73 895.493,1299.67 897.532,1300.93 899.57,1302.53 901.608,1304.52 903.646,1306.89 905.684,1309.64 907.722,1312.68 909.76,1315.95 911.798,1319.39 913.837,1322.92 915.875,1326.47 917.913,1329.98 919.951,1333.38 921.989,1336.61 924.027,1339.59 926.065,1342.25 928.103,1344.53 930.142,1346.35 932.18,1347.66 934.218,1348.39 936.256,1348.45 938.294,1347.8 940.332,1346.35 942.37,1344.04 944.409,1340.8 946.447,1336.57 948.485,1331.29 950.523,1324.96 952.561,1317.55 954.599,1309.06 956.637,1299.48 958.675,1288.81 960.714,1277.01 962.752,1264.1 964.79,1250.06 966.828,1234.87 968.866,1218.54 970.904,1201.03 972.942,1182.36 974.98,1162.5 977.019,1141.45 979.057,1119.19 981.095,1095.72 983.133,1071.03 985.171,1045.1 987.209,1017.92 989.247,989.488 991.285,959.813 993.324,929.047 995.362,897.384 997.4,865.021 999.438,832.154 1001.48,798.98 1003.51,765.695 1005.55,732.496 1007.59,699.579 1009.63,667.14 1011.67,635.376 1013.7,604.483 1015.74,574.658 1017.78,546.096 1019.82,518.995 1021.86,493.55 1023.9,469.958 1025.93,448.416 1027.97,429.119 1030.01,412.265 1032.05,398.049 1034.09,386.659 1036.12,378.086 1038.16,372.136 1040.2,368.61 1042.24,367.306 1044.28,368.024 1046.31,370.563 1048.35,374.723 1050.39,380.303 1052.43,387.102 1054.47,394.92 1056.51,403.556 1058.54,412.809 1060.58,422.48 1062.62,432.366 1064.66,442.268 1066.7,451.985 1068.73,461.317 1070.77,470.062 1072.81,478.02 1074.85,484.991 1076.89,490.773 1078.93,495.249 1080.96,498.502 1083,500.653 1085.04,501.819 1087.08,502.118 1089.12,501.668 1091.15,500.589 1093.19,498.997 1095.23,497.012 1097.27,494.752 1099.31,492.334 1101.34,489.878 1103.38,487.501 1105.42,485.322 1107.46,483.458 1109.5,482.029 1111.54,481.152 1113.57,480.946 1115.61,481.529 1117.65,483.02 1119.69,485.535 1121.73,489.175 1123.76,493.884 1125.8,499.536 1127.84,506.006 1129.88,513.166 1131.92,520.89 1133.95,529.053 1135.99,537.527 1138.03,546.187 1140.07,554.906 1142.11,563.558 1144.15,572.016 1146.18,580.154 1148.22,587.846 1150.26,594.966 1152.3,601.386 1154.34,606.982 1156.37,611.626 1158.41,615.192 1160.45,617.554 1162.49,618.586 1164.53,618.164 1166.56,616.273 1168.6,613.033 1170.64,608.569 1172.68,603.01 1174.72,596.482 1176.76,589.113 1178.79,581.029 1180.83,572.358 1182.87,563.226 1184.91,553.762 1186.95,544.091 1188.98,534.342 1191.02,524.64 1193.06,515.113 1195.1,505.889 1197.14,497.094 1199.17,488.856 1201.21,481.301 1203.25,474.557 1205.29,468.75 1207.33,464.008 1209.37,460.417 1211.4,457.919 1213.44,456.426 1215.48,455.85 1217.52,456.105 1219.56,457.103 1221.59,458.754 1223.63,460.973 1225.67,463.671 1227.71,466.761 1229.75,470.154 1231.78,473.763 1233.82,477.501 1235.86,481.28 1237.9,485.011 1239.94,488.608 1241.98,491.982 1244.01,495.046 1246.05,497.713 1248.09,499.894 1250.13,501.501 1252.17,502.455 1254.2,502.755 1256.24,502.449 1258.28,501.586 1260.32,500.217 1262.36,498.39 1264.39,496.154 1266.43,493.559 1268.47,490.654 1270.51,487.488 1272.55,484.112 1274.59,480.573 1276.62,476.921 1278.66,473.206 1280.7,469.477 1282.74,465.783 1284.78,462.174 1286.81,458.698 1288.85,455.406 1290.89,452.346 1292.93,449.567 1294.97,447.119 1297,445.031 1299.04,443.3 1301.08,441.92 1303.12,440.884 1305.16,440.188 1307.2,439.825 1309.23,439.789 1311.27,440.074 1313.31,440.675 1315.35,441.585 1317.39,442.798 1319.42,444.309 1321.46,446.111 1323.5,448.199 1325.54,450.567 1327.58,453.208 1329.61,456.117 1331.65,459.288 1333.69,462.715 1335.73,466.392 1337.77,470.313 1339.81,474.467 1341.84,478.819 1343.88,483.326 1345.92,487.946 1347.96,492.637 1350,497.356 1352.03,502.062 1354.07,506.711 1356.11,511.262 1358.15,515.673 1360.19,519.9 1362.23,523.902 1364.26,527.636 1366.3,531.06 1368.34,534.132 1370.38,536.81 1372.42,539.05 1374.45,540.812 1376.49,542.052 1378.53,542.728 1380.57,542.798 1382.61,542.223 1384.64,541.021 1386.68,539.255 1388.72,536.989 1390.76,534.287 1392.8,531.215 1394.84,527.836 1396.87,524.215 1398.91,520.416 1400.95,516.504 1402.99,512.543 1405.03,508.597 1407.06,504.732 1409.1,501.01 1411.14,497.498 1413.18,494.259 1415.22,491.357 1417.25,488.858 1419.29,486.825 1421.33,485.322 1423.37,484.416 1425.41,484.168 1427.45,484.6 1429.48,485.634 1431.52,487.183 1433.56,489.156 1435.6,491.467 1437.64,494.025 1439.67,496.743 1441.71,499.532 1443.75,502.302 1445.79,504.966 1447.83,507.435 1449.86,509.619 1451.9,511.431 1453.94,512.782 1455.98,513.582 1458.02,513.743 1460.06,513.178 1462.09,511.796 1464.13,509.509 1466.17,506.229 1468.21,501.866 1470.25,496.36 1472.28,489.82 1474.32,482.422 1476.36,474.346 1478.4,465.767 1480.44,456.864 1482.47,447.814 1484.51,438.794 1486.55,429.982 1488.59,421.555 1490.63,413.691 1492.67,406.567 1494.7,400.361 1496.74,395.25 1498.78,391.411 1500.82,389.023 1502.86,388.262 1504.89,389.305 1506.93,392.331 1508.97,397.517 1511.01,405.04 1513.05,415.072 1515.08,427.627 1517.12,442.558 1519.16,459.706 1521.2,478.915 1523.24,500.027 1525.28,522.886 1527.31,547.334 1529.35,573.214 1531.39,600.368 1533.43,628.641 1535.47,657.874 1537.5,687.911 1539.54,718.595 1541.58,749.767 1543.62,781.272 1545.66,812.952 1547.69,844.65 1549.73,876.208 1551.77,907.471 1553.81,938.28 1555.85,968.478 1557.89,997.935 1559.92,1026.6 1561.96,1054.43 1564,1081.39 1566.04,1107.43 1568.08,1132.53 1570.11,1156.64 1572.15,1179.71 1574.19,1201.72 1576.23,1222.63 1578.27,1242.38 1580.3,1260.95 1582.34,1278.3 1584.38,1294.38 1586.42,1309.15 1588.46,1322.59 1590.5,1334.64 1592.53,1345.27 1594.57,1354.44 1596.61,1362.12 1598.65,1368.25 1600.69,1372.82 1602.72,1375.88 1604.76,1377.55 1606.8,1377.93 1608.84,1377.14 1610.88,1375.28 1612.91,1372.47 1614.95,1368.83 1616.99,1364.45 1619.03,1359.44 1621.07,1353.93 1623.11,1348.02 1625.14,1341.83 1627.18,1335.45 1629.22,1329 1631.26,1322.6 1633.3,1316.36 1635.33,1310.37 1637.37,1304.77 1639.41,1299.64 1641.45,1295.12 1643.49,1291.3 1645.53,1288.23 1647.56,1285.86 1649.6,1284.16 1651.64,1283.06 1653.68,1282.52 1655.72,1282.49 1657.75,1282.91 1659.79,1283.75 1661.83,1284.94 1663.87,1286.44 1665.91,1288.2 1667.94,1290.17 1669.98,1292.3 1672.02,1294.53 1674.06,1296.83 1676.1,1299.14 1678.14,1301.4 1680.17,1303.58 1682.21,1305.61 1684.25,1307.46 1686.29,1309.07 1688.33,1310.4 1690.36,1311.45 1692.4,1312.26 1694.44,1312.83 1696.48,1313.19 1698.52,1313.36 1700.55,1313.34 1702.59,1313.17 1704.63,1312.86 1706.67,1312.42 1708.71,1311.88 1710.75,1311.26 1712.78,1310.57 1714.82,1309.83 1716.86,1309.07 1718.9,1308.29 1720.94,1307.53 1722.97,1306.79 1725.01,1306.09 1727.05,1305.46 1729.09,1304.91 1731.13,1304.47 1733.16,1304.12 1735.2,1303.87 1737.24,1303.71 1739.28,1303.64 1741.32,1303.63 1743.36,1303.7 1745.39,1303.82 1747.43,1304 1749.47,1304.22 1751.51,1304.48 1753.55,1304.78 1755.58,1305.1 1757.62,1305.43 1759.66,1305.78 1761.7,1306.12 1763.74,1306.47 1765.77,1306.8 1767.81,1307.11 1769.85,1307.4 1771.89,1307.66 1773.93,1307.87 1775.97,1308.04 1778,1308.17 1780.04,1308.26 1782.08,1308.31 1784.12,1308.33 1786.16,1308.32 1788.19,1308.29 1790.23,1308.23 1792.27,1308.15 1794.31,1308.05 1796.35,1307.94 1798.38,1307.81 1800.42,1307.67 1802.46,1307.53 1804.5,1307.39 1806.54,1307.24 1808.58,1307.1 1810.61,1306.96 1812.65,1306.83 1814.69,1306.71 1816.73,1306.6 1818.77,1306.52 1820.8,1306.45 1822.84,1306.39 1824.88,1306.35 1826.92,1306.32 1828.96,1306.3 1830.99,1306.3 1833.03,1306.3 1835.07,1306.31 1837.11,1306.34 1839.15,1306.36 1841.19,1306.4 1843.22,1306.43 1845.26,1306.47 1847.3,1306.52 1849.34,1306.56 1851.38,1306.6 1853.41,1306.65 1855.45,1306.69 1857.49,1306.72 1859.53,1306.76 1861.57,1306.79 1863.6,1306.81 1865.64,1306.82 1867.68,1306.84 1869.72,1306.84 1871.76,1306.85 1873.8,1306.84 1875.83,1306.84 1877.87,1306.83 1879.91,1306.82 1881.95,1306.81 1883.99,1306.79 1886.02,1306.77 1888.06,1306.76 1890.1,1306.74 1892.14,1306.72 1894.18,1306.7 1896.21,1306.67 1898.25,1306.66 1900.29,1306.64 1902.33,1306.62 1904.37,1306.6 1906.41,1306.59 1908.44,1306.57 1910.48,1306.56 1912.52,1306.55 1914.56,1306.55 1916.6,1306.54 1918.63,1306.53 1920.67,1306.53 1922.71,1306.53 1924.75,1306.52 1926.79,1306.52 1928.82,1306.52 1930.86,1306.52 1932.9,1306.52 1934.94,1306.52 1936.98,1306.53 1939.02,1306.53 1941.05,1306.53 1943.09,1306.53 1945.13,1306.53 1947.17,1306.54 1949.21,1306.54 1951.24,1306.54 1953.28,1306.54 1955.32,1306.54 1957.36,1306.54 1959.4,1306.55 1961.44,1306.55 1963.47,1306.55 1965.51,1306.55 1967.55,1306.55 1969.59,1306.55 1971.63,1306.55 1973.66,1306.55 1975.7,1306.55 1977.74,1306.55 1979.78,1306.55 1981.82,1306.55 1983.85,1306.55 1985.89,1306.55 1987.93,1306.55 1989.97,1306.55 1992.01,1306.55 1994.05,1306.55 1996.08,1306.55 1998.12,1306.55 2000.16,1306.55 2002.2,1306.55 2004.24,1306.55 2006.27,1306.55 2008.31,1306.55 2010.35,1306.55 2012.39,1306.55 2014.43,1306.55 2016.46,1306.55 2018.5,1306.55 2020.54,1306.55 2022.58,1306.55 2024.62,1306.55 2026.66,1306.55 2028.69,1306.55 2030.73,1306.55 2032.77,1306.55 2034.81,1306.55 2036.85,1306.55 2038.88,1306.55 2040.92,1306.55 2042.96,1306.55 2045,1306.55 2047.04,1306.55 2049.07,1306.55 2051.11,1306.55 2053.15,1306.55 2055.19,1306.55 2057.23,1306.55 2059.27,1306.55 2061.3,1306.55 2063.34,1306.55 2065.38,1306.55 2067.42,1306.55 2069.46,1306.55 2071.49,1306.55 2073.53,1306.55 2075.57,1306.55 2077.61,1306.55 2079.65,1306.55 2081.68,1306.55 2083.72,1306.55 2085.76,1306.55 2087.8,1306.55 2089.84,1306.55 2091.88,1306.55 2093.91,1306.55 2095.95,1306.55 2097.99,1306.55 2100.03,1306.55 2102.07,1306.55 2104.1,1306.55 2106.14,1306.55 2108.18,1306.55 2110.22,1306.55 2112.26,1306.55 2114.29,1306.55 2116.33,1306.55 2118.37,1306.55 2120.41,1306.55 2122.45,1306.55 2124.49,1306.55 2126.52,1306.55 2128.56,1306.55 2130.6,1306.55 2132.64,1306.55 2134.68,1306.55 2136.71,1306.55 2138.75,1306.55 2140.79,1306.55 2142.83,1306.55 2144.87,1306.55 2146.9,1306.55 2148.94,1306.55 2150.98,1306.55 2153.02,1306.55 2155.06,1306.55 2157.1,1306.55 2159.13,1306.55 2161.17,1306.55 2163.21,1306.55 2165.25,1306.55 2167.29,1306.55 2169.32,1306.55 2171.36,1306.55 2173.4,1306.55 2175.44,1306.55 2177.48,1306.55 2179.51,1306.55 2181.55,1306.55 2183.59,1306.55 2185.63,1306.55 2187.67,1306.55 2189.71,1306.55 2191.74,1306.55 2193.78,1306.55 2195.82,1306.55 2197.86,1306.55 2199.9,1306.55 2201.93,1306.55 2203.97,1306.55 2206.01,1306.55 2208.05,1306.55 2210.09,1306.55 2212.12,1306.55 2214.16,1306.55 2216.2,1306.55 2218.24,1306.55 2220.28,1306.55 2222.32,1306.55 2224.35,1306.55 2226.39,1306.55 2228.43,1306.55 2230.47,1306.55 2232.51,1306.55 2234.54,1306.55 2236.58,1306.55 2238.62,1306.55 2240.66,1306.55 2242.7,1306.55 2244.74,1306.55 2246.77,1306.55 2248.81,1306.55 2250.85,1306.55 2252.89,1306.55 2254.93,1306.55 2256.96,1306.55 2259,1306.55 2261.04,1306.55 2263.08,1306.55 2265.12,1306.55 2267.15,1306.55 2269.19,1306.55 2271.23,1306.55 2273.27,1306.55 2275.31,1306.55 2277.35,1306.55 2279.38,1306.55 2281.42,1306.55 2283.46,1306.55 2285.5,1306.55 2287.54,1306.55 2289.57,1306.55 2291.61,1306.55 "/>
<path clip-path="url(#clip400)" d="M1742.87 302.578 L2280.74 302.578 L2280.74 95.2176 L1742.87 95.2176  Z" fill="#ffffff" fill-rule="evenodd" fill-opacity="1"/>
<polyline clip-path="url(#clip400)" style="stroke:#000000; stroke-linecap:round; stroke-linejoin:round; stroke-width:4; stroke-opacity:1; fill:none" points="1742.87,302.578 2280.74,302.578 2280.74,95.2176 1742.87,95.2176 1742.87,302.578 "/>
<circle clip-path="url(#clip400)" cx="1838.89" cy="147.058" r="20.48" fill="#000000" fill-rule="evenodd" fill-opacity="1" stroke="none"/>
<path clip-path="url(#clip400)" d="M1953.82 142.347 L1953.82 128.319 L1958.08 128.319 L1958.08 164.338 L1953.82 164.338 L1953.82 160.449 Q1952.48 162.763 1950.42 163.898 Q1948.38 165.009 1945.51 165.009 Q1940.81 165.009 1937.85 161.259 Q1934.91 157.509 1934.91 151.398 Q1934.91 145.287 1937.85 141.537 Q1940.81 137.787 1945.51 137.787 Q1948.38 137.787 1950.42 138.921 Q1952.48 140.032 1953.82 142.347 M1939.31 151.398 Q1939.31 156.097 1941.23 158.782 Q1943.17 161.444 1946.55 161.444 Q1949.93 161.444 1951.88 158.782 Q1953.82 156.097 1953.82 151.398 Q1953.82 146.699 1951.88 144.037 Q1949.93 141.352 1946.55 141.352 Q1943.17 141.352 1941.23 144.037 Q1939.31 146.699 1939.31 151.398 Z" fill="#000000" fill-rule="nonzero" fill-opacity="1" /><path clip-path="url(#clip400)" d="M1978.64 151.305 Q1973.47 151.305 1971.48 152.486 Q1969.49 153.666 1969.49 156.514 Q1969.49 158.782 1970.98 160.125 Q1972.48 161.444 1975.05 161.444 Q1978.59 161.444 1980.72 158.944 Q1982.87 156.421 1982.87 152.254 L1982.87 151.305 L1978.64 151.305 M1987.13 149.546 L1987.13 164.338 L1982.87 164.338 L1982.87 160.402 Q1981.41 162.763 1979.24 163.898 Q1977.06 165.009 1973.91 165.009 Q1969.93 165.009 1967.57 162.787 Q1965.23 160.541 1965.23 156.791 Q1965.23 152.416 1968.15 150.194 Q1971.09 147.972 1976.9 147.972 L1982.87 147.972 L1982.87 147.555 Q1982.87 144.615 1980.93 143.018 Q1979.01 141.398 1975.51 141.398 Q1973.29 141.398 1971.18 141.93 Q1969.08 142.463 1967.13 143.527 L1967.13 139.592 Q1969.47 138.69 1971.67 138.25 Q1973.87 137.787 1975.95 137.787 Q1981.58 137.787 1984.35 140.703 Q1987.13 143.62 1987.13 149.546 Z" fill="#000000" fill-rule="nonzero" fill-opacity="1" /><path clip-path="url(#clip400)" d="M2000.12 131.051 L2000.12 138.412 L2008.89 138.412 L2008.89 141.722 L2000.12 141.722 L2000.12 155.796 Q2000.12 158.967 2000.97 159.87 Q2001.85 160.773 2004.52 160.773 L2008.89 160.773 L2008.89 164.338 L2004.52 164.338 Q1999.59 164.338 1997.71 162.509 Q1995.84 160.657 1995.84 155.796 L1995.84 141.722 L1992.71 141.722 L1992.71 138.412 L1995.84 138.412 L1995.84 131.051 L2000.12 131.051 Z" fill="#000000" fill-rule="nonzero" fill-opacity="1" /><path clip-path="url(#clip400)" d="M2026.28 151.305 Q2021.11 151.305 2019.12 152.486 Q2017.13 153.666 2017.13 156.514 Q2017.13 158.782 2018.61 160.125 Q2020.12 161.444 2022.69 161.444 Q2026.23 161.444 2028.36 158.944 Q2030.51 156.421 2030.51 152.254 L2030.51 151.305 L2026.28 151.305 M2034.77 149.546 L2034.77 164.338 L2030.51 164.338 L2030.51 160.402 Q2029.05 162.763 2026.88 163.898 Q2024.7 165.009 2021.55 165.009 Q2017.57 165.009 2015.21 162.787 Q2012.87 160.541 2012.87 156.791 Q2012.87 152.416 2015.79 150.194 Q2018.73 147.972 2024.54 147.972 L2030.51 147.972 L2030.51 147.555 Q2030.51 144.615 2028.57 143.018 Q2026.65 141.398 2023.15 141.398 Q2020.93 141.398 2018.82 141.93 Q2016.72 142.463 2014.77 143.527 L2014.77 139.592 Q2017.11 138.69 2019.31 138.25 Q2021.51 137.787 2023.59 137.787 Q2029.22 137.787 2031.99 140.703 Q2034.77 143.62 2034.77 149.546 Z" fill="#000000" fill-rule="nonzero" fill-opacity="1" /><polyline clip-path="url(#clip400)" style="stroke:#e26f46; stroke-linecap:round; stroke-linejoin:round; stroke-width:4; stroke-opacity:1; fill:none" points="1766.88,198.898 1910.91,198.898 "/>
<path clip-path="url(#clip400)" d="M1942.32 182.891 L1942.32 190.252 L1951.09 190.252 L1951.09 193.562 L1942.32 193.562 L1942.32 207.636 Q1942.32 210.807 1943.17 211.71 Q1944.05 212.613 1946.72 212.613 L1951.09 212.613 L1951.09 216.178 L1946.72 216.178 Q1941.79 216.178 1939.91 214.349 Q1938.04 212.497 1938.04 207.636 L1938.04 193.562 L1934.91 193.562 L1934.91 190.252 L1938.04 190.252 L1938.04 182.891 L1942.32 182.891 Z" fill="#000000" fill-rule="nonzero" fill-opacity="1" /><path clip-path="url(#clip400)" d="M1971.72 194.233 Q1971 193.817 1970.14 193.631 Q1969.31 193.423 1968.29 193.423 Q1964.68 193.423 1962.73 195.784 Q1960.81 198.122 1960.81 202.52 L1960.81 216.178 L1956.53 216.178 L1956.53 190.252 L1960.81 190.252 L1960.81 194.28 Q1962.16 191.918 1964.31 190.784 Q1966.46 189.627 1969.54 189.627 Q1969.98 189.627 1970.51 189.696 Q1971.04 189.743 1971.69 189.858 L1971.72 194.233 Z" fill="#000000" fill-rule="nonzero" fill-opacity="1" /><path clip-path="url(#clip400)" d="M1975.74 205.946 L1975.74 190.252 L1980 190.252 L1980 205.784 Q1980 209.465 1981.44 211.316 Q1982.87 213.145 1985.74 213.145 Q1989.19 213.145 1991.18 210.946 Q1993.2 208.747 1993.2 204.951 L1993.2 190.252 L1997.46 190.252 L1997.46 216.178 L1993.2 216.178 L1993.2 212.196 Q1991.65 214.557 1989.59 215.715 Q1987.55 216.849 1984.84 216.849 Q1980.37 216.849 1978.06 214.071 Q1975.74 211.293 1975.74 205.946 M1986.46 189.627 L1986.46 189.627 Z" fill="#000000" fill-rule="nonzero" fill-opacity="1" /><path clip-path="url(#clip400)" d="M2028.41 202.15 L2028.41 204.233 L2008.82 204.233 Q2009.1 208.631 2011.46 210.946 Q2013.85 213.238 2018.08 213.238 Q2020.53 213.238 2022.83 212.636 Q2025.14 212.034 2027.41 210.83 L2027.41 214.858 Q2025.12 215.83 2022.71 216.34 Q2020.3 216.849 2017.83 216.849 Q2011.62 216.849 2007.99 213.238 Q2004.38 209.627 2004.38 203.469 Q2004.38 197.104 2007.8 193.377 Q2011.25 189.627 2017.09 189.627 Q2022.32 189.627 2025.35 193.006 Q2028.41 196.363 2028.41 202.15 M2024.15 200.9 Q2024.1 197.405 2022.18 195.321 Q2020.28 193.238 2017.13 193.238 Q2013.57 193.238 2011.41 195.252 Q2009.28 197.266 2008.96 200.923 L2024.15 200.9 Z" fill="#000000" fill-rule="nonzero" fill-opacity="1" /><polyline clip-path="url(#clip400)" style="stroke:#3da44d; stroke-linecap:round; stroke-linejoin:round; stroke-width:4; stroke-opacity:1; fill:none" points="1766.88,250.738 1910.91,250.738 "/>
<path clip-path="url(#clip400)" d="M1953.68 255.078 Q1953.68 250.379 1951.74 247.717 Q1949.82 245.032 1946.44 245.032 Q1943.06 245.032 1941.11 247.717 Q1939.19 250.379 1939.19 255.078 Q1939.19 259.777 1941.11 262.462 Q1943.06 265.124 1946.44 265.124 Q1949.82 265.124 1951.74 262.462 Q1953.68 259.777 1953.68 255.078 M1939.19 246.027 Q1940.54 243.712 1942.57 242.601 Q1944.63 241.467 1947.48 241.467 Q1952.2 241.467 1955.14 245.217 Q1958.1 248.967 1958.1 255.078 Q1958.1 261.189 1955.14 264.939 Q1952.2 268.689 1947.48 268.689 Q1944.63 268.689 1942.57 267.578 Q1940.54 266.443 1939.19 264.129 L1939.19 268.018 L1934.91 268.018 L1934.91 231.999 L1939.19 231.999 L1939.19 246.027 Z" fill="#000000" fill-rule="nonzero" fill-opacity="1" /><path clip-path="url(#clip400)" d="M1981.69 242.856 L1981.69 246.883 Q1979.89 245.957 1977.94 245.495 Q1976 245.032 1973.91 245.032 Q1970.74 245.032 1969.15 246.004 Q1967.57 246.976 1967.57 248.92 Q1967.57 250.402 1968.71 251.258 Q1969.84 252.092 1973.27 252.856 L1974.72 253.18 Q1979.26 254.152 1981.16 255.934 Q1983.08 257.694 1983.08 260.865 Q1983.08 264.476 1980.21 266.582 Q1977.36 268.689 1972.36 268.689 Q1970.28 268.689 1968.01 268.272 Q1965.77 267.879 1963.27 267.068 L1963.27 262.67 Q1965.63 263.897 1967.92 264.522 Q1970.21 265.124 1972.46 265.124 Q1975.47 265.124 1977.09 264.106 Q1978.71 263.064 1978.71 261.189 Q1978.71 259.453 1977.53 258.527 Q1976.37 257.601 1972.41 256.744 L1970.93 256.397 Q1966.97 255.564 1965.21 253.851 Q1963.45 252.115 1963.45 249.106 Q1963.45 245.448 1966.04 243.458 Q1968.64 241.467 1973.41 241.467 Q1975.77 241.467 1977.85 241.814 Q1979.93 242.161 1981.69 242.856 Z" fill="#000000" fill-rule="nonzero" fill-opacity="1" /><path clip-path="url(#clip400)" d="M1993.98 264.129 L1993.98 277.879 L1989.7 277.879 L1989.7 242.092 L1993.98 242.092 L1993.98 246.027 Q1995.33 243.712 1997.36 242.601 Q1999.42 241.467 2002.27 241.467 Q2006.99 241.467 2009.93 245.217 Q2012.9 248.967 2012.9 255.078 Q2012.9 261.189 2009.93 264.939 Q2006.99 268.689 2002.27 268.689 Q1999.42 268.689 1997.36 267.578 Q1995.33 266.443 1993.98 264.129 M2008.47 255.078 Q2008.47 250.379 2006.53 247.717 Q2004.61 245.032 2001.23 245.032 Q1997.85 245.032 1995.91 247.717 Q1993.98 250.379 1993.98 255.078 Q1993.98 259.777 1995.91 262.462 Q1997.85 265.124 2001.23 265.124 Q2004.61 265.124 2006.53 262.462 Q2008.47 259.777 2008.47 255.078 Z" fill="#000000" fill-rule="nonzero" fill-opacity="1" /><path clip-path="url(#clip400)" d="M2019.96 231.999 L2024.22 231.999 L2024.22 268.018 L2019.96 268.018 L2019.96 231.999 Z" fill="#000000" fill-rule="nonzero" fill-opacity="1" /><path clip-path="url(#clip400)" d="M2033.13 242.092 L2037.39 242.092 L2037.39 268.018 L2033.13 268.018 L2033.13 242.092 M2033.13 231.999 L2037.39 231.999 L2037.39 237.393 L2033.13 237.393 L2033.13 231.999 Z" fill="#000000" fill-rule="nonzero" fill-opacity="1" /><path clip-path="url(#clip400)" d="M2067.85 252.369 L2067.85 268.018 L2063.59 268.018 L2063.59 252.508 Q2063.59 248.828 2062.16 246.999 Q2060.72 245.17 2057.85 245.17 Q2054.4 245.17 2052.41 247.37 Q2050.42 249.569 2050.42 253.365 L2050.42 268.018 L2046.14 268.018 L2046.14 242.092 L2050.42 242.092 L2050.42 246.12 Q2051.95 243.782 2054.01 242.624 Q2056.09 241.467 2058.8 241.467 Q2063.27 241.467 2065.56 244.245 Q2067.85 246.999 2067.85 252.369 Z" fill="#000000" fill-rule="nonzero" fill-opacity="1" /><path clip-path="url(#clip400)" d="M2098.52 253.99 L2098.52 256.073 L2078.94 256.073 Q2079.22 260.471 2081.58 262.786 Q2083.96 265.078 2088.2 265.078 Q2090.65 265.078 2092.94 264.476 Q2095.26 263.874 2097.53 262.67 L2097.53 266.698 Q2095.23 267.67 2092.83 268.18 Q2090.42 268.689 2087.94 268.689 Q2081.74 268.689 2078.1 265.078 Q2074.49 261.467 2074.49 255.309 Q2074.49 248.944 2077.92 245.217 Q2081.37 241.467 2087.2 241.467 Q2092.43 241.467 2095.47 244.846 Q2098.52 248.203 2098.52 253.99 M2094.26 252.74 Q2094.22 249.245 2092.29 247.161 Q2090.4 245.078 2087.25 245.078 Q2083.68 245.078 2081.53 247.092 Q2079.4 249.106 2079.08 252.763 L2094.26 252.74 Z" fill="#000000" fill-rule="nonzero" fill-opacity="1" /><path clip-path="url(#clip400)" d="M2124.84 266.42 L2124.84 277.879 L2120.56 277.879 L2120.56 242.254 Q2120.56 231.698 2130.42 231.698 Q2140.46 231.698 2140.46 240.61 Q2140.46 246.953 2136.48 249.268 Q2142.96 251.351 2142.96 257.531 Q2142.96 268.504 2131.81 268.504 Q2126.9 268.504 2124.84 266.42 M2124.84 260.865 Q2127.41 264.869 2131.97 264.869 Q2138.64 264.869 2138.64 257.601 Q2138.64 251.073 2127.9 251.582 L2127.9 247.647 Q2136.3 247.647 2136.3 240.24 Q2136.3 235.171 2130.88 235.171 Q2124.84 235.171 2124.84 242.393 L2124.84 260.865 Z" fill="#000000" fill-rule="nonzero" fill-opacity="1" /><path clip-path="url(#clip400)" d="M2151.39 246.49 L2181.07 246.49 L2181.07 250.379 L2151.39 250.379 L2151.39 246.49 M2151.39 255.934 L2181.07 255.934 L2181.07 259.869 L2151.39 259.869 L2151.39 255.934 Z" fill="#000000" fill-rule="nonzero" fill-opacity="1" /><path clip-path="url(#clip400)" d="M2201.16 236.536 Q2197.55 236.536 2195.72 240.101 Q2193.91 243.643 2193.91 250.772 Q2193.91 257.879 2195.72 261.444 Q2197.55 264.985 2201.16 264.985 Q2204.79 264.985 2206.6 261.444 Q2208.43 257.879 2208.43 250.772 Q2208.43 243.643 2206.6 240.101 Q2204.79 236.536 2201.16 236.536 M2201.16 232.833 Q2206.97 232.833 2210.02 237.439 Q2213.1 242.022 2213.1 250.772 Q2213.1 259.499 2210.02 264.106 Q2206.97 268.689 2201.16 268.689 Q2195.35 268.689 2192.27 264.106 Q2189.21 259.499 2189.21 250.772 Q2189.21 242.022 2192.27 237.439 Q2195.35 232.833 2201.16 232.833 Z" fill="#000000" fill-rule="nonzero" fill-opacity="1" /><path clip-path="url(#clip400)" d="M2221.32 262.138 L2226.21 262.138 L2226.21 268.018 L2221.32 268.018 L2221.32 262.138 Z" fill="#000000" fill-rule="nonzero" fill-opacity="1" /><path clip-path="url(#clip400)" d="M2240.42 264.082 L2256.74 264.082 L2256.74 268.018 L2234.79 268.018 L2234.79 264.082 Q2237.46 261.328 2242.04 256.698 Q2246.64 252.045 2247.83 250.703 Q2250.07 248.18 2250.95 246.444 Q2251.85 244.684 2251.85 242.995 Q2251.85 240.24 2249.91 238.504 Q2247.99 236.768 2244.89 236.768 Q2242.69 236.768 2240.23 237.532 Q2237.8 238.295 2235.02 239.846 L2235.02 235.124 Q2237.85 233.99 2240.3 233.411 Q2242.76 232.833 2244.79 232.833 Q2250.16 232.833 2253.36 235.518 Q2256.55 238.203 2256.55 242.694 Q2256.55 244.823 2255.74 246.745 Q2254.95 248.643 2252.85 251.235 Q2252.27 251.907 2249.17 255.124 Q2246.07 258.319 2240.42 264.082 Z" fill="#000000" fill-rule="nonzero" fill-opacity="1" /></svg>
